<svg width="426" height="426" viewBox="0 0 426 426" fill="none" xmlns="http://www.w3.org/2000/svg">
<path d="M119.04 102.62C142.523 102.62 161.56 83.5832 161.56 60.1001C161.56 36.6169 142.523 17.5801 119.04 17.5801C95.5569 17.5801 76.52 36.6169 76.52 60.1001C76.52 83.5832 95.5569 102.62 119.04 102.62Z" fill="#AA7950"/>
<path d="M122.27 92.0496C137.927 92.0496 150.62 79.3569 150.62 63.6996C150.62 48.0423 137.927 35.3496 122.27 35.3496C106.613 35.3496 93.92 48.0423 93.92 63.6996C93.92 79.3569 106.613 92.0496 122.27 92.0496Z" fill="#835E3E"/>
<path d="M290.46 99.0302C313.943 99.0302 332.98 79.9934 332.98 56.5102C332.98 33.0271 313.943 13.9902 290.46 13.9902C266.977 13.9902 247.94 33.0271 247.94 56.5102C247.94 79.9934 266.977 99.0302 290.46 99.0302Z" fill="#AA7950"/>
<path d="M284.24 88.45C299.897 88.45 312.59 75.7573 312.59 60.1C312.59 44.4427 299.897 31.75 284.24 31.75C268.583 31.75 255.89 44.4427 255.89 60.1C255.89 75.7573 268.583 88.45 284.24 88.45Z" fill="#835E3E"/>
<path d="M84.07 308.26L92.61 305.67L87.72 299.88L84.07 308.26Z" fill="#835E3E"/>
<path d="M91.74 315.42L99.18 310.49L92.84 306.34L91.74 315.42Z" fill="#835E3E"/>
<path d="M102.58 319.32L106.89 311.43L99.39 310.75L102.58 319.32Z" fill="#835E3E"/>
<path d="M332.49 306.49L331.42 297.62L324.87 301.43L332.49 306.49Z" fill="#835E3E"/>
<path d="M340.09 299.35L336.31 291.26L331.27 296.92L340.09 299.35Z" fill="#835E3E"/>
<path d="M345.33 289.42L338.43 283.66L336.3 290.88L345.33 289.42Z" fill="#835E3E"/>
<path d="M130.42 214.38C84.92 173.35 78.2 105.78 119.04 60.1004C159.88 14.4304 238.49 9.89039 284.32 50.5504C330.15 91.2104 327.25 165.4 286.78 211.39C303.68 224.6 343.61 263.98 338.47 284.81C331.15 314.49 317.11 301.49 295.44 287.09C298.23 309.71 291.53 337.61 286.74 354.54C282.42 369.81 275.14 401.12 259.04 402.06C236.94 401.89 235.35 395.41 230.75 382.2C225.8 367.95 223.66 356.12 212.05 356.03C200.4 356.03 200.51 370.4 196.92 381.48C192.93 393.8 196.39 401.01 174.52 402.42C155.98 403.62 147.62 375.57 139.55 352.7C135.27 340.57 129.35 300.82 130.02 287.47C118.54 298.07 108.59 324.31 91.36 307.07C83.33 299.03 86.49 284.99 89.61 274.07C96.34 250.48 110.89 229.2 130.43 214.37" fill="#AA7950"/>
<path d="M155.25 148.44C161.601 148.44 166.75 143.292 166.75 136.94C166.75 130.589 161.601 125.44 155.25 125.44C148.899 125.44 143.75 130.589 143.75 136.94C143.75 143.292 148.899 148.44 155.25 148.44Z" fill="#825E3E"/>
<path d="M254.25 148.44C260.601 148.44 265.75 143.292 265.75 136.94C265.75 130.589 260.601 125.44 254.25 125.44C247.899 125.44 242.75 130.589 242.75 136.94C242.75 143.292 247.899 148.44 254.25 148.44Z" fill="#825E3E"/>
<path d="M101.56 307.28C106.392 307.28 110.31 303.64 110.31 299.15C110.31 294.659 106.392 291.02 101.56 291.02C96.7275 291.02 92.81 294.659 92.81 299.15C92.81 303.64 96.7275 307.28 101.56 307.28Z" fill="#835E3E"/>
<path d="M324.87 295.08C329.702 295.08 333.62 291.44 333.62 286.95C333.62 282.46 329.702 278.82 324.87 278.82C320.038 278.82 316.12 282.46 316.12 286.95C316.12 291.44 320.038 295.08 324.87 295.08Z" fill="#835E3E"/>
<path d="M130.42 214.38L286.78 211.4C286.78 211.4 250.54 219.94 206.11 219.94C161.68 219.94 130.43 214.39 130.43 214.39L130.42 214.38Z" fill="#CD5D54" stroke="#AE5248" stroke-linecap="round" stroke-linejoin="round"/>
<path d="M169.28 243.319C168.1 245.669 169.09 247.699 170.22 249.049C177.4 257.649 189.8 247.959 194.09 240.879C199.41 232.099 203.56 227.709 212.04 220.949C210.73 221.989 206.84 219.989 206.28 221.549C205.72 223.109 204.94 227.539 203.64 228.569C193.71 236.489 194.05 250.599 185.49 259.449C181.85 263.219 176.27 266.709 170.8 265.299C165.92 264.039 163.19 259.499 163.62 254.639C164.09 249.269 166.13 243.609 168.01 238.639C169.77 233.999 172.92 229.949 176.93 226.859C186.84 219.229 201.19 221.379 211.66 214.409C210.42 215.229 209.67 220.089 209.17 221.479C208.67 222.869 207.75 227.689 206.53 228.499C196.92 234.889 185.12 233.229 174.59 238.029C174.59 238.029 170.75 240.349 169.28 243.289V243.319Z" fill="#CD5D54" stroke="#AE5248" stroke-linecap="round" stroke-linejoin="round"/>
<path d="M248.99 249C249.94 247.06 249.85 244.35 248.35 242.15C245.92 238.56 241.72 237.49 237.89 236.54C227.16 233.85 214.96 234.81 205.53 228.53C204.46 227.82 211.55 215.03 210.66 214.43C221.27 221.49 236 219.22 245.87 227.27C249.69 230.38 252.86 235.04 253.52 240C254.19 245.09 251.27 250.43 249.57 255.04C247.87 259.65 246.43 263.97 241.26 265.3C235.56 266.77 229.75 262.95 226.08 258.94C217.95 250.06 218.2 236.36 208.42 228.57C207.09 227.51 211.74 230.89 210.58 229.97C219.24 236.87 222.92 232.64 228.6 241.47C231.18 245.49 235.03 249.35 239.66 250.72C245.53 252.44 247.81 251.42 248.99 248.99V249Z" fill="#CD5D54" stroke="#AE5248" stroke-linecap="round" stroke-linejoin="round"/>
<path d="M203.32 234.11C203.05 236.62 202.7 239.11 202.19 241.59C201.8 243.49 201.27 245.32 200.79 247.2C199.45 252.42 203.32 240.6 203.23 240.74C201.65 243.09 200.8 246.16 199.4 248.67C198.05 251.09 196.56 253.44 194.95 255.7C188.93 264.18 181.24 271.23 172.33 276.58C171.16 277.28 170.17 282.3 169.69 283.6C169.21 284.9 168.39 289.96 167.2 290.67C179.81 283.09 189.96 271.99 196.36 258.73C202.11 246.82 207.03 233.22 208.45 220.02C207.93 224.82 203.84 229.26 203.32 234.12V234.11Z" fill="#CD5D54" stroke="#AE5248" stroke-linecap="round" stroke-linejoin="round"/>
<path d="M202.97 235.829C201.85 260.569 218.38 284.029 242.04 291.309C242.39 291.419 247.04 277.169 247.17 277.209C223.5 269.919 206.98 246.459 208.1 221.729C207.89 226.459 203.19 231.029 202.97 235.829Z" fill="#CD5D54" stroke="#AE5248" stroke-linecap="round" stroke-linejoin="round"/>
<path d="M209.2 234.39C213.48 234.39 216.95 229.241 216.95 222.89C216.95 216.538 213.48 211.39 209.2 211.39C204.92 211.39 201.45 216.538 201.45 222.89C201.45 229.241 204.92 234.39 209.2 234.39Z" fill="#CD5D54" stroke="#AE5248" stroke-linecap="round" stroke-linejoin="round"/>
<path d="M251.91 134.18C253.202 134.18 254.25 133.132 254.25 131.84C254.25 130.548 253.202 129.5 251.91 129.5C250.618 129.5 249.57 130.548 249.57 131.84C249.57 133.132 250.618 134.18 251.91 134.18Z" fill="white"/>
<path d="M152.91 134.18C154.202 134.18 155.25 133.132 155.25 131.84C155.25 130.548 154.202 129.5 152.91 129.5C151.618 129.5 150.57 130.548 150.57 131.84C150.57 133.132 151.618 134.18 152.91 134.18Z" fill="white"/>
<path d="M204.75 198.78C232.088 198.78 254.25 185.497 254.25 169.11C254.25 152.724 232.088 139.44 204.75 139.44C177.412 139.44 155.25 152.724 155.25 169.11C155.25 185.497 177.412 198.78 204.75 198.78Z" fill="#D9AF92"/>
<path d="M190 154C190 150.27 193.02 147.25 196.75 147.25H212.75C216.48 147.25 219.5 150.27 219.5 154C219.5 157.73 216.48 160.75 212.75 160.75C208.04 163.94 201.89 164.02 197.09 160.97L196.75 160.75C193.02 160.75 190 157.73 190 154Z" fill="#825E3E"/>
<path d="M204.76 170.54L204.66 160.57" stroke="#825E3E" stroke-width="5" stroke-miterlimit="10"/>
<path d="M234.13 176C225.71 182.71 212.6 180.27 204.86 170.55" stroke="#825E3E" stroke-width="5" stroke-linecap="round" stroke-linejoin="round"/>
<path d="M175.36 176C183.78 182.71 196.89 180.27 204.63 170.55" stroke="#825E3E" stroke-width="5" stroke-linecap="round" stroke-linejoin="round"/>
</svg>
