<svg width="344" height="334" viewBox="0 0 344 334" fill="none" xmlns="http://www.w3.org/2000/svg">
<path d="M75.1254 154.116C84.0248 118.359 125.662 87.5215 168.578 87.5215C209.189 87.5215 254.749 108.895 269.622 144.201C291.438 195.969 284.853 219.215 325.784 254.539C345.916 271.915 318.108 288.528 307.383 293.777C296.659 299.017 284.599 297.004 273.178 294.887C261.758 292.771 249.707 290.701 238.954 295.866C222.886 303.58 212.407 326.195 195.238 328.331C174.787 330.88 158.296 302.545 137.816 304.68C117.703 306.778 103.47 337.625 83.545 333.646C61.2308 329.187 65.5958 293.881 35.5958 293.881C17.1856 293.881 -0.0203817 278.001 0.863908 264.709C1.75761 251.416 19.0577 239.93 27.609 231.642C36.1508 223.354 45.8498 216.581 52.8959 206.393C60.4029 195.537 75.1348 154.135 75.1348 154.125L75.1254 154.116Z" fill="url(#paint0_radial_835_1266)"/>
<path d="M111.853 141.392C117.88 134.241 119.063 125.323 114.494 121.472C109.926 117.621 101.336 120.296 95.309 127.446C89.2816 134.597 88.0988 143.515 92.6672 147.366C97.2356 151.217 105.825 148.542 111.853 141.392Z" fill="white"/>
<path d="M283.046 119.742C286.73 119.742 289.716 116.756 289.716 113.072C289.716 109.389 286.73 106.402 283.046 106.402C279.363 106.402 276.377 109.389 276.377 113.072C276.377 116.756 279.363 119.742 283.046 119.742Z" fill="#E9A9A9"/>
<path d="M63.8555 99.9871C67.5391 99.9871 70.5253 97.0009 70.5253 93.3173C70.5253 89.6336 67.5391 86.6475 63.8555 86.6475C60.1718 86.6475 57.1857 89.6336 57.1857 93.3173C57.1857 97.0009 60.1718 99.9871 63.8555 99.9871Z" fill="#E9A9A9"/>
<path opacity="0.22" d="M172.52 283.195C219.279 283.195 257.186 272.034 257.186 258.265C257.186 244.497 219.279 233.336 172.52 233.336C125.76 233.336 87.8536 244.497 87.8536 258.265C87.8536 272.034 125.76 283.195 172.52 283.195Z" fill="#E90000"/>
<path d="M332.35 212.066C338.325 212.066 343.169 203.996 343.169 194.041C343.169 184.086 338.325 176.017 332.35 176.017C326.375 176.017 321.532 184.086 321.532 194.041C321.532 203.996 326.375 212.066 332.35 212.066Z" fill="#E9A9A9"/>
<path d="M328.539 190.636C329.864 190.636 330.939 188.846 330.939 186.638C330.939 184.43 329.864 182.64 328.539 182.64C327.214 182.64 326.139 184.43 326.139 186.638C326.139 188.846 327.214 190.636 328.539 190.636Z" fill="white"/>
<path d="M30.3748 170.674C38.9474 170.674 45.8969 162.604 45.8969 152.649C45.8969 142.695 38.9474 134.625 30.3748 134.625C21.8021 134.625 14.8527 142.695 14.8527 152.649C14.8527 162.604 21.8021 170.674 30.3748 170.674Z" fill="#E9A9A9"/>
<path d="M33.8179 160.646C35.7194 160.646 37.2609 158.856 37.2609 156.648C37.2609 154.439 35.7194 152.649 33.8179 152.649C31.9163 152.649 30.3748 154.439 30.3748 156.648C30.3748 158.856 31.9163 160.646 33.8179 160.646Z" fill="white"/>
<path d="M291.603 56.0727C291.506 67.2426 298.097 76.3552 306.323 76.4261C314.548 76.497 321.295 67.4995 321.391 56.3295C321.488 45.1595 314.897 36.047 306.671 35.9761C298.446 35.9051 291.699 44.9027 291.603 56.0727Z" fill="#EDA9A9"/>
<path d="M309.331 53.3876C310.835 55.075 313.862 54.8312 316.092 52.8432C318.322 50.8551 318.91 47.8755 317.406 46.1881C315.901 44.5007 312.874 44.7445 310.644 46.7326C308.414 48.7207 307.826 51.7002 309.331 53.3876Z" fill="white"/>
<path d="M148.945 201.511C154.66 201.511 159.293 195.825 159.293 188.811C159.293 181.797 154.66 176.111 148.945 176.111C143.23 176.111 138.597 181.797 138.597 188.811C138.597 195.825 143.23 201.511 148.945 201.511Z" fill="#A00000"/>
<path d="M221.381 201.511C227.096 201.511 231.729 195.825 231.729 188.811C231.729 181.797 227.096 176.111 221.381 176.111C215.666 176.111 211.033 181.797 211.033 188.811C211.033 195.825 215.666 201.511 221.381 201.511Z" fill="#A00000"/>
<path d="M171.185 96.2048C130.754 96.6431 117.499 87.3245 115.921 82.334V102.7C119.885 104.681 134.746 109.305 171.185 108.865C205.882 108.445 221.053 106.002 227.879 102.7V82.334C223.255 90.3703 211.806 95.7645 171.185 96.2048Z" fill="#FFE200"/>
<path d="M115.922 81.8934L109.096 33.0153C114.123 42.8129 127.767 62.4082 142.122 62.4082C157.424 62.4082 167.809 33.2354 171.955 18.7041C176.579 32.9419 183.184 60.3165 202.009 62.4082C213.568 63.6925 229.09 43.1065 234.814 33.0153L228.099 81.8934C218.852 86.1867 205.796 87.6399 172.506 88.1683C139.216 88.6967 120.912 84.2052 115.922 81.8934Z" fill="#FFE200"/>
<path d="M118.453 23.1073C118.453 28.2752 114.215 32.4646 108.986 32.4646C103.757 32.4646 99.5187 28.2752 99.5187 23.1073C99.5187 17.9394 103.757 13.75 108.986 13.75C114.215 13.75 118.453 17.9394 118.453 23.1073Z" fill="#FFE200"/>
<path d="M181.423 9.45691C181.423 14.6248 177.184 18.8142 171.955 18.8142C166.726 18.8142 162.488 14.6248 162.488 9.45691C162.488 4.28901 166.726 0.0996094 171.955 0.0996094C177.184 0.0996094 181.423 4.28901 181.423 9.45691Z" fill="#FFE200"/>
<path d="M244.392 23.1073C244.392 28.2752 240.153 32.4646 234.924 32.4646C229.696 32.4646 225.457 28.2752 225.457 23.1073C225.457 17.9394 229.696 13.75 234.924 13.75C240.153 13.75 244.392 17.9394 244.392 23.1073Z" fill="#FFE200"/>
<defs>
<radialGradient id="paint0_radial_835_1266" cx="0" cy="0" r="1" gradientUnits="userSpaceOnUse" gradientTransform="translate(173.084 185.828) scale(142.709 142.709)">
<stop stop-color="#EC0000"/>
<stop offset="1" stop-color="#F2AAAA"/>
</radialGradient>
</defs>
</svg>
