<svg width="426" height="426" viewBox="0 0 426 426" fill="none" xmlns="http://www.w3.org/2000/svg">
<g clip-path="url(#clip0_835_1265)">
<path d="M116.07 186.72C125.53 148.71 169.79 115.93 215.41 115.93C258.58 115.93 307.01 138.65 322.82 176.18C346.01 231.21 339.01 255.92 382.52 293.47C403.92 311.94 374.36 329.6 362.96 335.18C351.56 340.75 338.74 338.61 326.6 336.36C314.46 334.11 301.65 331.91 290.22 337.4C273.14 345.6 262 369.64 243.75 371.91C222.01 374.62 204.48 344.5 182.71 346.77C161.33 349 146.2 381.79 125.02 377.56C101.3 372.82 105.94 335.29 74.0499 335.29C54.4799 335.29 36.1899 318.41 37.1299 304.28C38.0799 290.15 56.4699 277.94 65.5599 269.13C74.6399 260.32 84.9499 253.12 92.4399 242.29C100.42 230.75 116.08 186.74 116.08 186.73L116.07 186.72Z" fill="url(#paint0_radial_835_1265)"/>
<path d="M155.111 173.194C161.518 165.593 162.775 156.113 157.919 152.019C153.063 147.926 143.932 150.769 137.525 158.37C131.118 165.971 129.861 175.451 134.717 179.545C139.573 183.638 148.704 180.795 155.111 173.194Z" fill="white"/>
<path d="M337.09 150.18C341.006 150.18 344.18 147.006 344.18 143.09C344.18 139.174 341.006 136 337.09 136C333.174 136 330 139.174 330 143.09C330 147.006 333.174 150.18 337.09 150.18Z" fill="#E9A9A9"/>
<path d="M104.09 129.18C108.006 129.18 111.18 126.006 111.18 122.09C111.18 118.174 108.006 115 104.09 115C100.174 115 97 118.174 97 122.09C97 126.006 100.174 129.18 104.09 129.18Z" fill="#E9A9A9"/>
<path opacity="0.22" d="M219.6 323.93C269.306 323.93 309.6 312.065 309.6 297.43C309.6 282.794 269.306 270.93 219.6 270.93C169.894 270.93 129.6 282.794 129.6 297.43C129.6 312.065 169.894 323.93 219.6 323.93Z" fill="#E90000"/>
<path d="M389.5 248.32C395.851 248.32 401 239.742 401 229.16C401 218.578 395.851 210 389.5 210C383.149 210 378 218.578 378 229.16C378 239.742 383.149 248.32 389.5 248.32Z" fill="#E9A9A9"/>
<path d="M385.449 225.54C386.857 225.54 387.999 223.637 387.999 221.29C387.999 218.943 386.857 217.04 385.449 217.04C384.04 217.04 382.898 218.943 382.898 221.29C382.898 223.637 384.04 225.54 385.449 225.54Z" fill="white"/>
<path d="M68.5 204.32C77.6127 204.32 85 195.742 85 185.16C85 174.578 77.6127 166 68.5 166C59.3873 166 52 174.578 52 185.16C52 195.742 59.3873 204.32 68.5 204.32Z" fill="#E9A9A9"/>
<path d="M72.16 193.66C74.1813 193.66 75.8199 191.757 75.8199 189.41C75.8199 187.063 74.1813 185.16 72.16 185.16C70.1386 185.16 68.5 187.063 68.5 189.41C68.5 191.757 70.1386 193.66 72.16 193.66Z" fill="white"/>
<path d="M346.185 82.4996C346.083 94.3733 353.088 104.06 361.833 104.135C370.577 104.211 377.748 94.6463 377.851 82.7726C377.953 70.899 370.947 61.2123 362.203 61.1369C353.459 61.0615 346.288 70.6259 346.185 82.4996Z" fill="#EDA9A9"/>
<path d="M365.03 79.646C366.629 81.4397 369.847 81.1805 372.218 79.0672C374.588 76.9539 375.213 73.7866 373.614 71.9929C372.015 70.1992 368.797 70.4583 366.426 72.5717C364.056 74.685 363.431 77.8523 365.03 79.646Z" fill="white"/>
<path d="M194.54 237.1C200.615 237.1 205.54 231.055 205.54 223.6C205.54 216.144 200.615 210.1 194.54 210.1C188.465 210.1 183.54 216.144 183.54 223.6C183.54 231.055 188.465 237.1 194.54 237.1Z" fill="#A00000"/>
<path d="M271.54 237.1C277.615 237.1 282.54 231.055 282.54 223.6C282.54 216.144 277.615 210.1 271.54 210.1C265.465 210.1 260.54 216.144 260.54 223.6C260.54 231.055 265.465 237.1 271.54 237.1Z" fill="#A00000"/>
<path d="M218.181 125.16C175.203 125.626 161.113 115.72 159.436 110.415V132.064C163.649 134.17 179.447 139.085 218.181 138.617C255.064 138.171 271.191 135.575 278.447 132.064V110.415C273.532 118.958 261.362 124.692 218.181 125.16Z" fill="#FFE200"/>
<path d="M159.436 109.947L152.181 57.9891C157.525 68.404 172.028 89.2338 187.287 89.2338C203.553 89.2338 214.592 58.2232 219 42.7764C223.915 57.9111 230.936 87.0104 250.947 89.2338C263.234 90.5991 279.734 68.7161 285.819 57.9891L278.681 109.947C268.851 114.51 254.972 116.055 219.585 116.617C184.198 117.178 164.741 112.404 159.436 109.947Z" fill="#FFE200"/>
<ellipse cx="152.064" cy="47.4576" rx="10.0638" ry="9.94681" fill="#FFE200"/>
<ellipse cx="219" cy="32.9468" rx="10.0638" ry="9.94681" fill="#FFE200"/>
<ellipse cx="285.936" cy="47.4576" rx="10.0638" ry="9.94681" fill="#FFE200"/>
</g>
<defs>
<radialGradient id="paint0_radial_835_1265" cx="0" cy="0" r="1" gradientUnits="userSpaceOnUse" gradientTransform="translate(220.2 220.43) scale(151.7 151.7)">
<stop stop-color="#EC0000"/>
<stop offset="1" stop-color="#F2AAAA"/>
</radialGradient>
<clipPath id="clip0_835_1265">
<rect width="425.2" height="425.2" fill="white"/>
</clipPath>
</defs>
</svg>
