<svg width="54" height="54" viewBox="0 0 54 54" fill="none" xmlns="http://www.w3.org/2000/svg">
<g filter="url(#filter0_di_233_1448)">
<circle cx="27" cy="27" r="25" fill="#FFE162"/>
</g>
<path fill-rule="evenodd" clip-rule="evenodd" d="M24.844 5.10438C25.5536 5.03531 26.2728 5 27 5C27.7272 5 28.4464 5.03531 29.156 5.10438C29.7057 5.15787 30.1079 5.64685 30.0545 6.19654C30.001 6.74622 29.512 7.14847 28.9623 7.09497C28.317 7.03217 27.6624 7 27 7C26.3376 7 25.683 7.03217 25.0377 7.09497C24.488 7.14847 23.999 6.74622 23.9455 6.19654C23.892 5.64685 24.2943 5.15787 24.844 5.10438ZM21.859 6.60912C22.0191 7.13768 21.7205 7.69598 21.1919 7.85612C19.9276 8.23917 18.7161 8.74413 17.5711 9.35744C17.0842 9.6182 16.4782 9.43493 16.2174 8.94808C15.9566 8.46123 16.1399 7.85517 16.6268 7.59441C17.8866 6.91958 19.2201 6.36375 20.612 5.94204C21.1406 5.7819 21.6989 6.08056 21.859 6.60912ZM32.141 6.60912C32.3011 6.08056 32.8594 5.7819 33.388 5.94204C34.7799 6.36375 36.1134 6.91958 37.3732 7.59441C37.8601 7.85517 38.0434 8.46123 37.7826 8.94808C37.5218 9.43492 36.9158 9.6182 36.4289 9.35744C35.2839 8.74413 34.0724 8.23917 32.8081 7.85612C32.2795 7.69598 31.9809 7.13768 32.141 6.60912ZM39.5498 10.1313C39.9004 9.70461 40.5306 9.6429 40.9573 9.9935C42.0703 10.908 43.092 11.9297 44.0065 13.0427C44.3571 13.4694 44.2954 14.0996 43.8687 14.4502C43.4419 14.8008 42.8118 14.7391 42.4612 14.3124C41.6294 13.2999 40.7001 12.3706 39.6876 11.5388C39.2609 11.1882 39.1992 10.5581 39.5498 10.1313ZM14.4502 10.1313C14.8008 10.5581 14.7391 11.1882 14.3124 11.5388C13.2999 12.3706 12.3706 13.2999 11.5388 14.3124C11.1882 14.7391 10.5581 14.8008 10.1313 14.4502C9.70461 14.0996 9.6429 13.4694 9.9935 13.0427C10.908 11.9297 11.9297 10.908 13.0427 9.99351C13.4694 9.6429 14.0996 9.70461 14.4502 10.1313ZM45.0519 16.2174C45.5388 15.9566 46.1448 16.1399 46.4056 16.6268C47.0804 17.8866 47.6363 19.2201 48.058 20.612C48.2181 21.1406 47.9194 21.6989 47.3909 21.859C46.8623 22.0191 46.304 21.7205 46.1439 21.1919C45.7608 19.9276 45.2559 18.7161 44.6426 17.5711C44.3818 17.0842 44.5651 16.4782 45.0519 16.2174ZM8.94808 16.2174C9.43492 16.4782 9.6182 17.0842 9.35744 17.5711C8.74413 18.7161 8.23917 19.9276 7.85612 21.1919C7.69598 21.7205 7.13768 22.0191 6.60912 21.859C6.08056 21.6989 5.7819 21.1406 5.94204 20.612C6.36375 19.2201 6.91958 17.8866 7.59441 16.6268C7.85517 16.1399 8.46123 15.9566 8.94808 16.2174ZM6.19654 23.9455C6.74622 23.999 7.14847 24.488 7.09497 25.0377C7.03217 25.683 7 26.3376 7 27C7 27.6624 7.03217 28.317 7.09497 28.9623C7.14847 29.512 6.74622 30.001 6.19654 30.0545C5.64685 30.108 5.15787 29.7057 5.10438 29.156C5.03531 28.4464 5 27.7272 5 27C5 26.2728 5.03531 25.5536 5.10438 24.844C5.15787 24.2943 5.64685 23.8921 6.19654 23.9455ZM47.8035 23.9455C48.3532 23.892 48.8421 24.2943 48.8956 24.844C48.9647 25.5536 49 26.2728 49 27C49 27.7272 48.9647 28.4464 48.8956 29.156C48.8421 29.7057 48.3532 30.1079 47.8035 30.0545C47.2538 30.001 46.8515 29.512 46.905 28.9623C46.9678 28.317 47 27.6624 47 27C47 26.3376 46.9678 25.683 46.905 25.0377C46.8515 24.488 47.2538 23.999 47.8035 23.9455ZM6.60912 32.141C7.13768 31.9809 7.69598 32.2795 7.85612 32.8081C8.23917 34.0724 8.74413 35.2839 9.35744 36.4289C9.6182 36.9158 9.43493 37.5218 8.94808 37.7826C8.46123 38.0434 7.85517 37.8601 7.59441 37.3732C6.91958 36.1134 6.36375 34.7799 5.94204 33.388C5.7819 32.8594 6.08056 32.3011 6.60912 32.141ZM47.3909 32.141C47.9194 32.3011 48.2181 32.8594 48.058 33.388C47.6363 34.7799 47.0804 36.1134 46.4056 37.3732C46.1448 37.8601 45.5388 38.0434 45.0519 37.7826C44.5651 37.5218 44.3818 36.9158 44.6426 36.4289C45.2559 35.2839 45.7608 34.0724 46.1439 32.8081C46.304 32.2795 46.8623 31.9809 47.3909 32.141ZM43.8687 39.5498C44.2954 39.9004 44.3571 40.5306 44.0065 40.9573C43.092 42.0703 42.0703 43.092 40.9573 44.0065C40.5306 44.3571 39.9004 44.2954 39.5498 43.8687C39.1992 43.4419 39.2609 42.8118 39.6876 42.4612C40.7001 41.6294 41.6294 40.7001 42.4612 39.6876C42.8118 39.2609 43.4419 39.1992 43.8687 39.5498ZM10.1313 39.5498C10.5581 39.1992 11.1882 39.2609 11.5388 39.6876C12.3706 40.7001 13.2999 41.6294 14.3124 42.4612C14.7391 42.8118 14.8008 43.4419 14.4502 43.8687C14.0996 44.2954 13.4694 44.3571 13.0427 44.0065C11.9297 43.092 10.908 42.0703 9.99351 40.9573C9.6429 40.5306 9.70461 39.9004 10.1313 39.5498ZM16.2174 45.0519C16.4782 44.5651 17.0842 44.3818 17.5711 44.6426C18.7161 45.2559 19.9276 45.7608 21.1919 46.1439C21.7205 46.304 22.0191 46.8623 21.859 47.3909C21.6989 47.9194 21.1406 48.2181 20.612 48.058C19.2201 47.6363 17.8866 47.0804 16.6268 46.4056C16.1399 46.1448 15.9566 45.5388 16.2174 45.0519ZM37.7826 45.0519C38.0434 45.5388 37.8601 46.1448 37.3732 46.4056C36.1134 47.0804 34.7799 47.6363 33.388 48.058C32.8594 48.2181 32.3011 47.9194 32.141 47.3909C31.9809 46.8623 32.2795 46.304 32.8081 46.1439C34.0724 45.7608 35.2839 45.2559 36.4289 44.6426C36.9158 44.3818 37.5218 44.5651 37.7826 45.0519ZM23.9455 47.8035C23.999 47.2538 24.488 46.8515 25.0377 46.905C25.683 46.9678 26.3376 47 27 47C27.6624 47 28.317 46.9678 28.9623 46.905C29.512 46.8515 30.001 47.2538 30.0545 47.8035C30.108 48.3532 29.7057 48.8421 29.156 48.8956C28.4464 48.9647 27.7272 49 27 49C26.2728 49 25.5536 48.9647 24.844 48.8956C24.2943 48.8421 23.8921 48.3532 23.9455 47.8035Z" fill="#FFF7D5"/>
<g filter="url(#filter1_i_233_1448)">
<path d="M40.98 23.325L38.145 22.38L39.48 19.71C39.6153 19.4305 39.6606 19.1159 39.6095 18.8097C39.5585 18.5034 39.4137 18.2205 39.195 18L36 14.805C35.7784 14.5831 35.4927 14.4363 35.1833 14.3852C34.8739 14.3341 34.5562 14.3812 34.275 14.52L31.605 15.855L30.66 13.02C30.5602 12.7245 30.3708 12.4674 30.118 12.2846C29.8653 12.1018 29.5619 12.0023 29.25 12H24.75C24.4355 11.9992 24.1288 12.0972 23.8731 12.2803C23.6173 12.4633 23.4256 12.7221 23.325 13.02L22.38 15.855L19.71 14.52C19.4305 14.3847 19.1159 14.3394 18.8097 14.3905C18.5034 14.4415 18.2205 14.5863 18 14.805L14.805 18C14.5831 18.2217 14.4363 18.5073 14.3852 18.8167C14.3341 19.1261 14.3812 19.4438 14.52 19.725L15.855 22.395L13.02 23.34C12.7245 23.4398 12.4674 23.6292 12.2846 23.882C12.1018 24.1347 12.0023 24.4381 12 24.75V29.25C11.9992 29.5645 12.0972 29.8712 12.2803 30.1269C12.4633 30.3827 12.7221 30.5744 13.02 30.675L15.855 31.62L14.52 34.29C14.3847 34.5695 14.3394 34.8841 14.3905 35.1903C14.4415 35.4966 14.5863 35.7795 14.805 36L18 39.195C18.2217 39.4169 18.5073 39.5637 18.8167 39.6148C19.1261 39.6659 19.4438 39.6188 19.725 39.48L22.395 38.145L23.34 40.98C23.4406 41.2779 23.6323 41.5367 23.8881 41.7197C24.1438 41.9028 24.4505 42.0008 24.765 42H29.265C29.5795 42.0008 29.8862 41.9028 30.1419 41.7197C30.3977 41.5367 30.5894 41.2779 30.69 40.98L31.635 38.145L34.305 39.48C34.5827 39.6119 34.8942 39.6553 35.1974 39.6043C35.5005 39.5534 35.7807 39.4105 36 39.195L39.195 36C39.4169 35.7784 39.5637 35.4927 39.6148 35.1833C39.6659 34.8739 39.6188 34.5562 39.48 34.275L38.145 31.605L40.98 30.66C41.2755 30.5602 41.5326 30.3708 41.7154 30.118C41.8982 29.8653 41.9977 29.5619 42 29.25V24.75C42.0008 24.4355 41.9028 24.1288 41.7197 23.8731C41.5367 23.6173 41.2779 23.4256 40.98 23.325ZM39 28.17L37.2 28.77C36.7861 28.9043 36.4063 29.127 36.0871 29.4226C35.7678 29.7183 35.5167 30.0799 35.3512 30.4824C35.1856 30.8848 35.1096 31.3184 35.1284 31.7532C35.1472 32.1879 35.2604 32.6134 35.46 33L36.315 34.71L34.665 36.36L33 35.46C32.6153 35.2684 32.194 35.1616 31.7645 35.1469C31.335 35.1323 30.9073 35.2101 30.5105 35.3751C30.1136 35.5401 29.7569 35.7884 29.4644 36.1033C29.1719 36.4181 28.9504 36.7921 28.815 37.2L28.215 39H25.83L25.23 37.2C25.0957 36.7861 24.873 36.4063 24.5773 36.0871C24.2817 35.7678 23.9201 35.5167 23.5176 35.3512C23.1152 35.1856 22.6816 35.1096 22.2468 35.1284C21.8121 35.1472 21.3866 35.2604 21 35.46L19.29 36.315L17.64 34.665L18.54 33C18.7396 32.6134 18.8528 32.1879 18.8716 31.7532C18.8904 31.3184 18.8143 30.8848 18.6488 30.4824C18.4833 30.0799 18.2322 29.7183 17.9129 29.4226C17.5937 29.127 17.2139 28.9043 16.8 28.77L15 28.17V25.83L16.8 25.23C17.2139 25.0957 17.5937 24.873 17.9129 24.5773C18.2322 24.2817 18.4833 23.9201 18.6488 23.5176C18.8143 23.1152 18.8904 22.6816 18.8716 22.2468C18.8528 21.8121 18.7396 21.3866 18.54 21L17.685 19.335L19.335 17.685L21 18.54C21.3866 18.7396 21.8121 18.8528 22.2468 18.8716C22.6816 18.8904 23.1152 18.8143 23.5176 18.6488C23.9201 18.4833 24.2817 18.2322 24.5773 17.9129C24.873 17.5937 25.0957 17.2139 25.23 16.8L25.83 15H28.17L28.77 16.8C28.9043 17.2139 29.127 17.5937 29.4226 17.9129C29.7183 18.2322 30.0799 18.4833 30.4824 18.6488C30.8848 18.8143 31.3184 18.8904 31.7532 18.8716C32.1879 18.8528 32.6134 18.7396 33 18.54L34.71 17.685L36.36 19.335L35.46 21C35.2684 21.3847 35.1616 21.806 35.1469 22.2355C35.1323 22.665 35.2101 23.0927 35.3751 23.4895C35.5401 23.8864 35.7884 24.2431 36.1033 24.5356C36.4181 24.8281 36.7921 25.0496 37.2 25.185L39 25.785V28.17ZM27 21C25.8133 21 24.6533 21.3519 23.6666 22.0112C22.6799 22.6705 21.9108 23.6075 21.4567 24.7039C21.0026 25.8003 20.8838 27.0067 21.1153 28.1705C21.3468 29.3344 21.9182 30.4035 22.7574 31.2426C23.5965 32.0818 24.6656 32.6532 25.8295 32.8847C26.9933 33.1162 28.1997 32.9974 29.2961 32.5433C30.3925 32.0891 31.3295 31.3201 31.9888 30.3334C32.6481 29.3467 33 28.1867 33 27C33 25.4087 32.3679 23.8826 31.2426 22.7574C30.1174 21.6321 28.5913 21 27 21ZM27 30C26.4067 30 25.8266 29.8241 25.3333 29.4944C24.8399 29.1648 24.4554 28.6962 24.2284 28.148C24.0013 27.5999 23.9419 26.9967 24.0576 26.4147C24.1734 25.8328 24.4591 25.2982 24.8787 24.8787C25.2982 24.4591 25.8328 24.1734 26.4147 24.0576C26.9967 23.9419 27.5999 24.0013 28.148 24.2284C28.6962 24.4554 29.1648 24.8399 29.4944 25.3333C29.8241 25.8266 30 26.4067 30 27C30 27.7956 29.6839 28.5587 29.1213 29.1213C28.5587 29.6839 27.7956 30 27 30Z" fill="#FFBD15"/>
</g>
<defs>
<filter id="filter0_di_233_1448" x="0" y="0" width="54" height="54" filterUnits="userSpaceOnUse" color-interpolation-filters="sRGB">
<feFlood flood-opacity="0" result="BackgroundImageFix"/>
<feColorMatrix in="SourceAlpha" type="matrix" values="0 0 0 0 0 0 0 0 0 0 0 0 0 0 0 0 0 0 127 0" result="hardAlpha"/>
<feOffset/>
<feGaussianBlur stdDeviation="1"/>
<feComposite in2="hardAlpha" operator="out"/>
<feColorMatrix type="matrix" values="0 0 0 0 0 0 0 0 0 0 0 0 0 0 0 0 0 0 0.5 0"/>
<feBlend mode="normal" in2="BackgroundImageFix" result="effect1_dropShadow_233_1448"/>
<feBlend mode="normal" in="SourceGraphic" in2="effect1_dropShadow_233_1448" result="shape"/>
<feColorMatrix in="SourceAlpha" type="matrix" values="0 0 0 0 0 0 0 0 0 0 0 0 0 0 0 0 0 0 127 0" result="hardAlpha"/>
<feOffset/>
<feGaussianBlur stdDeviation="2"/>
<feComposite in2="hardAlpha" operator="arithmetic" k2="-1" k3="1"/>
<feColorMatrix type="matrix" values="0 0 0 0 0 0 0 0 0 0 0 0 0 0 0 0 0 0 0.25 0"/>
<feBlend mode="normal" in2="shape" result="effect2_innerShadow_233_1448"/>
</filter>
<filter id="filter1_i_233_1448" x="12" y="12" width="30" height="32" filterUnits="userSpaceOnUse" color-interpolation-filters="sRGB">
<feFlood flood-opacity="0" result="BackgroundImageFix"/>
<feBlend mode="normal" in="SourceGraphic" in2="BackgroundImageFix" result="shape"/>
<feColorMatrix in="SourceAlpha" type="matrix" values="0 0 0 0 0 0 0 0 0 0 0 0 0 0 0 0 0 0 127 0" result="hardAlpha"/>
<feOffset dy="2"/>
<feGaussianBlur stdDeviation="1"/>
<feComposite in2="hardAlpha" operator="arithmetic" k2="-1" k3="1"/>
<feColorMatrix type="matrix" values="0 0 0 0 0 0 0 0 0 0 0 0 0 0 0 0 0 0 0.25 0"/>
<feBlend mode="normal" in2="shape" result="effect1_innerShadow_233_1448"/>
</filter>
</defs>
</svg>
