<svg width="255" height="382" viewBox="0 0 255 382" fill="none" xmlns="http://www.w3.org/2000/svg">
<path d="M45.09 192.88C-0.410023 151.85 -7.13002 84.2802 33.71 38.6002C74.55 -7.06982 153.16 -11.6098 198.99 29.0502C244.82 69.7102 241.92 143.9 201.45 189.89C218.35 203.1 258.28 242.48 253.14 263.31C245.82 292.99 231.78 279.99 210.11 265.59C212.9 288.21 206.2 316.11 201.41 333.04C197.09 348.31 189.81 379.62 173.71 380.56C151.61 380.39 150.02 373.91 145.42 360.7C140.47 346.45 138.33 334.62 126.72 334.53C115.07 334.53 115.18 348.9 111.59 359.98C107.6 372.3 111.06 379.51 89.19 380.92C70.65 382.12 63.07 353.37 55 330.5C51.7799 318.799 44.02 279.32 44.69 265.97C33.21 276.57 23.26 302.81 6.02998 285.57C-2.00002 277.53 1.15998 263.49 4.27998 252.57C11.01 228.98 25.56 207.7 45.1 192.87" fill="#935E38"/>
<path d="M45.53 192.82C32.09 180.65 21.4 165.58 14.77 148.68C8.13998 131.78 5.91998 114.93 7.75998 97.6702C9.62998 80.1502 16.01 63.2902 26.12 48.8702C36.23 34.4502 49.42 23.1202 64.84 15.1302C80 7.27018 96.87 2.79018 113.89 1.71018C130.91 0.630182 148.16 2.93018 164.19 8.79018C180.27 14.6702 195.06 24.2402 206.5 37.0402C217.94 49.8402 225.58 65.4002 229.32 81.9802C233.02 98.4002 232.92 115.6 229.54 132.07C226.16 148.54 219 165.53 208.91 179.77C206.44 183.25 203.79 186.6 200.98 189.81C200.93 189.86 200.98 189.93 201.02 189.97C208.3 195.67 215.07 202.05 221.53 208.66C229.44 216.75 236.98 225.36 243.26 234.79C248.07 242.01 253.35 250.88 253.1 259.88C253.04 262.15 252.43 264.33 251.79 266.5C250.96 269.31 249.95 272.11 248.49 274.65C246.61 277.92 243.78 280.82 239.8 281.02C235.18 281.25 230.59 278.55 226.77 276.27C221.21 272.95 215.96 269.13 210.57 265.55C210.46 265.48 209.6 265.27 209.63 265.57C211.76 283.36 208.7 301.61 204.61 318.91C203.04 325.56 201.17 332.13 199.35 338.72C197.63 344.92 195.84 351.11 193.55 357.14C191.26 363.17 188.53 369.3 184.3 374.21C182.57 376.22 180.54 378.03 178.14 379.18C174.84 380.76 171.27 380.43 167.71 380.15C162.06 379.71 155.85 378.57 152.01 374C148.95 370.36 147.58 365.49 146.06 361.08C142.54 350.93 139.02 331.53 124.05 334.61C118.16 335.82 115.87 341.7 114.45 346.89C113.54 350.22 112.88 353.62 111.99 356.96C111.26 359.7 110.35 362.38 109.71 365.15C108.79 369.09 108.17 373.58 104.95 376.39C102.98 378.11 100.41 378.99 97.91 379.58C94.21 380.45 90.02 381.12 86.23 380.69C79.64 379.94 74.67 374.91 71.1 369.7C66.92 363.59 63.99 356.66 61.35 349.78C58.74 342.99 56.11 336.08 54.03 329.1C52.41 323.67 51.33 318.08 50.31 312.51C47.9 299.39 45.91 286.03 45.27 272.69C45.16 270.48 45.1 268.26 45.2 266.05C45.22 265.73 44.38 265.77 44.23 265.91C38.11 271.63 33.99 279.12 28.14 285.09C25.55 287.73 22.38 290.38 18.61 290.99C13.91 291.75 9.61998 288.73 6.48998 285.54C-1.44002 277.44 1.59998 264.25 4.24998 254.57C7.36998 243.17 12.13 232.31 18.52 222.36C25.75 211.11 34.91 201.14 45.54 193.03C45.84 192.8 44.91 192.59 44.7 192.75C24.74 207.98 10.2 229.57 3.45998 253.75C0.739978 263.52 -2.57002 276.96 5.26997 285.31C8.14997 288.38 11.98 291.13 16.29 291.48C19.79 291.77 23.02 290.35 25.75 288.27C33.63 282.25 38 272.81 45.19 266.09L44.22 265.95C43.97 271.33 44.49 276.77 45.02 282.12C45.73 289.3 46.7 296.46 47.82 303.58C48.85 310.07 50.8301 316.1 52.3101 322.5C53.6601 328.33 55.6879 334.36 57.6679 340C60.3679 347.68 62.28 355.37 65.99 362.62C68.89 368.29 72.49 374.14 77.82 377.84C83.15 381.54 88.82 381.46 94.95 380.58C99.64 379.91 105.09 378.66 107.79 374.35C110.05 370.73 110.39 366.09 111.51 362.06C112.43 358.76 113.4 355.5 114.18 352.16C114.96 348.82 115.69 345.4 117.03 342.23C118.25 339.33 120.14 336.53 123.2 335.37C126.64 334.06 130.89 334.78 133.79 336.99C139.27 341.16 141.15 349.26 143.19 355.45C145 360.94 146.54 367.06 149.62 372.03C152.07 375.98 155.87 378.26 160.31 379.4C163.65 380.26 167.12 380.57 170.56 380.71C173.31 380.82 175.85 380.81 178.42 379.71C183.61 377.49 187.15 372.5 189.8 367.72C196.03 356.5 199 343.69 202.41 331.41C207.16 314.31 211.01 296.6 211.28 278.79C211.35 274.4 211.16 270.01 210.64 265.65L209.7 265.67C214.36 268.77 218.93 272.02 223.66 275.01C227.28 277.3 231.09 279.61 235.24 280.78C238.05 281.58 241.13 281.78 243.84 280.51C247.44 278.83 249.57 275.06 251.05 271.55C252.85 267.26 254.43 262.5 254.05 257.79C253.73 253.73 252.35 249.78 250.68 246.09C246.31 236.47 239.7 227.87 232.86 219.89C225.95 211.83 218.47 204.24 210.57 197.15C208.97 195.72 207.35 194.3 205.71 192.92C205 192.32 204.29 191.73 203.57 191.15C203.27 190.9 202.82 190.65 202.56 190.34C202.54 190.32 202.14 190.07 202.13 190C202.05 189.63 202.7 189.13 202.93 188.87C206.93 184.21 210.57 179.25 213.83 174.04C226.48 153.82 233.35 129.96 233.11 106.09C232.88 82.7702 225.62 59.5202 211.01 41.1602C196.55 22.9902 175.8 10.7102 153.44 4.96018C131.08 -0.789818 107.41 -0.239815 85.42 6.24018C63.43 12.7202 42.35 26.1302 27.93 44.9202C13.12 64.2302 5.37997 88.3002 6.26997 112.63C7.15997 136.96 16.6 160.83 32.09 179.73C35.95 184.44 40.17 188.83 44.68 192.92C44.88 193.1 45.83 193.04 45.56 192.79L45.53 192.82Z" fill="#D9DBE0"/>
<path d="M92 380.5C75.5 381.5 68.5 368 65 359C72.5 357.333 92.2 355.5 111 361.5C108.5 380.5 100.5 379.5 92 380.5Z" fill="#191718"/>
<path fill-rule="evenodd" clip-rule="evenodd" d="M64.8915 358.512C72.4528 356.831 92.2462 354.99 111.152 361.023L111.55 361.15L111.496 361.565C110.239 371.116 107.582 375.796 104.027 378.166C102.26 379.344 100.309 379.924 98.2885 380.274C96.9757 380.501 95.599 380.636 94.2187 380.771C93.4967 380.841 92.7737 380.912 92.0584 380.996L92.0444 380.998L92.0303 380.999C83.6165 381.509 77.6043 378.314 73.2664 373.848C68.9451 369.4 66.2909 363.699 64.534 359.181L64.3229 358.638L64.8915 358.512ZM65.6809 359.365C67.4208 363.746 69.9732 369.023 73.9836 373.151C78.1433 377.433 83.8769 380.487 91.9557 380.001C92.7103 379.913 93.4494 379.841 94.1756 379.77C95.5297 379.638 96.8386 379.51 98.1178 379.288C100.066 378.951 101.865 378.405 103.473 377.334C106.621 375.235 109.184 371.01 110.448 361.85C92.3364 356.18 73.4566 357.761 65.6809 359.365Z" fill="#191718"/>
<path d="M172 380.5C183 381 190 367.5 193.5 358.5C186 356.833 164.8 355.131 146 361.131C150 380.5 163.5 379.501 172 380.5Z" fill="#191718"/>
<path fill-rule="evenodd" clip-rule="evenodd" d="M193.608 358.012C186.045 356.331 164.752 354.621 145.848 360.655L145.419 360.791L145.51 361.232C147.537 371.048 152 375.785 157.102 378.158C161.109 380.021 165.498 380.406 169.225 380.733C170.18 380.817 171.091 380.897 171.942 380.997L171.959 380.999L171.977 381C177.71 381.26 182.347 377.867 185.952 373.376C189.562 368.879 192.209 363.199 193.966 358.681L194.177 358.138L193.608 358.012ZM192.819 358.866C191.079 363.248 188.546 368.547 185.173 372.75C181.657 377.129 177.3 380.233 172.04 380.002C171.142 379.896 170.199 379.813 169.225 379.727C165.512 379.399 161.354 379.032 157.523 377.251C152.824 375.066 148.596 370.721 146.583 361.471C164.711 355.81 184.982 357.27 192.819 358.866Z" fill="#191718"/>
<path d="M45.3999 192.77C24.9699 207.67 6.32991 235.96 1.65991 265.45C11.5199 271.09 21.8099 276.71 31.6699 282.35C37.2699 276.11 39.1799 271.83 44.9799 266.03C43.0499 288.67 53 332 64.6499 358.1C65.7999 360.85 90.9199 370.92 111.47 361.22C115.72 346.24 118.31 336.23 126.38 335.16C134.45 334.09 140.31 341 145.84 360.95C172.43 368.49 194.25 359.06 195.09 356.55C202.84 333.33 215.64 291.16 210.02 265.76C215.62 268.66 219.96 272.67 225.55 275.57C226.79 276.45 252.33 249.91 251.87 248.61C244.23 227.12 204.59 189.78 201.74 189.78C157.7 209.13 93.2099 208.03 45.3899 192.76L45.3999 192.77Z" fill="#2F2F2F"/>
<path d="M45.15 192.34C27.2 205.49 13.76 225.18 6.22997 245.97C3.95997 252.25 2.23996 258.72 1.17996 265.32C1.13996 265.54 1.19997 265.77 1.40997 265.88C11.38 271.57 21.45 277.08 31.42 282.78C31.6 282.88 31.88 282.87 32.03 282.7C36.71 277.45 40.37 271.39 45.34 266.38L44.49 266.03C43.58 277.05 45.42 288.37 47.43 299.17C49.84 312.18 53.08 325.06 56.96 337.71C58.61 343.11 60.39 348.47 62.39 353.75C62.82 354.88 63.26 356 63.71 357.12C63.95 357.72 64.13 358.37 64.58 358.86C65.44 359.8 66.77 360.4 67.9 360.93C72.58 363.14 77.75 364.43 82.85 365.18C89.69 366.19 96.75 366.14 103.5 364.53C105.28 364.11 107.04 363.57 108.75 362.92C109.56 362.61 110.37 362.28 111.16 361.92C112.02 361.53 112.01 361.19 112.27 360.28C113.3 356.66 114.3 353.03 115.49 349.46C117.02 344.87 118.99 338.88 123.64 336.52C126.96 334.83 130.94 335.46 133.82 337.71C137.92 340.91 140.26 346.22 142.08 350.93C142.76 352.69 143.38 354.47 143.95 356.27C144.24 357.19 144.53 358.12 144.8 359.05C144.98 359.66 145.08 360.97 145.61 361.39C146.2 361.86 147.55 361.94 148.29 362.12C149.43 362.4 150.58 362.66 151.73 362.88C153.62 363.25 155.53 363.55 157.44 363.78C164.54 364.64 171.77 364.48 178.83 363.27C183.43 362.48 188.11 361.29 192.31 359.21C193.29 358.72 194.42 358.17 195.17 357.34C195.58 356.89 195.7 356.34 195.89 355.76C196.32 354.46 196.75 353.16 197.17 351.85C201.26 339.27 204.96 326.55 207.73 313.61C210.5 300.67 212.71 287.03 211.66 273.69C211.45 270.98 211.08 268.29 210.5 265.63L209.77 266.19C213 267.89 215.96 270.02 218.96 272.08C220.4 273.07 221.85 274.04 223.36 274.92C224.03 275.31 224.98 276.18 225.82 276.07C226.38 276 226.95 275.44 227.37 275.11C228.34 274.35 229.26 273.51 230.18 272.67C235.81 267.48 241.14 261.93 246.3 256.28C248.15 254.26 250.05 252.24 251.67 250.03C252 249.58 252.42 249.08 252.37 248.5C252.32 247.88 251.86 247.13 251.61 246.55C251.22 245.63 250.8 244.72 250.36 243.82C246.25 235.55 240.41 228.1 234.5 221.06C228.28 213.66 221.64 206.6 214.68 199.9C212.17 197.49 209.63 195.12 206.98 192.87C205.61 191.7 204.13 190.27 202.48 189.5C202.28 189.41 202.05 189.29 201.83 189.29C201.5 189.29 201.16 189.51 200.87 189.64C200.09 189.98 199.3 190.31 198.5 190.63C195.74 191.76 192.94 192.8 190.11 193.75C184.25 195.73 178.27 197.36 172.23 198.69C159.41 201.52 146.31 203.03 133.2 203.56C106.71 204.62 79.84 201.84 54.25 194.85C51.34 194.05 48.44 193.2 45.56 192.28C44.95 192.08 44.68 193.05 45.29 193.24C69.51 200.95 95.12 204.54 120.5 204.75C145.88 204.96 171.02 201.97 194.53 193.24C195.78 192.78 197.02 192.29 198.26 191.8C198.93 191.53 199.59 191.25 200.26 190.97C200.58 190.83 201.65 190.27 201.73 190.27C202.07 190.26 202.68 190.76 203.02 191C204.99 192.36 206.8 193.99 208.58 195.58C214.85 201.18 220.76 207.19 226.44 213.38C233.03 220.57 239.38 228.08 244.77 236.22C247 239.59 249.1 243.11 250.68 246.84C250.86 247.27 251.04 247.7 251.2 248.14C251.28 248.35 251.36 248.89 251.41 248.58C251.4 248.65 251.2 248.96 251.09 249.14C250.54 249.97 249.87 250.73 249.23 251.48C244.47 257.09 239.3 262.38 234.07 267.55C231.89 269.71 229.69 271.89 227.34 273.86C226.87 274.25 226.14 274.92 225.67 275.07C225.53 275.12 225.75 275.12 225.83 275.13C225.12 275.04 224.12 274.19 223.5 273.82C221.94 272.89 220.44 271.87 218.95 270.84C216.13 268.89 213.33 266.92 210.3 265.32C209.9 265.11 209.47 265.45 209.57 265.88C212.26 278.23 210.77 291.41 208.66 303.73C206.36 317.12 202.85 330.29 198.86 343.27C198.01 346.04 197.13 348.81 196.24 351.56C195.83 352.82 195.42 354.08 195 355.33C194.79 355.97 194.75 356.36 194.29 356.8C193.4 357.65 192.12 358.2 191.01 358.7C189.02 359.6 186.93 360.3 184.82 360.88C178.74 362.57 172.4 363.31 166.09 363.29C162.13 363.27 158.18 362.94 154.27 362.29C152.12 361.93 149.98 361.48 147.87 360.94C147.5 360.85 146.77 360.8 146.47 360.57C146.08 360.27 146.03 359.65 145.9 359.19C145.61 358.18 145.3 357.17 144.99 356.17C143.22 350.56 141.11 344.7 137.47 340C135.35 337.25 132.51 334.97 128.96 334.59C118.01 333.42 114.83 347.76 112.56 355.63C112.3 356.51 112.05 357.4 111.8 358.28C111.55 359.16 111.44 360.54 110.67 361.02C109.12 362 106.95 362.51 105.2 363.02C101.63 364.05 97.93 364.6 94.22 364.77C87.83 365.05 81.38 364.24 75.23 362.5C73.01 361.87 70.8 361.13 68.69 360.16C67.6 359.66 66.04 359.06 65.27 358.08C64.8 357.48 64.59 356.59 64.31 355.89C63.85 354.74 63.41 353.59 62.98 352.43C62.06 349.95 61.18 347.46 60.34 344.95C56.32 332.96 53.01 320.71 50.31 308.35C47.76 296.65 45.54 284.65 45.31 272.64C45.27 270.42 45.31 268.2 45.49 265.99C45.53 265.55 44.92 265.35 44.64 265.64C39.67 270.65 36.01 276.7 31.33 281.96L31.94 281.88C21.97 276.19 11.9 270.68 1.92996 264.98L2.15997 265.54C5.77997 242.99 16.95 221.46 32.55 204.86C36.57 200.58 40.93 196.63 45.67 193.16C46.18 192.78 45.69 191.92 45.17 192.3L45.15 192.34Z" fill="#BFBFBF"/>
<path d="M124 276L72.5 199.5C116.5 208.3 156.833 203.167 171.5 199.5L124 276Z" fill="#D9D9D9"/>
<path d="M117 205H118V267H117V205Z" fill="black"/>
<path d="M103 204H104V238H103V204Z" fill="black"/>
<path d="M129 205H130V266H129V205Z" fill="black"/>
<path d="M146 203H147V240H146V203Z" fill="black"/>
<path d="M116 204.875C110.085 204.875 89.2019 202.458 80 201L107.62 230.5L116 204.875Z" fill="#E7EDEF"/>
<path fill-rule="evenodd" clip-rule="evenodd" d="M78.6392 200.278L80.0783 200.506C89.2793 201.964 110.128 204.375 116 204.375H116.69L107.832 231.459L78.6392 200.278ZM81.3539 201.714L107.407 229.541L115.313 205.366C108.919 205.213 90.7724 203.129 81.3539 201.714Z" fill="black"/>
<path d="M128 204.875C133.915 204.875 154.798 202.458 164 201L136.38 230.5L128 204.875Z" fill="#E7EDEF"/>
<path fill-rule="evenodd" clip-rule="evenodd" d="M165.361 200.278L163.922 200.506C154.721 201.964 133.872 204.375 128 204.375H127.31L136.168 231.459L165.361 200.278ZM162.646 201.714L136.593 229.541L128.687 205.366C135.081 205.213 153.228 203.129 162.646 201.714Z" fill="black"/>
<path d="M85 201.5C80.5 201 68 198.5 61 197L124 276.5L85 201.5Z" fill="#3C4049"/>
<path fill-rule="evenodd" clip-rule="evenodd" d="M60.5753 196.736C60.6866 196.557 60.8985 196.467 61.1048 196.511C68.1124 198.013 80.5854 200.506 85.0552 201.003C85.221 201.021 85.3667 201.121 85.4436 201.269L124.444 276.269C124.562 276.498 124.488 276.78 124.272 276.92C124.056 277.06 123.768 277.013 123.608 276.811L60.6081 197.311C60.4771 197.145 60.4639 196.915 60.5753 196.736ZM62.2546 197.778L121.143 272.09L84.6789 201.966C80.241 201.435 69.2639 199.259 62.2546 197.778Z" fill="#0C0D0F"/>
<path d="M161.5 201.5C165.5 200.5 176 198.5 183 196.5L124 276.5L161.5 201.5Z" fill="#3C4049"/>
<path fill-rule="evenodd" clip-rule="evenodd" d="M183.411 196.215C183.289 196.039 183.068 195.96 182.863 196.019C179.379 197.014 175.018 198.012 171.018 198.887C169.798 199.153 168.61 199.409 167.492 199.65C164.954 200.197 162.773 200.666 161.379 201.015C161.237 201.05 161.118 201.146 161.053 201.276L123.553 276.276C123.437 276.509 123.518 276.791 123.739 276.926C123.96 277.062 124.248 277.006 124.402 276.797L183.402 196.797C183.529 196.625 183.533 196.391 183.411 196.215ZM181.738 197.369L127.044 271.53L161.844 201.93C163.226 201.592 165.285 201.148 167.679 200.633C168.801 200.391 169.997 200.133 171.232 199.863C174.717 199.101 178.497 198.242 181.738 197.369Z" fill="#0C0D0F"/>
<path d="M100.619 200.963C110.219 198.163 116.786 202.13 119.619 204.463C121.286 203.796 125.719 202.863 128.119 204.463C133.719 200.463 144.452 200.796 148.619 201.463C149.786 205.963 151.319 216.163 148.119 220.963C137.119 219.963 131.119 214.463 128.119 211.963C125.719 213.563 121.452 212.63 119.619 211.963C115.786 215.296 107.019 221.963 102.619 221.963C98.6192 219.963 95.6192 205.963 100.619 200.963Z" fill="#262A2B"/>
<path d="M124 221C124 222.105 123.105 223 122 223C120.895 223 120 222.105 120 221C120 219.895 120.895 219 122 219C123.105 219 124 219.895 124 221Z" fill="#F8FEFC"/>
<path fill-rule="evenodd" clip-rule="evenodd" d="M122 222C122.552 222 123 221.552 123 221C123 220.448 122.552 220 122 220C121.448 220 121 220.448 121 221C121 221.552 121.448 222 122 222ZM122 223C123.105 223 124 222.105 124 221C124 219.895 123.105 219 122 219C120.895 219 120 219.895 120 221C120 222.105 120.895 223 122 223Z" fill="#2C3230"/>
<path d="M124 235C124 236.105 123.105 237 122 237C120.895 237 120 236.105 120 235C120 233.895 120.895 233 122 233C123.105 233 124 233.895 124 235Z" fill="#F8FEFC"/>
<path fill-rule="evenodd" clip-rule="evenodd" d="M122 236C122.552 236 123 235.552 123 235C123 234.448 122.552 234 122 234C121.448 234 121 234.448 121 235C121 235.552 121.448 236 122 236ZM122 237C123.105 237 124 236.105 124 235C124 233.895 123.105 233 122 233C120.895 233 120 233.895 120 235C120 236.105 120.895 237 122 237Z" fill="#2C3230"/>
<path d="M124 249C124 250.105 123.105 251 122 251C120.895 251 120 250.105 120 249C120 247.895 120.895 247 122 247C123.105 247 124 247.895 124 249Z" fill="#F8FEFC"/>
<path fill-rule="evenodd" clip-rule="evenodd" d="M122 250C122.552 250 123 249.552 123 249C123 248.448 122.552 248 122 248C121.448 248 121 248.448 121 249C121 249.552 121.448 250 122 250ZM122 251C123.105 251 124 250.105 124 249C124 247.895 123.105 247 122 247C120.895 247 120 247.895 120 249C120 250.105 120.895 251 122 251Z" fill="#2C3230"/>
<path d="M124 263C124 264.105 123.105 265 122 265C120.895 265 120 264.105 120 263C120 261.895 120.895 261 122 261C123.105 261 124 261.895 124 263Z" fill="#F8FEFC"/>
<path fill-rule="evenodd" clip-rule="evenodd" d="M122 264C122.552 264 123 263.552 123 263C123 262.448 122.552 262 122 262C121.448 262 121 262.448 121 263C121 263.552 121.448 264 122 264ZM122 265C123.105 265 124 264.105 124 263C124 261.895 123.105 261 122 261C120.895 261 120 261.895 120 263C120 264.105 120.895 265 122 265Z" fill="#2C3230"/>
<path d="M188.087 118.88C188.087 125.455 179.867 130.789 169.735 130.789C159.603 130.789 151.382 125.455 151.382 118.88H188.087Z" fill="white"/>
<path d="M169.735 131.038C159.404 131.038 151 125.585 151 118.881V118.633H188.47V118.881C188.47 125.585 180.066 131.038 169.735 131.038ZM151.772 119.129C151.979 125.446 159.954 130.542 169.742 130.542C179.53 130.542 187.506 125.446 187.712 119.129H151.772Z" fill="#231815"/>
<path d="M152 119C158.247 122.773 174.192 128.055 188 119H152Z" fill="url(#paint0_linear_2013_841)"/>
<path d="M173 119C173 125.667 164 125.667 164 119H173Z" fill="#FEFFC0"/>
<path d="M167.322 118.632C167.322 122.6 164.838 125.814 161.773 125.814C158.708 125.814 156.223 122.6 156.223 118.632H167.322Z" fill="#231815"/>
<path fill-rule="evenodd" clip-rule="evenodd" d="M184.296 117.38L182.011 119.338L181.361 118.579L183.646 116.62L184.296 117.38ZM188.568 117.68L186.936 119.312L186.229 118.605L187.861 116.973L188.568 117.68ZM188.355 121.996C188.235 122.017 188.109 122.038 187.978 122.062L187.799 121.078C187.966 121.048 188.112 121.023 188.242 121C188.609 120.937 188.854 120.895 189.098 120.817C189.4 120.72 189.704 120.563 190.2 120.191L190.8 120.991C190.251 121.402 189.848 121.626 189.404 121.769C189.087 121.871 188.748 121.929 188.355 121.996ZM188.383 125.309L186.424 124.656L186.741 123.707L188.699 124.36L188.383 125.309ZM185.091 127.911L183.459 127.258L183.83 126.329L185.463 126.982L185.091 127.911Z" fill="#191718"/>
<path d="M54.4128 118.88C54.4128 125.455 62.6332 130.789 72.7653 130.789C82.8973 130.789 91.1177 125.455 91.1177 118.88H54.4128Z" fill="white"/>
<path d="M72.7653 131.038C83.0961 131.038 91.5 125.585 91.5 118.881V118.633H54.0305V118.881C54.0305 125.585 62.4344 131.038 72.7653 131.038ZM90.7277 119.129C90.5212 125.446 82.5455 130.542 72.7576 130.542C62.9696 130.542 54.994 125.446 54.7875 119.129H90.7277Z" fill="#231815"/>
<path d="M90.5 119C84.2534 122.773 68.3082 128.055 54.5 119H90.5Z" fill="url(#paint1_linear_2013_841)"/>
<path d="M69.5 119C69.5 125.667 78.5 125.667 78.5 119H69.5Z" fill="#FEFFC0"/>
<path d="M75.1777 118.632C75.1777 122.6 77.6621 125.814 80.7273 125.814C83.7924 125.814 86.2769 122.6 86.2769 118.632H75.1777Z" fill="#231815"/>
<path fill-rule="evenodd" clip-rule="evenodd" d="M58.2036 117.38L60.4887 119.338L61.1395 118.579L58.8544 116.62L58.2036 117.38ZM53.9316 117.68L55.5638 119.312L56.2709 118.605L54.6387 116.973L53.9316 117.68ZM54.1447 121.996C54.2651 122.017 54.3906 122.038 54.5222 122.062L54.701 121.078C54.5342 121.048 54.3883 121.023 54.2578 121C53.8907 120.937 53.6459 120.895 53.4016 120.817C53.0999 120.72 52.7962 120.563 52.3 120.191L51.7 120.991C52.2485 121.402 52.6521 121.626 53.0958 121.769C53.4129 121.871 53.7517 121.929 54.1447 121.996ZM54.1168 125.309L56.0755 124.656L55.7593 123.707L53.8006 124.36L54.1168 125.309ZM57.4089 127.911L59.0411 127.258L58.6697 126.329L57.0375 126.982L57.4089 127.911Z" fill="#191718"/>
<path d="M51.6274 107.003C52.1274 106.503 64.9629 101.845 65.6274 102.003C74.0675 104.01 94.3682 111.906 100.857 112.963C101.487 113.063 102.13 110.1 101.5 110C94.9716 108.938 73.9926 102.968 65.6274 101.003C65.0103 100.858 52.1673 105.582 51.3974 106.042C50.6275 106.503 51.1274 107.503 51.6274 107.003Z" fill="#231815"/>
<path d="M190.859 107.003C190.359 106.503 177.523 101.845 176.859 102.003C168.418 104.01 148.118 111.906 141.629 112.963C140.999 113.063 140.37 110.6 141 110.5C147.528 109.438 168.493 102.968 176.859 101.003C177.476 100.858 190.319 105.582 191.089 106.042C191.858 106.503 191.359 107.503 190.859 107.003Z" fill="#231815"/>
<path d="M28.5 75.4998C37.5 63.8331 82.1 29.4 102.5 27C67.5 11.4998 24.5 27.5 28.5 75.4998Z" fill="url(#paint2_linear_2013_841)"/>
<path d="M207.963 80.5383C199.338 68.5913 155.856 32.7573 135.542 29.7098C171.018 15.3305 213.487 32.6901 207.963 80.5383Z" fill="url(#paint3_linear_2013_841)"/>
<path d="M7.01 92.7851C7.01 92.7851 19.5569 93.6784 24.5 88.5C35 77.5 33.3884 53.9093 35 48C36.6116 42.0907 47.2249 26.5393 72 23C89.5 20.5 89.5 27 98 27C109 31.5 135 31.5 147.5 27C159.5 23 172.973 27 176.5 29.5C183.678 34.5874 199.5 32 203 57C207.373 88.2351 223.432 86.34 230.07 88.2351C230.07 88.2351 218.96 -4.25492 111.34 1.23508C15.75 6.10508 7 92.7851 7 92.7851H7.01Z" fill="#4E4E4E"/>
<path d="M98.9902 177.41C97.1812 176.185 90.4278 169.52 87.1928 166.101C96.6205 167.764 103.553 165.269 107.989 163.605C111.539 162.274 115.384 163.05 116.862 163.605C119.173 164.16 124.682 164.936 128.231 163.605C132.668 161.941 136.827 164.437 145.423 165.269C152.3 165.934 157.346 163.143 159.01 161.664C158.64 163.513 157.088 169.144 151.246 174.142C146.129 178.519 138.861 178.671 135.995 177.469C131.928 176.545 120.998 174.538 113.686 177.965C104.813 182.124 101.36 179.015 98.9902 177.41Z" fill="#915F3A"/>
<path fill-rule="evenodd" clip-rule="evenodd" d="M159.793 160.299L159.5 161.762C159.117 163.679 157.525 169.428 151.571 174.522C148.927 176.784 145.737 177.946 142.853 178.392C140.007 178.831 137.394 178.583 135.843 177.948C133.816 177.488 130.121 176.771 126.035 176.585C121.91 176.397 117.446 176.755 113.899 178.418C109.396 180.528 106.204 180.824 103.801 180.339C101.711 179.917 100.265 178.907 99.1637 178.138C99.0056 178.028 98.8546 177.922 98.7099 177.824C97.7606 177.181 95.5841 175.172 93.2783 172.938C90.9554 170.687 88.453 168.16 86.8296 166.444L85.7901 165.345L87.2797 165.608C96.5701 167.248 103.397 164.793 107.814 163.137C111.49 161.758 115.44 162.546 117.008 163.126C118.139 163.395 120.047 163.718 122.105 163.813C124.191 163.909 126.375 163.767 128.056 163.137C130.411 162.253 132.678 162.487 135.363 163.01C136.005 163.135 136.671 163.277 137.372 163.426C139.62 163.904 142.219 164.456 145.471 164.771C152.198 165.422 157.11 162.684 158.678 161.29L159.793 160.299ZM158.186 162.903C155.806 164.451 151.231 166.333 145.375 165.766C142.06 165.446 139.387 164.877 137.132 164.398C136.442 164.251 135.79 164.112 135.172 163.992C132.519 163.475 130.488 163.293 128.407 164.073C126.538 164.774 124.193 164.91 122.059 164.812C119.916 164.713 117.93 164.375 116.746 164.091L116.716 164.084L116.687 164.073C115.277 163.545 111.564 162.799 108.165 164.073C103.94 165.657 97.3953 168.02 88.5762 166.823C90.1197 168.418 92.1047 170.408 93.9742 172.219C96.3062 174.479 98.4108 176.414 99.2706 176.996C99.4268 177.102 99.5854 177.212 99.7477 177.325C100.85 178.093 102.126 178.981 103.998 179.359C106.133 179.79 109.104 179.561 113.474 177.512C117.238 175.748 121.895 175.395 126.08 175.586C130.276 175.777 134.057 176.516 136.106 176.982L136.148 176.991L136.189 177.008C137.508 177.562 139.941 177.83 142.7 177.404C145.445 176.98 148.448 175.877 150.921 173.762C155.594 169.764 157.463 165.358 158.186 162.903Z" fill="#140000"/>
<path d="M107.989 168.596C103.109 171.258 93.3857 169.335 89.134 168.041C90.3356 169.52 94.0697 173.532 99.3936 177.746C104.718 181.961 111.409 179.503 114.09 177.746C116.308 176.73 123.185 175.14 132.945 176.915C144.188 178.959 145.297 178.242 150.843 174.36C155.207 171.305 158.052 165.487 158.607 163.546C155.834 169.369 141.818 169.705 135.995 168.041C130.172 166.378 128.231 167.209 126.568 168.041C124.904 168.873 117.972 168.873 116.863 168.041C115.754 167.21 114.09 165.269 107.989 168.596Z" fill="url(#paint4_linear_2013_841)"/>
<path fill-rule="evenodd" clip-rule="evenodd" d="M148.478 168.849C143.873 169.456 138.878 169.125 135.927 168.282C133.031 167.454 131.121 167.254 129.74 167.355C128.367 167.455 127.501 167.854 126.68 168.265C126.22 168.495 125.436 168.654 124.534 168.758C123.621 168.863 122.554 168.915 121.507 168.915C120.46 168.915 119.427 168.863 118.582 168.757C118.16 168.705 117.78 168.638 117.467 168.556C117.161 168.477 116.892 168.376 116.713 168.241C116.629 168.179 116.544 168.112 116.457 168.042C115.94 167.634 115.323 167.146 114.265 167.007C113.023 166.843 111.138 167.163 108.109 168.816C105.6 170.184 101.884 170.362 98.3045 170.051C95.1297 169.776 92.0185 169.113 89.8612 168.513C91.4293 170.306 94.8728 173.849 99.5488 177.55C102.147 179.607 105.079 180.039 107.704 179.737C110.334 179.435 112.641 178.397 113.953 177.537L113.969 177.527L113.986 177.519C116.26 176.477 123.19 174.887 132.99 176.669C138.618 177.692 141.663 178.013 143.988 177.613C146.3 177.215 147.918 176.102 150.7 174.155C152.845 172.654 154.626 170.465 155.943 168.401C156.662 167.274 157.238 166.191 157.656 165.286C156.902 166.037 155.932 166.658 154.827 167.166C153.002 168.004 150.782 168.545 148.478 168.849ZM154.619 166.712C156.386 165.9 157.723 164.82 158.381 163.438L158.847 163.614C158.562 164.615 157.699 166.577 156.364 168.67C155.028 170.764 153.205 173.012 150.986 174.565C148.222 176.5 146.513 177.686 144.073 178.106C141.647 178.523 138.516 178.181 132.901 177.16C123.204 175.398 116.392 176.974 114.211 177.966C112.84 178.86 110.468 179.923 107.762 180.234C105.04 180.547 101.964 180.101 99.2384 177.942C93.9012 173.717 90.1538 169.693 88.94 168.199L88.424 167.564L89.2068 167.802C91.3188 168.445 94.7954 169.245 98.3476 169.553C101.912 169.862 105.499 169.67 107.87 168.377C110.941 166.701 112.938 166.328 114.33 166.511C115.534 166.67 116.26 167.246 116.778 167.658C116.861 167.724 116.939 167.786 117.013 167.841C117.111 167.915 117.301 167.996 117.593 168.073C117.878 168.147 118.234 168.21 118.644 168.261C119.463 168.364 120.474 168.415 121.507 168.415C122.54 168.415 123.587 168.364 124.477 168.261C125.377 168.157 126.083 168.004 126.456 167.818C127.299 167.396 128.234 166.964 129.704 166.856C131.165 166.749 133.137 166.965 136.064 167.801C138.936 168.621 143.86 168.954 148.412 168.353C150.687 168.053 152.854 167.522 154.619 166.712Z" fill="#140000"/>
<path d="M87.067 166.319C83.4622 164.103 85.3108 162.344 87.067 162.437C93.5 162.657 102.444 161.108 105.494 160.277C111.261 156.95 115.846 158.151 117.417 159.168C119.266 159.815 124.627 160.277 126.013 159.168C128.836 156.91 137.104 158.336 141.264 160C145.423 161.664 151.246 160.832 155.96 159.446C159.731 158.336 159.809 160.773 159.162 162.159C157.221 163.823 148.424 166.737 140.432 164.714C131.433 162.437 129.769 163.546 127.551 164.1C124.778 164.932 120.855 164.767 116.737 163.823C108.015 161.823 105.368 165.487 100.654 166.041C97.6982 166.389 90.1171 166.689 87.067 166.319Z" fill="#1F1E1C"/>
<path d="M108.378 133.125C108.842 131.268 112.828 127.322 114.763 125.58L131.308 125L136.533 133.125C139.145 136.608 137.887 139.51 136.533 140.67L132.469 144.153L136.533 141.541C143.499 143.862 140.79 148.506 138.564 150.537C135.372 150.537 131.598 153.149 128.696 155.18C124.516 160.287 119.408 157.308 117.376 155.18C115.537 153.632 110.816 150.363 106.636 149.666C101.412 148.796 104.895 141.541 108.958 141.541C113.893 143.572 112.441 141.251 109.829 139.51C107.217 137.768 107.797 135.447 108.378 133.125Z" fill="#995E3A"/>
<path fill-rule="evenodd" clip-rule="evenodd" d="M131.441 124.745L136.738 132.983C138.073 134.766 138.434 136.422 138.268 137.798C138.103 139.17 137.418 140.241 136.695 140.86L135.393 141.976L136.498 141.266L136.612 141.304C138.379 141.893 139.56 142.638 140.29 143.476C141.026 144.32 141.29 145.246 141.245 146.16C141.156 147.963 139.863 149.69 138.733 150.722L138.661 150.787H138.564C137.03 150.787 135.332 151.417 133.639 152.317C131.96 153.21 130.313 154.353 128.867 155.365C126.726 157.966 124.322 158.527 122.186 158.139C120.071 157.756 118.246 156.45 117.204 155.363C116.295 154.598 114.672 153.407 112.761 152.321C110.839 151.23 108.643 150.254 106.595 149.913C105.224 149.684 104.379 149.025 103.994 148.128C103.615 147.246 103.704 146.187 104.08 145.189C104.458 144.188 105.136 143.219 105.985 142.498C106.832 141.777 107.867 141.291 108.958 141.291H109.008L109.053 141.31C110.283 141.816 111.087 142.039 111.563 142.076C111.806 142.095 111.919 142.062 111.96 142.037C111.969 142.032 111.972 142.028 111.973 142.027C111.974 142.026 111.974 142.025 111.975 142.025C111.975 142.023 111.981 142.009 111.976 141.973C111.965 141.894 111.914 141.767 111.796 141.594C111.681 141.425 111.518 141.231 111.311 141.023C110.899 140.607 110.332 140.145 109.69 139.718C108.324 138.807 107.774 137.725 107.657 136.56C107.544 135.428 107.843 134.232 108.129 133.089L108.135 133.065C108.263 132.552 108.624 131.925 109.096 131.263C109.573 130.594 110.182 129.864 110.834 129.142C112.137 127.697 113.624 126.269 114.596 125.395L114.664 125.334L131.441 124.745ZM114.863 125.827C113.9 126.698 112.464 128.081 111.205 129.477C110.56 130.191 109.965 130.905 109.503 131.553C109.037 132.207 108.724 132.77 108.62 133.186C108.327 134.357 108.051 135.474 108.155 136.51C108.256 137.522 108.722 138.471 109.968 139.302C110.632 139.744 111.226 140.226 111.667 140.671C111.887 140.894 112.072 141.111 112.209 141.313C112.343 141.509 112.446 141.714 112.471 141.907C112.485 142.007 112.479 142.114 112.436 142.217C112.392 142.322 112.317 142.404 112.222 142.463C112.043 142.573 111.797 142.596 111.524 142.575C110.972 142.531 110.122 142.288 108.91 141.791C107.986 141.805 107.08 142.223 106.308 142.879C105.524 143.545 104.896 144.444 104.548 145.365C104.199 146.29 104.143 147.208 104.453 147.931C104.757 148.639 105.436 149.213 106.677 149.42C108.809 149.775 111.064 150.782 113.007 151.887C114.954 152.992 116.606 154.205 117.537 154.989L117.547 154.997L117.557 155.007C118.548 156.046 120.288 157.287 122.275 157.647C124.239 158.003 126.47 157.505 128.502 155.022L128.524 154.995L128.552 154.975C130.002 153.961 131.683 152.791 133.404 151.876C135.087 150.981 136.836 150.314 138.466 150.288C139.54 149.284 140.668 147.708 140.746 146.135C140.785 145.345 140.56 144.547 139.913 143.804C139.276 143.072 138.218 142.381 136.567 141.816L132.604 144.363L132.306 143.963L136.37 140.481C137.002 139.939 137.623 138.979 137.772 137.739C137.921 136.505 137.605 134.972 136.333 133.275L136.327 133.268L131.175 125.255L114.863 125.827Z" fill="#333333"/>
<path d="M128.268 143.594C132.351 138.194 130.97 130.281 129.769 127H128.268C130.67 128.8 129.269 138.812 128.268 143.594Z" fill="#0A0000"/>
<path d="M116.26 127.281L118.362 127.844C115.24 132.794 117.861 141.344 119.563 145C114.159 137.688 114.259 128.969 116.26 127.281Z" fill="#0A0000"/>
<path d="M122.455 145.958C117.342 140.982 118.775 131.246 120.131 127C121.486 127.099 124.837 127.237 127.393 127C129.95 136.716 126.715 143.589 124.779 145.958C131.286 151.409 128.846 155.833 126.812 157.215C125.747 157.807 122.919 158.637 120.131 157.215C115.482 154.549 119.453 149.316 122.455 145.958Z" fill="#573824"/>
<defs>
<linearGradient id="paint0_linear_2013_841" x1="132.46" y1="-303.088" x2="132.46" y2="323.67" gradientUnits="userSpaceOnUse">
<stop stop-color="#D9D9D9"/>
<stop offset="1" stop-color="#737373" stop-opacity="0"/>
</linearGradient>
<linearGradient id="paint1_linear_2013_841" x1="132.46" y1="-303.088" x2="132.46" y2="323.67" gradientUnits="userSpaceOnUse">
<stop stop-color="#D9D9D9"/>
<stop offset="1" stop-color="#737373" stop-opacity="0"/>
</linearGradient>
<linearGradient id="paint2_linear_2013_841" x1="52.5232" y1="-53.6086" x2="215.483" y2="73.822" gradientUnits="userSpaceOnUse">
<stop stop-color="#EFC99C"/>
<stop offset="1" stop-color="#FFA66A" stop-opacity="0"/>
</linearGradient>
<linearGradient id="paint3_linear_2013_841" x1="52.5232" y1="-53.6086" x2="215.483" y2="73.822" gradientUnits="userSpaceOnUse">
<stop stop-color="#EFC99C"/>
<stop offset="1" stop-color="#FFA66A" stop-opacity="0"/>
</linearGradient>
<linearGradient id="paint4_linear_2013_841" x1="127.523" y1="39.2493" x2="166.776" y2="294.826" gradientUnits="userSpaceOnUse">
<stop stop-color="#D39D77"/>
<stop offset="1" stop-color="#915F3A" stop-opacity="0"/>
</linearGradient>
</defs>
</svg>
