<svg width="426" height="426" viewBox="0 0 426 426" fill="none" xmlns="http://www.w3.org/2000/svg">
<g clip-path="url(#clip0_772_978)">
<path d="M131.09 218.88C85.59 177.85 78.87 110.28 119.71 64.6004C160.55 18.9304 239.16 14.3904 284.99 55.0504C330.82 95.7104 327.92 169.9 287.45 215.89C304.35 229.1 344.28 268.48 339.14 289.31C331.82 318.99 317.78 305.99 296.11 291.59C298.9 314.21 292.2 342.11 287.41 359.04C283.09 374.31 275.81 405.62 259.71 406.56C237.61 406.39 236.02 399.91 231.42 386.7C226.47 372.45 224.33 360.62 212.72 360.53C201.07 360.53 201.18 374.9 197.59 385.98C193.6 398.3 197.06 405.51 175.19 406.92C156.65 408.12 149.07 379.37 141 356.5C137.78 344.8 130.02 305.32 130.69 291.97C119.21 302.57 109.26 328.81 92.03 311.57C84 303.53 87.16 289.49 90.28 278.57C97.01 254.98 111.56 233.7 131.1 218.87" fill="#935E38"/>
<path d="M131.53 218.82C118.09 206.65 107.4 191.58 100.77 174.68C94.14 157.78 91.92 140.93 93.76 123.67C95.63 106.15 102.01 89.2902 112.12 74.8702C122.23 60.4502 135.42 49.1202 150.84 41.1302C166 33.2702 182.87 28.7902 199.89 27.7102C216.91 26.6302 234.16 28.9302 250.19 34.7902C266.27 40.6702 281.06 50.2402 292.5 63.0402C303.94 75.8402 311.58 91.4002 315.32 107.98C319.02 124.4 318.92 141.6 315.54 158.07C312.16 174.54 305 191.53 294.91 205.77C292.44 209.25 289.79 212.6 286.98 215.81C286.93 215.86 286.98 215.93 287.02 215.97C294.3 221.67 301.07 228.05 307.53 234.66C315.44 242.75 322.98 251.36 329.26 260.79C334.07 268.01 339.35 276.88 339.1 285.88C339.04 288.15 338.43 290.33 337.79 292.5C336.96 295.31 335.95 298.11 334.49 300.65C332.61 303.92 329.78 306.82 325.8 307.02C321.18 307.25 316.59 304.55 312.77 302.27C307.21 298.95 301.96 295.13 296.57 291.55C296.46 291.48 295.6 291.27 295.63 291.57C297.76 309.36 294.7 327.61 290.61 344.91C289.04 351.56 287.17 358.13 285.35 364.72C283.63 370.92 281.84 377.11 279.55 383.14C277.26 389.17 274.53 395.3 270.3 400.21C268.57 402.22 266.54 404.03 264.14 405.18C260.84 406.76 257.27 406.43 253.71 406.15C248.06 405.71 241.85 404.57 238.01 400C234.95 396.36 233.58 391.49 232.06 387.08C228.54 376.93 225.02 357.53 210.05 360.61C204.16 361.82 201.87 367.7 200.45 372.89C199.54 376.22 198.88 379.62 197.99 382.96C197.26 385.7 196.35 388.38 195.71 391.15C194.79 395.09 194.17 399.58 190.95 402.39C188.98 404.11 186.41 404.99 183.91 405.58C180.21 406.45 176.02 407.12 172.23 406.69C165.64 405.94 160.67 400.91 157.1 395.7C152.92 389.59 149.99 382.66 147.35 375.78C144.74 368.99 142.11 362.08 140.03 355.1C138.41 349.67 137.33 344.08 136.31 338.51C133.9 325.39 131.91 312.03 131.27 298.69C131.16 296.48 131.1 294.26 131.2 292.05C131.22 291.73 130.38 291.77 130.23 291.91C124.11 297.63 119.99 305.12 114.14 311.09C111.55 313.73 108.38 316.38 104.61 316.99C99.91 317.75 95.62 314.73 92.49 311.54C84.56 303.44 87.6 290.25 90.25 280.57C93.37 269.17 98.13 258.31 104.52 248.36C111.75 237.11 120.91 227.14 131.54 219.03C131.84 218.8 130.91 218.59 130.7 218.75C110.74 233.98 96.2 255.57 89.46 279.75C86.74 289.52 83.43 302.96 91.27 311.31C94.15 314.38 97.98 317.13 102.29 317.48C105.79 317.77 109.02 316.35 111.75 314.27C119.63 308.25 124 298.81 131.19 292.09L130.22 291.95C129.97 297.33 130.49 302.77 131.02 308.12C131.73 315.3 132.7 322.46 133.82 329.58C134.85 336.07 136.83 342.1 138.31 348.5C139.66 354.33 141.688 360.36 143.668 366C146.368 373.68 148.28 381.37 151.99 388.62C154.89 394.29 158.49 400.14 163.82 403.84C169.15 407.54 174.82 407.46 180.95 406.58C185.64 405.91 191.09 404.66 193.79 400.35C196.05 396.73 196.39 392.09 197.51 388.06C198.43 384.76 199.4 381.5 200.18 378.16C200.96 374.82 201.69 371.4 203.03 368.23C204.25 365.33 206.14 362.53 209.2 361.37C212.64 360.06 216.89 360.78 219.79 362.99C225.27 367.16 227.15 375.26 229.19 381.45C231 386.94 232.54 393.06 235.62 398.03C238.07 401.98 241.87 404.26 246.31 405.4C249.65 406.26 253.12 406.57 256.56 406.71C259.31 406.82 261.85 406.81 264.42 405.71C269.61 403.49 273.15 398.5 275.8 393.72C282.03 382.5 285 369.69 288.41 357.41C293.16 340.31 297.01 322.6 297.28 304.79C297.35 300.4 297.16 296.01 296.64 291.65L295.7 291.67C300.36 294.77 304.93 298.02 309.66 301.01C313.28 303.3 317.09 305.61 321.24 306.78C324.05 307.58 327.13 307.78 329.84 306.51C333.44 304.83 335.57 301.06 337.05 297.55C338.85 293.26 340.43 288.5 340.05 283.79C339.73 279.73 338.35 275.78 336.68 272.09C332.31 262.47 325.7 253.87 318.86 245.89C311.95 237.83 304.47 230.24 296.57 223.15C294.97 221.72 293.35 220.3 291.71 218.92C291 218.32 290.29 217.73 289.57 217.15C289.27 216.9 288.82 216.65 288.56 216.34C288.54 216.32 288.14 216.07 288.13 216C288.05 215.63 288.7 215.13 288.93 214.87C292.93 210.21 296.57 205.25 299.83 200.04C312.48 179.82 319.35 155.96 319.11 132.09C318.88 108.77 311.62 85.5202 297.01 67.1602C282.55 48.9902 261.8 36.7102 239.44 30.9602C217.08 25.2102 193.41 25.7602 171.42 32.2402C149.43 38.7202 128.35 52.1302 113.93 70.9202C99.12 90.2302 91.38 114.3 92.27 138.63C93.16 162.96 102.6 186.83 118.09 205.73C121.95 210.44 126.17 214.83 130.68 218.92C130.88 219.1 131.83 219.04 131.56 218.79L131.53 218.82Z" fill="#D9DBE0"/>
<path d="M178 406.5C161.5 407.5 154.5 394 151 385C158.5 383.333 178.2 381.5 197 387.5C194.5 406.5 186.5 405.5 178 406.5Z" fill="#191718" stroke="#191718"/>
<path d="M258 406.5C269 407 276 393.5 279.5 384.5C272 382.833 250.8 381.131 232 387.131C236 406.5 249.5 405.501 258 406.5Z" fill="#191718" stroke="#191718"/>
<path d="M131.4 218.77C110.97 233.67 92.3299 261.96 87.6599 291.45C97.5199 297.09 107.81 302.71 117.67 308.35C123.27 302.11 125.18 297.83 130.98 292.03C129.05 314.67 139 358 150.65 384.1C151.8 386.85 176.92 396.92 197.47 387.22C201.72 372.24 204.31 362.23 212.38 361.16C220.45 360.09 226.31 367 231.84 386.95C258.43 394.49 280.25 385.06 281.09 382.55C288.84 359.33 301.64 317.16 296.02 291.76C301.62 294.66 305.96 298.67 311.55 301.57C312.79 302.45 338.33 275.91 337.87 274.61C330.23 253.12 290.59 215.78 287.74 215.78C243.7 235.13 179.21 234.03 131.39 218.76L131.4 218.77Z" fill="#2F2F2F"/>
<path d="M131.15 218.34C113.2 231.49 99.76 251.18 92.23 271.97C89.96 278.25 88.24 284.72 87.18 291.32C87.14 291.54 87.2 291.77 87.41 291.88C97.38 297.57 107.45 303.08 117.42 308.78C117.6 308.88 117.88 308.87 118.03 308.7C122.71 303.45 126.37 297.39 131.34 292.38L130.49 292.03C129.58 303.05 131.42 314.37 133.43 325.17C135.84 338.18 139.08 351.06 142.96 363.71C144.61 369.11 146.39 374.47 148.39 379.75C148.82 380.88 149.26 382 149.71 383.12C149.95 383.72 150.13 384.37 150.58 384.86C151.44 385.8 152.77 386.4 153.9 386.93C158.58 389.14 163.75 390.43 168.85 391.18C175.69 392.19 182.75 392.14 189.5 390.53C191.28 390.11 193.04 389.57 194.75 388.92C195.56 388.61 196.37 388.28 197.16 387.92C198.02 387.53 198.01 387.19 198.27 386.28C199.3 382.66 200.3 379.03 201.49 375.46C203.02 370.87 204.99 364.88 209.64 362.52C212.96 360.83 216.94 361.46 219.82 363.71C223.92 366.91 226.26 372.22 228.08 376.93C228.76 378.69 229.38 380.47 229.95 382.27C230.24 383.19 230.53 384.12 230.8 385.05C230.98 385.66 231.08 386.97 231.61 387.39C232.2 387.86 233.55 387.94 234.29 388.12C235.43 388.4 236.58 388.66 237.73 388.88C239.62 389.25 241.53 389.55 243.44 389.78C250.54 390.64 257.77 390.48 264.83 389.27C269.43 388.48 274.11 387.29 278.31 385.21C279.29 384.72 280.42 384.17 281.17 383.34C281.58 382.89 281.7 382.34 281.89 381.76C282.32 380.46 282.75 379.16 283.17 377.85C287.26 365.27 290.96 352.55 293.73 339.61C296.5 326.67 298.71 313.03 297.66 299.69C297.45 296.98 297.08 294.29 296.5 291.63L295.77 292.19C299 293.89 301.96 296.02 304.96 298.08C306.4 299.07 307.85 300.04 309.36 300.92C310.03 301.31 310.98 302.18 311.82 302.07C312.38 302 312.95 301.44 313.37 301.11C314.34 300.35 315.26 299.51 316.18 298.67C321.81 293.48 327.14 287.93 332.3 282.28C334.15 280.26 336.05 278.24 337.67 276.03C338 275.58 338.42 275.08 338.37 274.5C338.32 273.88 337.86 273.13 337.61 272.55C337.22 271.63 336.8 270.72 336.36 269.82C332.25 261.55 326.41 254.1 320.5 247.06C314.28 239.66 307.64 232.6 300.68 225.9C298.17 223.49 295.63 221.12 292.98 218.87C291.61 217.7 290.13 216.27 288.48 215.5C288.28 215.41 288.05 215.29 287.83 215.29C287.5 215.29 287.16 215.51 286.87 215.64C286.09 215.98 285.3 216.31 284.5 216.63C281.74 217.76 278.94 218.8 276.11 219.75C270.25 221.73 264.27 223.36 258.23 224.69C245.41 227.52 232.31 229.03 219.2 229.56C192.71 230.62 165.84 227.84 140.25 220.85C137.34 220.05 134.44 219.2 131.56 218.28C130.95 218.08 130.68 219.05 131.29 219.24C155.51 226.95 181.12 230.54 206.5 230.75C231.88 230.96 257.02 227.97 280.53 219.24C281.78 218.78 283.02 218.29 284.26 217.8C284.93 217.53 285.59 217.25 286.26 216.97C286.58 216.83 287.65 216.27 287.73 216.27C288.07 216.26 288.68 216.76 289.02 217C290.99 218.36 292.8 219.99 294.58 221.58C300.85 227.18 306.76 233.19 312.44 239.38C319.03 246.57 325.38 254.08 330.77 262.22C333 265.59 335.1 269.11 336.68 272.84C336.86 273.27 337.04 273.7 337.2 274.14C337.28 274.35 337.36 274.89 337.41 274.58C337.4 274.65 337.2 274.96 337.09 275.14C336.54 275.97 335.87 276.73 335.23 277.48C330.47 283.09 325.3 288.38 320.07 293.55C317.89 295.71 315.69 297.89 313.34 299.86C312.87 300.25 312.14 300.92 311.67 301.07C311.53 301.12 311.75 301.12 311.83 301.13C311.12 301.04 310.12 300.19 309.5 299.82C307.94 298.89 306.44 297.87 304.95 296.84C302.13 294.89 299.33 292.92 296.3 291.32C295.9 291.11 295.47 291.45 295.57 291.88C298.26 304.23 296.77 317.41 294.66 329.73C292.36 343.12 288.85 356.29 284.86 369.27C284.01 372.04 283.13 374.81 282.24 377.56C281.83 378.82 281.42 380.08 281 381.33C280.79 381.97 280.75 382.36 280.29 382.8C279.4 383.65 278.12 384.2 277.01 384.7C275.02 385.6 272.93 386.3 270.82 386.88C264.74 388.57 258.4 389.31 252.09 389.29C248.13 389.27 244.18 388.94 240.27 388.29C238.12 387.93 235.98 387.48 233.87 386.94C233.5 386.85 232.77 386.8 232.47 386.57C232.08 386.27 232.03 385.65 231.9 385.19C231.61 384.18 231.3 383.17 230.99 382.17C229.22 376.56 227.11 370.7 223.47 366C221.35 363.25 218.51 360.97 214.96 360.59C204.01 359.42 200.83 373.76 198.56 381.63C198.3 382.51 198.05 383.4 197.8 384.28C197.55 385.16 197.44 386.54 196.67 387.02C195.12 388 192.95 388.51 191.2 389.02C187.63 390.05 183.93 390.6 180.22 390.77C173.83 391.05 167.38 390.24 161.23 388.5C159.01 387.87 156.8 387.13 154.69 386.16C153.6 385.66 152.04 385.06 151.27 384.08C150.8 383.48 150.59 382.59 150.31 381.89C149.85 380.74 149.41 379.59 148.98 378.43C148.06 375.95 147.18 373.46 146.34 370.95C142.32 358.96 139.01 346.71 136.31 334.35C133.76 322.65 131.54 310.65 131.31 298.64C131.27 296.42 131.31 294.2 131.49 291.99C131.53 291.55 130.92 291.35 130.64 291.64C125.67 296.65 122.01 302.7 117.33 307.96L117.94 307.88C107.97 302.19 97.9 296.68 87.93 290.98L88.16 291.54C91.78 268.99 102.95 247.46 118.55 230.86C122.57 226.58 126.93 222.63 131.67 219.16C132.18 218.78 131.69 217.92 131.17 218.3L131.15 218.34Z" fill="#BFBFBF"/>
<path d="M210 302L158.5 225.5C202.5 234.3 242.833 229.167 257.5 225.5L210 302Z" fill="#D9D9D9"/>
<rect x="203" y="231" width="1" height="62" fill="black"/>
<rect x="189" y="230" width="1" height="34" fill="black"/>
<rect x="215" y="231" width="1" height="61" fill="black"/>
<rect x="232" y="229" width="1" height="37" fill="black"/>
<path d="M202 230.875C196.085 230.875 175.202 228.458 166 227L193.62 256.5L202 230.875Z" fill="#E7EDEF" stroke="black"/>
<path d="M214 230.875C219.915 230.875 240.798 228.458 250 227L222.38 256.5L214 230.875Z" fill="#E7EDEF" stroke="black"/>
<path d="M171 227.5C166.5 227 154 224.5 147 223L210 302.5L171 227.5Z" fill="#3C4049" stroke="#0C0D0F" stroke-linecap="round" stroke-linejoin="round"/>
<path d="M247.5 227.5C251.5 226.5 262 224.5 269 222.5L210 302.5L247.5 227.5Z" fill="#3C4049" stroke="#0C0D0F" stroke-linecap="round" stroke-linejoin="round"/>
<path d="M186.619 226.963C196.219 224.163 202.786 228.13 205.619 230.463C207.286 229.796 211.719 228.863 214.119 230.463C219.719 226.463 230.452 226.796 234.619 227.463C235.786 231.963 237.319 242.163 234.119 246.963C223.119 245.963 217.119 240.463 214.119 237.963C211.719 239.563 207.452 238.63 205.619 237.963C201.786 241.296 193.019 247.963 188.619 247.963C184.619 245.963 181.619 231.963 186.619 226.963Z" fill="#262A2B"/>
<circle cx="208" cy="247" r="1.5" fill="#F8FEFC" stroke="#2C3230"/>
<circle cx="208" cy="261" r="1.5" fill="#F8FEFC" stroke="#2C3230"/>
<circle cx="208" cy="275" r="1.5" fill="#F8FEFC" stroke="#2C3230"/>
<circle cx="208" cy="289" r="1.5" fill="#F8FEFC" stroke="#2C3230"/>
<path d="M274.087 144.88C274.087 151.455 265.867 156.789 255.735 156.789C245.603 156.789 237.382 151.455 237.382 144.88H274.087Z" fill="white"/>
<path d="M255.735 157.038C245.404 157.038 237 151.585 237 144.881V144.633H274.47V144.881C274.47 151.585 266.066 157.038 255.735 157.038ZM237.772 145.129C237.979 151.446 245.954 156.542 255.742 156.542C265.53 156.542 273.506 151.446 273.712 145.129H237.78H237.772Z" fill="#231815"/>
<path d="M238 145C244.247 148.773 260.192 154.055 274 145H238Z" fill="url(#paint0_linear_772_978)"/>
<path d="M259 145C259 151.667 250 151.667 250 145H259Z" fill="#FEFFC0"/>
<path d="M253.322 144.632C253.322 148.6 250.838 151.814 247.773 151.814C244.708 151.814 242.223 148.6 242.223 144.632H253.322Z" fill="#231815"/>
<path d="M267.686 144.959L269.971 143M272.583 144.959L274.215 143.326M273.888 147.57C275.085 147.353 275.455 147.374 276.5 146.591M272.583 150.182L274.541 150.835M269.645 152.793L271.277 153.446" stroke="#191718"/>
<path d="M140.413 144.88C140.413 151.455 148.633 156.789 158.765 156.789C168.897 156.789 177.118 151.455 177.118 144.88H140.413Z" fill="white"/>
<path d="M158.765 157.038C169.096 157.038 177.5 151.585 177.5 144.881V144.633H140.03V144.881C140.03 151.585 148.434 157.038 158.765 157.038ZM176.728 145.129C176.521 151.446 168.546 156.542 158.758 156.542C148.97 156.542 140.994 151.446 140.788 145.129H176.72H176.728Z" fill="#231815"/>
<path d="M176.5 145C170.253 148.773 154.308 154.055 140.5 145H176.5Z" fill="url(#paint1_linear_772_978)"/>
<path d="M155.5 145C155.5 151.667 164.5 151.667 164.5 145H155.5Z" fill="#FEFFC0"/>
<path d="M161.178 144.632C161.178 148.6 163.662 151.814 166.727 151.814C169.792 151.814 172.277 148.6 172.277 144.632H161.178Z" fill="#231815"/>
<path d="M146.814 144.959L144.529 143M141.917 144.959L140.285 143.326M140.612 147.57C139.415 147.353 139.045 147.374 138 146.591M141.917 150.182L139.959 150.835M144.855 152.793L143.223 153.446" stroke="#191718"/>
<path d="M137.627 133.003C138.127 132.503 150.963 127.845 151.627 128.003C160.067 130.01 180.368 137.906 186.857 138.963C187.487 139.063 188.13 136.1 187.5 136C180.972 134.938 159.993 128.968 151.627 127.003C151.01 126.858 138.167 131.582 137.397 132.042C136.627 132.503 137.127 133.503 137.627 133.003Z" fill="#231815"/>
<path d="M276.859 133.003C276.359 132.503 263.523 127.845 262.859 128.003C254.418 130.01 234.118 137.906 227.629 138.963C226.999 139.063 226.37 136.6 227 136.5C233.528 135.438 254.493 128.968 262.859 127.003C263.476 126.858 276.319 131.582 277.089 132.042C277.858 132.503 277.359 133.503 276.859 133.003Z" fill="#231815"/>
<path d="M114.5 101.5C123.5 89.8331 168.1 55.4 188.5 53C153.5 37.4998 110.5 53.5 114.5 101.5Z" fill="url(#paint2_linear_772_978)"/>
<path d="M293.963 106.538C285.338 94.5913 241.856 58.7573 221.542 55.7097C257.018 41.3304 299.487 58.69 293.963 106.538Z" fill="url(#paint3_linear_772_978)"/>
<path d="M93.01 118.785C93.01 118.785 105.557 119.678 110.5 114.5C121 103.5 119.388 79.9093 121 74C122.612 68.0907 133.225 52.5393 158 49C175.5 46.5 175.5 53 184 53C195 57.5 221 57.5 233.5 53C245.5 49 258.973 53 262.5 55.5C269.678 60.5874 285.5 58 289 83C293.373 114.235 309.432 112.34 316.07 114.235C316.07 114.235 304.96 21.7451 197.34 27.2351C101.75 32.1051 93 118.785 93 118.785H93.01Z" fill="#4E4E4E"/>
<path d="M143 95.5442C151.5 93.8775 171.4 92.1442 183 98.5442C195.5 101.544 231 101.544 234 100.044C237 98.5442 256 92.5442 267.5 95.5442" stroke="black"/>
<path d="M143 104.544C151.5 102.878 171.4 101.144 183 107.544C195.5 110.544 231 110.544 234 109.044C237 107.544 256 101.544 267.5 104.544" stroke="black"/>
<path d="M184.99 203.41C183.181 202.185 176.428 195.521 173.193 192.101C182.62 193.764 189.553 191.269 193.989 189.605C197.539 188.274 201.384 189.05 202.862 189.605C205.173 190.16 210.682 190.936 214.231 189.605C218.668 187.941 222.827 190.437 231.423 191.269C238.3 191.934 243.346 189.143 245.01 187.664C244.64 189.513 243.088 195.145 237.246 200.142C232.129 204.52 224.86 204.671 221.995 203.469C217.928 202.545 206.998 200.538 199.686 203.965C190.813 208.124 187.36 205.015 184.99 203.41Z" fill="#915F3A" stroke="#140000"/>
<path d="M193.99 194.596C189.109 197.258 179.386 195.336 175.134 194.042C176.336 195.52 180.07 199.532 185.394 203.747C190.718 207.961 197.409 205.503 200.09 203.747C202.308 202.73 209.185 201.14 218.945 202.915C230.188 204.959 231.297 204.242 236.843 200.36C241.207 197.306 244.052 191.487 244.607 189.546C241.834 195.369 227.818 195.705 221.995 194.042C216.172 192.378 214.231 193.21 212.568 194.042C210.904 194.874 203.972 194.874 202.863 194.042C201.754 193.21 200.09 191.269 193.99 194.596Z" fill="url(#paint4_linear_772_978)" stroke="#140000" stroke-width="0.5"/>
<path d="M173.067 192.319C169.462 190.103 171.311 188.344 173.067 188.437C179.5 188.657 188.444 187.108 191.494 186.277C197.261 182.95 201.846 184.151 203.417 185.168C205.266 185.815 210.627 186.277 212.013 185.168C214.836 182.91 223.104 184.336 227.264 186C231.423 187.664 237.246 186.832 241.96 185.446C245.731 184.336 245.809 186.773 245.162 188.159C243.221 189.823 234.424 192.737 226.432 190.714C217.433 188.437 215.769 189.546 213.551 190.1C210.778 190.932 206.855 190.767 202.737 189.823C194.015 187.823 191.368 191.487 186.654 192.041C183.698 192.389 176.117 192.689 173.067 192.319Z" fill="#1F1E1C"/>
<path d="M194.378 159.125C194.842 157.268 198.828 153.322 200.763 151.58L217.308 151L222.533 159.125C225.145 162.608 223.887 165.51 222.533 166.67L218.469 170.153L222.533 167.541C229.499 169.862 226.79 174.506 224.564 176.537C221.372 176.537 217.598 179.149 214.696 181.18C210.516 186.287 205.408 183.308 203.376 181.18C201.537 179.632 196.816 176.363 192.636 175.666C187.412 174.796 190.895 167.541 194.958 167.541C199.893 169.572 198.441 167.251 195.829 165.51C193.217 163.768 193.797 161.447 194.378 159.125Z" fill="#995E3A" stroke="#333333" stroke-width="0.5"/>
<path d="M214.268 169.594C218.351 164.194 216.97 156.281 215.769 153H214.268C216.67 154.8 215.269 164.812 214.268 169.594Z" fill="#0A0000"/>
<path d="M202.26 153.281L204.362 153.844C201.24 158.794 203.861 167.344 205.563 171C200.159 163.688 200.259 154.969 202.26 153.281Z" fill="#0A0000"/>
<path d="M208.455 171.958C203.342 166.982 204.775 157.246 206.131 153C207.486 153.099 210.837 153.237 213.393 153C215.95 162.716 212.715 169.589 210.779 171.958C217.286 177.409 214.846 181.833 212.812 183.215C211.747 183.807 208.919 184.637 206.131 183.215C201.482 180.549 205.453 175.316 208.455 171.958Z" fill="#573824"/>
</g>
<defs>
<linearGradient id="paint0_linear_772_978" x1="256.74" y1="141" x2="256.74" y2="149.245" gradientUnits="userSpaceOnUse">
<stop stop-color="#D9D9D9"/>
<stop offset="1" stop-color="#737373" stop-opacity="0"/>
</linearGradient>
<linearGradient id="paint1_linear_772_978" x1="157.76" y1="141" x2="157.76" y2="149.245" gradientUnits="userSpaceOnUse">
<stop stop-color="#D9D9D9"/>
<stop offset="1" stop-color="#737373" stop-opacity="0"/>
</linearGradient>
<linearGradient id="paint2_linear_772_978" x1="129.5" y1="39.5" x2="151" y2="74" gradientUnits="userSpaceOnUse">
<stop stop-color="#EFC99C"/>
<stop offset="1" stop-color="#FFA66A" stop-opacity="0"/>
</linearGradient>
<linearGradient id="paint3_linear_772_978" x1="280.942" y1="44.0929" x2="258.355" y2="77.8917" gradientUnits="userSpaceOnUse">
<stop stop-color="#EFC99C"/>
<stop offset="1" stop-color="#FFA66A" stop-opacity="0"/>
</linearGradient>
<linearGradient id="paint4_linear_772_978" x1="209.946" y1="191.21" x2="210.224" y2="202.578" gradientUnits="userSpaceOnUse">
<stop stop-color="#D39D77"/>
<stop offset="1" stop-color="#915F3A" stop-opacity="0"/>
</linearGradient>
<clipPath id="clip0_772_978">
<rect width="425.2" height="425.2" fill="white"/>
</clipPath>
</defs>
</svg>
