<svg width="54" height="54" viewBox="0 0 54 54" fill="none" xmlns="http://www.w3.org/2000/svg">
<g filter="url(#filter0_di_331_36)">
<circle cx="27" cy="27" r="25" fill="#FFE162"/>
</g>
<path fill-rule="evenodd" clip-rule="evenodd" d="M24.844 5.10438C25.5536 5.03531 26.2728 5 27 5C27.7272 5 28.4464 5.03531 29.156 5.10438C29.7057 5.15787 30.1079 5.64685 30.0545 6.19654C30.001 6.74622 29.512 7.14847 28.9623 7.09497C28.317 7.03217 27.6624 7 27 7C26.3376 7 25.683 7.03217 25.0377 7.09497C24.488 7.14847 23.999 6.74622 23.9455 6.19654C23.892 5.64685 24.2943 5.15787 24.844 5.10438ZM21.859 6.60912C22.0191 7.13768 21.7205 7.69598 21.1919 7.85612C19.9276 8.23917 18.7161 8.74413 17.5711 9.35744C17.0842 9.6182 16.4782 9.43493 16.2174 8.94808C15.9566 8.46123 16.1399 7.85517 16.6268 7.59441C17.8866 6.91958 19.2201 6.36375 20.612 5.94204C21.1406 5.7819 21.6989 6.08056 21.859 6.60912ZM32.141 6.60912C32.3011 6.08056 32.8594 5.7819 33.388 5.94204C34.7799 6.36375 36.1134 6.91958 37.3732 7.59441C37.8601 7.85517 38.0434 8.46123 37.7826 8.94808C37.5218 9.43492 36.9158 9.6182 36.4289 9.35744C35.2839 8.74413 34.0724 8.23917 32.8081 7.85612C32.2795 7.69598 31.9809 7.13768 32.141 6.60912ZM39.5498 10.1313C39.9004 9.70461 40.5306 9.6429 40.9573 9.9935C42.0703 10.908 43.092 11.9297 44.0065 13.0427C44.3571 13.4694 44.2954 14.0996 43.8687 14.4502C43.4419 14.8008 42.8118 14.7391 42.4612 14.3124C41.6294 13.2999 40.7001 12.3706 39.6876 11.5388C39.2609 11.1882 39.1992 10.5581 39.5498 10.1313ZM14.4502 10.1313C14.8008 10.5581 14.7391 11.1882 14.3124 11.5388C13.2999 12.3706 12.3706 13.2999 11.5388 14.3124C11.1882 14.7391 10.5581 14.8008 10.1313 14.4502C9.70461 14.0996 9.6429 13.4694 9.9935 13.0427C10.908 11.9297 11.9297 10.908 13.0427 9.99351C13.4694 9.6429 14.0996 9.70461 14.4502 10.1313ZM45.0519 16.2174C45.5388 15.9566 46.1448 16.1399 46.4056 16.6268C47.0804 17.8866 47.6363 19.2201 48.058 20.612C48.2181 21.1406 47.9194 21.6989 47.3909 21.859C46.8623 22.0191 46.304 21.7205 46.1439 21.1919C45.7608 19.9276 45.2559 18.7161 44.6426 17.5711C44.3818 17.0842 44.5651 16.4782 45.0519 16.2174ZM8.94808 16.2174C9.43492 16.4782 9.6182 17.0842 9.35744 17.5711C8.74413 18.7161 8.23917 19.9276 7.85612 21.1919C7.69598 21.7205 7.13768 22.0191 6.60912 21.859C6.08056 21.6989 5.7819 21.1406 5.94204 20.612C6.36375 19.2201 6.91958 17.8866 7.59441 16.6268C7.85517 16.1399 8.46123 15.9566 8.94808 16.2174ZM6.19654 23.9455C6.74622 23.999 7.14847 24.488 7.09497 25.0377C7.03217 25.683 7 26.3376 7 27C7 27.6624 7.03217 28.317 7.09497 28.9623C7.14847 29.512 6.74622 30.001 6.19654 30.0545C5.64685 30.108 5.15787 29.7057 5.10438 29.156C5.03531 28.4464 5 27.7272 5 27C5 26.2728 5.03531 25.5536 5.10438 24.844C5.15787 24.2943 5.64685 23.8921 6.19654 23.9455ZM47.8035 23.9455C48.3532 23.892 48.8421 24.2943 48.8956 24.844C48.9647 25.5536 49 26.2728 49 27C49 27.7272 48.9647 28.4464 48.8956 29.156C48.8421 29.7057 48.3532 30.1079 47.8035 30.0545C47.2538 30.001 46.8515 29.512 46.905 28.9623C46.9678 28.317 47 27.6624 47 27C47 26.3376 46.9678 25.683 46.905 25.0377C46.8515 24.488 47.2538 23.999 47.8035 23.9455ZM6.60912 32.141C7.13768 31.9809 7.69598 32.2795 7.85612 32.8081C8.23917 34.0724 8.74413 35.2839 9.35744 36.4289C9.6182 36.9158 9.43493 37.5218 8.94808 37.7826C8.46123 38.0434 7.85517 37.8601 7.59441 37.3732C6.91958 36.1134 6.36375 34.7799 5.94204 33.388C5.7819 32.8594 6.08056 32.3011 6.60912 32.141ZM47.3909 32.141C47.9194 32.3011 48.2181 32.8594 48.058 33.388C47.6363 34.7799 47.0804 36.1134 46.4056 37.3732C46.1448 37.8601 45.5388 38.0434 45.0519 37.7826C44.5651 37.5218 44.3818 36.9158 44.6426 36.4289C45.2559 35.2839 45.7608 34.0724 46.1439 32.8081C46.304 32.2795 46.8623 31.9809 47.3909 32.141ZM43.8687 39.5498C44.2954 39.9004 44.3571 40.5306 44.0065 40.9573C43.092 42.0703 42.0703 43.092 40.9573 44.0065C40.5306 44.3571 39.9004 44.2954 39.5498 43.8687C39.1992 43.4419 39.2609 42.8118 39.6876 42.4612C40.7001 41.6294 41.6294 40.7001 42.4612 39.6876C42.8118 39.2609 43.4419 39.1992 43.8687 39.5498ZM10.1313 39.5498C10.5581 39.1992 11.1882 39.2609 11.5388 39.6876C12.3706 40.7001 13.2999 41.6294 14.3124 42.4612C14.7391 42.8118 14.8008 43.4419 14.4502 43.8687C14.0996 44.2954 13.4694 44.3571 13.0427 44.0065C11.9297 43.092 10.908 42.0703 9.99351 40.9573C9.6429 40.5306 9.70461 39.9004 10.1313 39.5498ZM16.2174 45.0519C16.4782 44.5651 17.0842 44.3818 17.5711 44.6426C18.7161 45.2559 19.9276 45.7608 21.1919 46.1439C21.7205 46.304 22.0191 46.8623 21.859 47.3909C21.6989 47.9194 21.1406 48.2181 20.612 48.058C19.2201 47.6363 17.8866 47.0804 16.6268 46.4056C16.1399 46.1448 15.9566 45.5388 16.2174 45.0519ZM37.7826 45.0519C38.0434 45.5388 37.8601 46.1448 37.3732 46.4056C36.1134 47.0804 34.7799 47.6363 33.388 48.058C32.8594 48.2181 32.3011 47.9194 32.141 47.3909C31.9809 46.8623 32.2795 46.304 32.8081 46.1439C34.0724 45.7608 35.2839 45.2559 36.4289 44.6426C36.9158 44.3818 37.5218 44.5651 37.7826 45.0519ZM23.9455 47.8035C23.999 47.2538 24.488 46.8515 25.0377 46.905C25.683 46.9678 26.3376 47 27 47C27.6624 47 28.317 46.9678 28.9623 46.905C29.512 46.8515 30.001 47.2538 30.0545 47.8035C30.108 48.3532 29.7057 48.8421 29.156 48.8956C28.4464 48.9647 27.7272 49 27 49C26.2728 49 25.5536 48.9647 24.844 48.8956C24.2943 48.8421 23.8921 48.3532 23.9455 47.8035Z" fill="#FFF7D5"/>
<g filter="url(#filter1_i_331_36)">
<path fill-rule="evenodd" clip-rule="evenodd" d="M13.4307 24.6203L22.7895 33.7828C23.3638 34.3451 24.2949 34.3451 24.8692 33.7828C25.4435 33.2205 25.4435 32.3089 24.8692 31.7467L18.0209 25.042H35.0589V36.5605C35.0589 37.3557 35.7173 38.0003 36.5295 38.0003C37.3417 38.0003 38.0001 37.3557 38.0001 36.5605V23.6028C38.0001 22.8076 37.3417 22.163 36.5295 22.163C36.5295 22.163 36.5294 22.163 36.5294 22.163V22.1625H18.0209L24.8692 15.4578C25.4435 14.8955 25.4435 13.9839 24.8692 13.4217C24.2949 12.8594 23.3638 12.8594 22.7895 13.4217L13.4307 22.5842C12.8564 23.1464 12.8564 24.058 13.4307 24.6203Z" fill="#FBBC1A"/>
</g>
<defs>
<filter id="filter0_di_331_36" x="0" y="0" width="54" height="54" filterUnits="userSpaceOnUse" color-interpolation-filters="sRGB">
<feFlood flood-opacity="0" result="BackgroundImageFix"/>
<feColorMatrix in="SourceAlpha" type="matrix" values="0 0 0 0 0 0 0 0 0 0 0 0 0 0 0 0 0 0 127 0" result="hardAlpha"/>
<feOffset/>
<feGaussianBlur stdDeviation="1"/>
<feComposite in2="hardAlpha" operator="out"/>
<feColorMatrix type="matrix" values="0 0 0 0 0 0 0 0 0 0 0 0 0 0 0 0 0 0 0.5 0"/>
<feBlend mode="normal" in2="BackgroundImageFix" result="effect1_dropShadow_331_36"/>
<feBlend mode="normal" in="SourceGraphic" in2="effect1_dropShadow_331_36" result="shape"/>
<feColorMatrix in="SourceAlpha" type="matrix" values="0 0 0 0 0 0 0 0 0 0 0 0 0 0 0 0 0 0 127 0" result="hardAlpha"/>
<feOffset/>
<feGaussianBlur stdDeviation="2"/>
<feComposite in2="hardAlpha" operator="arithmetic" k2="-1" k3="1"/>
<feColorMatrix type="matrix" values="0 0 0 0 0 0 0 0 0 0 0 0 0 0 0 0 0 0 0.25 0"/>
<feBlend mode="normal" in2="shape" result="effect2_innerShadow_331_36"/>
</filter>
<filter id="filter1_i_331_36" x="13" y="13" width="25.0001" height="27.0005" filterUnits="userSpaceOnUse" color-interpolation-filters="sRGB">
<feFlood flood-opacity="0" result="BackgroundImageFix"/>
<feBlend mode="normal" in="SourceGraphic" in2="BackgroundImageFix" result="shape"/>
<feColorMatrix in="SourceAlpha" type="matrix" values="0 0 0 0 0 0 0 0 0 0 0 0 0 0 0 0 0 0 127 0" result="hardAlpha"/>
<feOffset dy="2"/>
<feGaussianBlur stdDeviation="1"/>
<feComposite in2="hardAlpha" operator="arithmetic" k2="-1" k3="1"/>
<feColorMatrix type="matrix" values="0 0 0 0 0 0 0 0 0 0 0 0 0 0 0 0 0 0 0.25 0"/>
<feBlend mode="normal" in2="shape" result="effect1_innerShadow_331_36"/>
</filter>
</defs>
</svg>
