<?xml version="1.0" encoding="UTF-8"?>
<svg id="_レイヤー_2" data-name="レイヤー 2" xmlns="http://www.w3.org/2000/svg" xmlns:xlink="http://www.w3.org/1999/xlink" viewBox="0 0 425.2 425.2">
  <defs>
    <style>
      .cls-1, .cls-2, .cls-3, .cls-4, .cls-5, .cls-6, .cls-7, .cls-8, .cls-9, .cls-10, .cls-11, .cls-12, .cls-13, .cls-14, .cls-15, .cls-16, .cls-17, .cls-18 {
        stroke-width: 0px;
      }

      .cls-1, .cls-19 {
        fill: #e9c586;
      }

      .cls-2 {
        fill: #f2b1ae;
      }

      .cls-20, .cls-3, .cls-21 {
        fill: none;
      }

      .cls-20, .cls-22, .cls-23, .cls-24, .cls-21, .cls-19, .cls-25, .cls-26, .cls-27 {
        stroke-miterlimit: 10;
      }

      .cls-20, .cls-22, .cls-23, .cls-19, .cls-25 {
        stroke: #ba974c;
      }

      .cls-20, .cls-22, .cls-23, .cls-19, .cls-25, .cls-26 {
        stroke-width: 1.11px;
      }

      .cls-28 {
        clip-path: url(#clippath);
      }

      .cls-4 {
        fill: #2e3535;
      }

      .cls-5 {
        fill: #231815;
      }

      .cls-6 {
        fill: #ba974c;
      }

      .cls-22, .cls-26 {
        fill: #d9ae5e;
      }

      .cls-23, .cls-17 {
        fill: #fff;
      }

      .cls-24, .cls-15 {
        fill: #4c5354;
      }

      .cls-24, .cls-27 {
        stroke: #73797c;
      }

      .cls-7 {
        fill: #e9c686;
      }

      .cls-8 {
        fill: #73797c;
      }

      .cls-21 {
        stroke: #2e3535;
        stroke-width: 3.52px;
      }

      .cls-29 {
        clip-path: url(#clippath-1);
      }

      .cls-9 {
        fill: #d3aa5a;
      }

      .cls-10 {
        fill: #83b6c9;
      }

      .cls-11 {
        fill: #daae5e;
      }

      .cls-25 {
        fill: #d9ae5c;
      }

      .cls-12 {
        fill: #999899;
      }

      .cls-13 {
        fill: #cd5e54;
      }

      .cls-14 {
        fill: #cd5d54;
      }

      .cls-26 {
        stroke: #bb984d;
      }

      .cls-16 {
        fill: #5b6263;
      }

      .cls-27 {
        fill: #526e72;
      }

      .cls-18 {
        fill: #bb974c;
      }
    </style>
    <clipPath id="clippath">
      <path class="cls-3" d="M240.42,193.61l33.14-66.82,7.1,3.52-33.14,66.82-7.1-3.52ZM266.81,201.93l33.14-66.82-14.21-7.05-33.14,66.82,14.21,7.05Z"/>
    </clipPath>
    <clipPath id="clippath-1">
      <path class="cls-3" d="M240.42,193.61l33.14-66.82,7.1,3.52-33.14,66.82-7.1-3.52ZM266.81,201.93l33.14-66.82-14.21-7.05-33.14,66.82,14.21,7.05Z"/>
    </clipPath>
  </defs>
  <g id="_レイノーマルくん" data-name="レイノーマルくん">
    <g>
      <g>
        <path class="cls-26" d="M356.53,134.92c-.8,17.69-64.67,29.17-142.67,25.64-77.99-3.53-140.57-20.73-139.77-38.42"/>
        <g>
          <path class="cls-17" d="M138.53,222.37c-45.5-41.03-52.22-108.6-11.38-154.28,40.84-45.67,119.45-50.21,165.28-9.55,45.83,40.66,42.93,114.85,2.46,160.84,16.9,13.21,56.83,52.59,51.69,73.42-7.32,29.68-21.36,16.68-43.03,2.28,2.79,22.62-3.91,50.52-8.7,67.45-4.32,15.27-11.6,46.58-27.7,47.52-22.1-.17-23.69-6.65-28.29-19.86-4.95-14.25-7.09-26.08-18.7-26.17-11.65,0-11.54,14.37-15.13,25.45-3.99,12.32-.53,19.53-22.4,20.94-18.54,1.2-26.9-26.85-34.97-49.72-4.28-12.13-10.2-51.88-9.53-65.23-11.48,10.6-21.43,36.84-38.66,19.6-8.03-8.04-4.87-22.08-1.75-33,6.73-23.59,21.28-44.87,40.82-59.7"/>
          <path class="cls-12" d="M138.97,222.3c-13.44-12.17-24.13-27.24-30.76-44.14-6.33-16.15-8.85-33.75-7.01-51.01,1.87-17.52,8.25-34.38,18.36-48.8,9.98-14.23,23.3-25.75,38.72-33.74,15.16-7.86,32.03-12.34,49.05-13.42s34.27,1.22,50.3,7.08c16.08,5.88,30.87,15.45,42.31,28.25s19.08,28.36,22.82,44.94c3.7,16.42,3.6,33.62.22,50.09s-10.54,33.46-20.63,47.7c-2.47,3.48-5.12,6.83-7.93,10.04-.05.05,0,.12.04.16,7.28,5.7,14.05,12.08,20.51,18.69,7.91,8.09,15.45,16.7,21.73,26.13,4.81,7.22,10.09,16.09,9.84,25.09-.06,2.27-.67,4.45-1.31,6.62-.83,2.81-1.84,5.61-3.3,8.15-1.88,3.27-4.71,6.17-8.69,6.37-4.62.23-9.21-2.47-13.03-4.75-5.56-3.32-10.81-7.14-16.2-10.72-.11-.07-.97-.28-.94.02,2.13,17.79-.93,36.04-5.02,53.34-1.57,6.65-3.44,13.22-5.26,19.81-1.72,6.2-3.51,12.39-5.8,18.42s-5.02,12.16-9.25,17.07c-1.73,2.01-3.76,3.82-6.16,4.97-3.3,1.58-6.87,1.25-10.43.97-5.65-.44-11.86-1.58-15.7-6.15-3.06-3.64-4.43-8.51-5.95-12.92-3.52-10.15-7.04-29.55-22.01-26.47-5.89,1.21-8.18,7.09-9.6,12.28-.91,3.33-1.57,6.73-2.46,10.07-.73,2.74-1.64,5.42-2.28,8.19-.92,3.94-1.54,8.43-4.76,11.24-1.97,1.72-4.54,2.6-7.04,3.19-3.7.87-7.89,1.54-11.68,1.11-6.59-.75-11.56-5.78-15.13-10.99-4.18-6.11-7.11-13.04-9.75-19.92-2.61-6.79-5.24-13.7-7.32-20.68-1.62-5.43-2.7-11.02-3.72-16.59-2.41-13.12-4.4-26.48-5.04-39.82-.11-2.21-.17-4.43-.07-6.64.02-.32-.82-.28-.97-.14-6.12,5.72-10.24,13.21-16.09,19.18-2.59,2.64-5.76,5.29-9.53,5.9-4.7.76-8.99-2.26-12.12-5.45-7.93-8.1-4.89-21.29-2.24-30.97,3.12-11.4,7.88-22.26,14.27-32.21,7.23-11.25,16.39-21.22,27.02-29.33.3-.23-.63-.44-.84-.28-19.96,15.23-34.5,36.82-41.24,61-2.72,9.77-6.03,23.21,1.81,31.56,2.88,3.07,6.71,5.82,11.02,6.17,3.5.29,6.73-1.13,9.46-3.21,7.88-6.02,12.25-15.46,19.44-22.18l-.97-.14c-.25,5.38.27,10.82.8,16.17.71,7.18,1.68,14.34,2.8,21.46,1.03,6.49,2.18,12.96,3.66,19.36,1.35,5.83,3.36,11.4,5.34,17.04,2.7,7.68,5.46,15.39,9.17,22.64,2.9,5.67,6.5,11.52,11.83,15.22s11,3.62,17.13,2.74c4.69-.67,10.14-1.92,12.84-6.23,2.26-3.62,2.6-8.26,3.72-12.29.92-3.3,1.89-6.56,2.67-9.9s1.51-6.76,2.85-9.93c1.22-2.9,3.11-5.7,6.17-6.86,3.44-1.31,7.69-.59,10.59,1.62,5.48,4.17,7.36,12.27,9.4,18.46,1.81,5.49,3.35,11.61,6.43,16.58,2.45,3.95,6.25,6.23,10.69,7.37,3.34.86,6.81,1.17,10.25,1.31,2.75.11,5.29.1,7.86-1,5.19-2.22,8.73-7.21,11.38-11.99,6.23-11.22,9.2-24.03,12.61-36.31,4.75-17.1,8.6-34.81,8.87-52.62.07-4.39-.12-8.78-.64-13.14l-.94.02c4.66,3.1,9.23,6.35,13.96,9.34,3.62,2.29,7.43,4.6,11.58,5.77,2.81.8,5.89,1,8.6-.27,3.6-1.68,5.73-5.45,7.21-8.96,1.8-4.29,3.38-9.05,3-13.76-.32-4.06-1.7-8.01-3.37-11.7-4.37-9.62-10.98-18.22-17.82-26.2s-14.39-15.65-22.29-22.74c-1.6-1.43-3.22-2.85-4.86-4.23-.71-.6-1.42-1.19-2.14-1.77-.3-.25-.75-.5-1.01-.81-.02-.02-.42-.27-.43-.34-.08-.37.57-.87.8-1.13,4-4.66,7.64-9.62,10.9-14.83,12.65-20.22,19.52-44.08,19.28-67.95s-7.49-46.57-22.1-64.93-35.21-30.45-57.57-36.2c-22.21-5.71-46.03-5.2-68.02,1.28-22.64,6.68-43.07,19.89-57.49,38.68-14.81,19.31-22.55,43.38-21.66,67.71.9,24.48,10.33,48.2,25.82,67.1,3.86,4.71,8.08,9.1,12.59,13.19.2.18,1.15.12.88-.13h0Z"/>
        </g>
        <path class="cls-22" d="M141.94,340c-1.88,12.24-2.91,35.99.52,41.56,4.81,7.82,60.94,7.07,70.2.26,3.3-2.43,3.69-13.86,7.74-14.46,4.24-.63,5.7,12.46,9.3,14.79,7.71,4.99,64.48,8.06,70.97.7,6.09-6.92,3.57-37.98,1.03-46.2-11.77-38.18-153.67-36.13-159.75,3.36Z"/>
        <rect class="cls-25" x="196.83" y="14.75" width="29.88" height="14.39" rx="7.19" ry="7.19"/>
        <g>
          <path class="cls-9" d="M109.98,79.93c58.35-31.85,138.1-26.61,203.84,3.73.48.22,3.82,8.06,5.19,12.3-68.91-26.5-142.74-29.04-212.83-5.82.34-.52,2.97-7.97,3.75-10.11"/>
          <path class="cls-6" d="M110.25,80.4c12.6-6.86,26.11-11.96,40.02-15.44s29.06-5.48,43.82-5.94c15.16-.48,30.37.52,45.36,2.81,15.2,2.32,30.19,5.95,44.79,10.77,7.41,2.45,14.73,5.2,21.91,8.26,1.82.77,3.62,1.57,5.42,2.38.38.17.76.35,1.14.52.21.1.45.18.65.3.32.2.15.07.1.02.17.16.32.55.44.78,1.22,2.37,2.2,4.88,3.16,7.36.5,1.28.97,2.57,1.4,3.88l.68-.68c-13.4-5.14-27.11-9.45-41.07-12.82-13.62-3.29-27.44-5.69-41.37-7.16s-28.09-2.01-42.16-1.58c-13.97.43-27.9,1.81-41.69,4.11s-28.05,5.7-41.7,9.97c-1.72.54-3.43,1.09-5.14,1.65l.62.81c.79-1.32,1.2-3.02,1.73-4.46.7-1.93,1.38-3.86,2.08-5.78.24-.67-.83-.96-1.07-.29-.67,1.85-1.32,3.7-1.99,5.55-.52,1.43-.91,3.12-1.7,4.43-.24.4.16.97.62.81,13.49-4.46,27.27-8.03,41.23-10.63,13.85-2.58,27.87-4.21,41.94-4.87,13.93-.65,27.9-.36,41.78.86,14.03,1.24,27.98,3.43,41.72,6.53,13.84,3.12,27.47,7.16,40.8,12.04,1.69.62,3.38,1.25,5.06,1.9.39.15.8-.3.68-.68-.9-2.77-2-5.48-3.14-8.16-.47-1.1-.95-2.21-1.49-3.27-.4-.8-.64-1.12-1.47-1.5-7.07-3.24-14.27-6.18-21.58-8.82-14.81-5.35-30.08-9.46-45.59-12.22-15.25-2.72-30.75-4.14-46.25-4.04-14.93.09-29.87,1.6-44.46,4.79-14.25,3.11-28.16,7.86-41.2,14.41-1.57.79-3.12,1.61-4.67,2.45-.63.34-.07,1.3.56.96h0Z"/>
        </g>
        <path class="cls-25" d="M104.1,101.21c4.54-47.24,62.71-82.9,115.22-78.97,53.84,4.03,107.35,52.69,102.81,99.92"/>
        <path class="cls-22" d="M74.1,122.14c1.35-29.87,65.77-50.7,143.8-47.16,78.04,3.53,139.98,30.08,138.63,59.95"/>
        <g>
          <path class="cls-11" d="M212.79,237.72l85.98-17.5c17.64,8.11,34.49,32.4,46.6,47.57-7.66,22.59-18.33,28.79-36.91,40.93,1.11,11.87-.4,25.62-1.62,34.87-46.78-2.68-169.69,1.78-169.69,1.78-1.53-12.16-2-23.66-.99-35.98-19.16-9.97-30.46-18.36-44.73-32.63,12.11-15.17,29.47-46.28,47.11-54.39l74.26,15.35Z"/>
          <path class="cls-6" d="M213.06,237.93c7.14-1.45,14.27-2.91,21.41-4.36,13.46-2.74,26.92-5.48,40.37-8.22,5.43-1.11,10.87-2.21,16.3-3.32,2.54-.52,5.24-.84,7.73-1.57.04-.01.11-.03.15-.03-.81,0,0,.22.23.33.6.29,1.19.6,1.78.93,2.23,1.23,4.34,2.65,6.37,4.17,4.29,3.23,8.21,6.94,11.91,10.82,7.76,8.14,14.59,17.11,21.48,25.98.72.93,1.44,1.85,2.16,2.77.35.44.7.89,1.05,1.33.6.76.76,1.15.41,2.14-.91,2.59-1.93,5.14-3.1,7.62-1.9,4.03-4.21,7.87-7.01,11.33-5.48,6.77-12.68,11.76-19.89,16.52-2.14,1.41-4.28,2.8-6.43,4.2-.05.02-.07.06-.08.1,1.05,11.61-.11,23.35-1.62,34.87l.57-.17c-11.49-.65-23-.78-34.51-.84-14.38-.07-28.76.06-43.14.27s-28.65.51-42.97.87c-11.19.28-22.38.6-33.57.95-3.51.11-7.03.23-10.54.34-1.07.04-2.15.07-3.22.11-.52.02-1.16-.06-1.67.06-.06.01-.14,0-.21,0l.68.27c-1.49-11.95-1.96-23.97-.99-35.98,0-.08-.09-.14-.15-.17-8.19-4.27-16.19-8.89-23.67-14.32-7.06-5.13-13.58-10.94-19.78-17.07-.27-.27-1.06-.8-.99-1.23.04-.25.54-.69.69-.88.54-.7,1.07-1.4,1.6-2.1,1.07-1.44,2.13-2.89,3.17-4.35,2.34-3.29,4.64-6.61,6.95-9.92,4.9-7.02,9.88-14.02,15.42-20.56s11.43-12.76,19.05-16.3l-.63.05c8.38,1.73,16.76,3.46,25.14,5.2,13.34,2.76,26.68,5.51,40.01,8.27,3.04.63,6.07,1.25,9.11,1.88.47.1,1.07-.25.33-.4-5.04-1.04-10.09-2.08-15.13-3.13-10.29-2.13-20.58-4.25-30.87-6.38-8.28-1.71-16.56-3.42-24.84-5.13-1.37-.28-3.22-1.07-4.54-.42-6.14,2.97-11.26,7.91-15.8,12.9-10.56,11.6-18.72,25.06-28.04,37.61-.92,1.25-1.86,2.48-2.83,3.69-.05.07,0,.13.04.17,7.58,7.57,15.6,14.66,24.45,20.7,4.46,3.04,9.08,5.84,13.8,8.46,1.32.73,2.65,1.46,3.98,2.17.61.32,1.46.6,1.98,1.04.72.62.31,2,.26,2.88-.22,3.41-.33,6.83-.33,10.25,0,7.69.58,15.36,1.52,22.99.03.25.51.28.68.27,4.19-.15,8.39-.29,12.58-.42,10.56-.34,21.12-.65,31.68-.92,13.99-.37,27.99-.68,41.98-.91,14.54-.24,29.08-.4,43.62-.38,12.06.02,24.13.11,36.17.67,1.17.05,2.34.11,3.51.18.13,0,.54.03.57-.17.84-6.36,1.52-12.74,1.83-19.15.18-3.62.23-7.25.1-10.87-.03-.74-.06-1.49-.11-2.23s-.43-2.12.03-2.74c.37-.49,1.38-.9,1.9-1.24.61-.4,1.23-.8,1.84-1.2,8.05-5.25,16.27-10.62,22.38-18.17,3.18-3.93,5.71-8.34,7.75-12.96.51-1.16.99-2.33,1.45-3.51.28-.74.56-1.47.82-2.22.11-.32.23-.64.34-.96.19-.54.2-.46-.02-.9-.53-1.08-1.67-2.12-2.42-3.07-.92-1.18-1.84-2.36-2.75-3.54-7.43-9.58-14.88-19.26-23.58-27.75-4.08-3.98-8.46-7.72-13.34-10.69-1.15-.7-2.34-1.36-3.55-1.96-.52-.25-.98-.55-1.57-.51-.22.01-.45.09-.66.13-3.72.76-7.44,1.52-11.17,2.27-14.39,2.93-28.79,5.86-43.18,8.79-10.16,2.07-20.31,4.13-30.47,6.2-.16.03-.33.07-.49.1-.7.14.18.5.52.43Z"/>
        </g>
        <g>
          <path class="cls-20" d="M150.05,291.94v-23.83c0-2.89,2.35-5.24,5.24-5.24h31.57c2.89,0,5.24,2.35,5.24,5.24v23.83c0,2.89-2.65,3.94-5.24,5.24-3.25,1.63-11.6,5.53-15.78,5.53s-12.86-3.92-15.78-5.53c-2.53-1.4-5.24-2.35-5.24-5.24Z"/>
          <path class="cls-6" d="M150.46,269.39c2.19,3.02,5.65,5.07,8.87,6.81,3.02,1.63,6.16,3.02,9.36,4.26.59.23,1.18.48,1.78.66.93.29,1.61-.04,2.44-.36,2.96-1.14,5.87-2.42,8.69-3.89,1.98-1.03,3.93-2.15,5.74-3.46,1.6-1.15,3.17-2.44,4.32-4.06.36-.51-1.73-.95-2.11-.42-2.06,2.9-5.35,4.87-8.4,6.56-2.88,1.59-5.88,2.97-8.94,4.18-.63.25-1.26.5-1.9.72l1.34.05c-1.75-.61-3.41-1.29-5.09-2.02-3.4-1.48-6.78-3.14-9.81-5.28-1.53-1.08-3.04-2.29-4.15-3.82-.27-.38-.9-.44-1.33-.43-.16,0-1.08.12-.82.48h0Z"/>
          <path class="cls-6" d="M170.33,281.1c.16,6.88.33,13.77.49,20.65,0,.33,1.11.39,1.1.1-.16-6.88-.33-13.77-.49-20.65,0-.33-1.11-.39-1.1-.1h0Z"/>
        </g>
        <path class="cls-5" d="M139.17,223.97c3.25,8.08,7.7,15.64,13.14,22.44s11.89,12.83,19.05,17.8c4.05,2.81,8.33,5.28,12.8,7.38.58.27,1.09-.59.5-.86-7.79-3.65-15.03-8.46-21.43-14.21-6.43-5.77-12.02-12.46-16.54-19.82-2.54-4.14-4.74-8.48-6.55-12.99-.24-.59-1.2-.33-.96.27h0Z"/>
        <g>
          <path class="cls-1" d="M215.87,235.35l-75.15-10.72c15.49,12.02,30.75,23.95,48.13,30.48,12.25-7.12,19.38-9.46,27.56-16.75.96-.85-2.77-1.26-1.81-2.11,7.08,10.59,13.59,12.95,25.69,20.41,14.29-7.85,36.15-29.6,56.94-41.03l-81.35,19.73Z"/>
          <path class="cls-6" d="M216.04,235.15c-2.49-.35-4.97-.71-7.46-1.06-5.97-.85-11.95-1.71-17.92-2.56-7.26-1.04-14.51-2.07-21.77-3.11l-18.75-2.68c-3.04-.43-6.07-.9-9.11-1.3-.04,0-.09-.01-.13-.02-.11-.02-.99,0-.65.27,11.23,8.71,22.48,17.57,34.99,24.41,2.98,1.63,6.03,3.14,9.15,4.48.75.32,1.5.64,2.26.94.66.27,1.48.75,2.19.8.64.05,1.28-.53,1.81-.83.84-.48,1.68-.95,2.53-1.42,5.12-2.83,10.43-5.35,15.42-8.42,2.56-1.57,5-3.32,7.29-5.27.64-.54,1.83-1.18.76-1.85-.32-.2-1.99-.7-1.5-1.19l-1.06-.09c2.36,3.51,5.1,6.74,8.37,9.43s6.58,4.62,10.04,6.66c2.48,1.46,4.96,2.92,7.41,4.43.22.13.65.15.87.03,7-3.87,13.3-9.04,19.54-14,7.8-6.19,15.52-12.5,23.64-18.27,4.44-3.15,8.99-6.14,13.76-8.77.41-.22-.7-.38-.84-.34-2.7.66-5.41,1.31-8.11,1.97-6.49,1.57-12.98,3.15-19.48,4.72-7.8,1.89-15.6,3.78-23.4,5.67-6.79,1.65-13.57,3.29-20.36,4.94l-6.67,1.62c-1.04.25-2.2.4-3.2.78-.04.02-.09.02-.13.03-.25.06-.16.2-.03.31.17.15.58.12.78.07,2.7-.66,5.41-1.31,8.11-1.97,6.49-1.57,12.98-3.15,19.48-4.72,7.8-1.89,15.6-3.78,23.4-5.67,6.79-1.65,13.57-3.29,20.36-4.94l6.67-1.62c1.03-.25,2.22-.38,3.2-.78.04-.02.09-.02.13-.03l-.84-.34c-8.61,4.75-16.56,10.63-24.31,16.65s-14.65,11.83-22.21,17.45c-3.34,2.49-6.76,4.91-10.42,6.93l.87.03c-7.14-4.4-15-8.12-20.83-14.29-1.75-1.86-3.3-3.89-4.73-6.01-.17-.26-.85-.31-1.06-.09-.94.95,1.91,1.27,1.95,1.9.02.29-.82.81-1.02.99-.51.44-1.03.87-1.56,1.29-.99.78-2,1.53-3.04,2.25-4.08,2.81-8.5,5.05-12.87,7.36-3.08,1.62-6.13,3.28-9.14,5.03h.76c-13.85-5.24-26.14-13.76-37.87-22.64-3.38-2.56-6.72-5.15-10.06-7.75l-.65.27c2.49.35,4.97.71,7.46,1.06l17.92,2.56c7.26,1.04,14.51,2.07,21.77,3.11,6.25.89,12.5,1.78,18.75,2.68,3.04.43,6.07.9,9.11,1.3.04,0,.09.01.13.02.14.02.62.09.69-.09s-.21-.28-.36-.3Z"/>
        </g>
        <g>
          <path class="cls-20" d="M245.39,291.94v-23.83c0-2.89,2.35-5.24,5.24-5.24h31.57c2.89,0,5.24,2.35,5.24,5.24v23.83c0,2.89-2.65,3.94-5.24,5.24-3.25,1.63-11.6,5.53-15.78,5.53s-12.86-3.92-15.78-5.53c-2.53-1.4-5.24-2.35-5.24-5.24Z"/>
          <path class="cls-6" d="M245.81,269.39c2.19,3.02,5.65,5.07,8.87,6.81,3.02,1.63,6.16,3.02,9.36,4.26.59.23,1.18.48,1.78.66.93.29,1.61-.04,2.44-.36,2.96-1.14,5.87-2.42,8.69-3.89,1.98-1.03,3.93-2.15,5.74-3.46,1.6-1.15,3.17-2.44,4.32-4.06.36-.51-1.73-.95-2.11-.42-2.06,2.9-5.35,4.87-8.4,6.56-2.88,1.59-5.88,2.97-8.94,4.18-.63.25-1.26.5-1.9.72l1.34.05c-1.75-.61-3.41-1.29-5.09-2.02-3.4-1.48-6.78-3.14-9.81-5.28-1.53-1.08-3.04-2.29-4.15-3.82-.27-.38-.9-.44-1.33-.43-.16,0-1.08.12-.82.48h0Z"/>
          <path class="cls-6" d="M265.67,281.1c.16,6.88.33,13.77.49,20.65,0,.33,1.11.39,1.1.1-.16-6.88-.33-13.77-.49-20.65,0-.33-1.11-.39-1.1-.1h0Z"/>
        </g>
        <path class="cls-6" d="M218.06,241.74c.23,12.91.29,25.82.33,38.73.04,13.53.05,27.06.14,40.59.05,7.08.12,14.16.25,21.24,0,.33,1.11.39,1.1.1-.23-12.91-.29-25.82-.33-38.73-.04-13.53-.05-27.06-.14-40.59-.05-7.08-.12-14.16-.25-21.24,0-.33-1.11-.39-1.1-.1h0Z"/>
        <path class="cls-14" d="M134.37,225.69c17.28,20.84,54.78,25.15,77.4,10.28-19.56-15.81-52.75-23.81-76.45-15.38l-.95,5.1Z"/>
        <path class="cls-5" d="M294.92,222.69c-3.53,7.59-8.04,14.72-13.39,21.17s-11.51,12.22-18.3,17.12c-3.83,2.76-7.85,5.23-12.04,7.41-.57.3-.07,1.16.5.86,7.48-3.88,14.44-8.75,20.69-14.4s11.78-12.1,16.42-19.14c2.63-3.99,4.97-8.18,6.98-12.51.27-.58-.59-1.09-.86-.5h0Z"/>
        <path class="cls-13" d="M298.77,220.59c-16.26,24.74-59.65,33.09-82.9,14.76,22.15-13.9,56.49-24.02,82.1-18.72l.8,3.96Z"/>
        <path class="cls-14" d="M217.72,236.71c13.13,20.14,14.99,28.51,7.92,34.39-4.2,3.5-11.06,3.19-12.48-1.2-.49-1.51,0-2.92-1.39-16.76"/>
        <circle class="cls-19" cx="211.66" cy="307.6" r="3.67"/>
        <circle class="cls-19" cx="211.66" cy="331.4" r="3.67"/>
        <path class="cls-14" d="M213.81,238.38c-13.81,13.81-17.32,51.47-5.82,70.63,15.89-23.05,12.62-59.61,5.99-70.66"/>
        <path class="cls-14" d="M214.01,244.29c7.21-.43,6.77-14.07-.45-14.03s-7.51,13.68-.3,14.03"/>
        <g>
          <path class="cls-7" d="M308.1,309.01c16.67-8.91,30.98-21.27,38.11-42.61-3.23-4.16-4.91-7.04-8.36-10.4-9.67,17.14-18.7,24.49-32.03,32.86l2.29,20.14Z"/>
          <path class="cls-18" d="M309.03,309.31c7.84-4.2,15.29-9.24,21.59-15.55,6.69-6.69,11.86-14.72,15.32-23.52.26-.66.51-1.32.75-1.99.13-.35.25-.71.38-1.07.14-.42.32-.63.06-1-.89-1.27-1.87-2.49-2.79-3.74-1.7-2.32-3.47-4.56-5.53-6.58-.32-.31-1.74-.57-2.02-.07-3.24,5.73-6.9,11.26-11.28,16.19-3.7,4.16-7.89,7.82-12.39,11.08-2.68,1.94-5.44,3.74-8.24,5.5-.09.04-.15.11-.17.21.67,5.87,1.34,11.74,2,17.62.1.84.19,1.68.29,2.52.08.69,2.27.73,2.2.19-.67-5.87-1.34-11.74-2-17.62-.1-.84-.19-1.68-.29-2.52l-.17.21c4.84-3.04,9.6-6.26,13.95-9.98s8.41-8.19,11.85-12.96c2.31-3.21,4.41-6.57,6.35-10.02l-2.02-.07c1.82,1.78,3.41,3.74,4.92,5.79.78,1.06,1.56,2.13,2.35,3.19.18.25.37.49.56.73.32.41.38.54.21,1.04-.21.61-.43,1.23-.65,1.83-1.7,4.57-3.85,8.97-6.47,13.09-4.74,7.47-10.99,13.86-18.11,19.09-3.97,2.91-8.18,5.48-12.51,7.8-.44.24.1.55.34.64.44.16,1.09.2,1.52-.03Z"/>
        </g>
        <path class="cls-6" d="M302.06,278.95c2.2,8.16,3.68,16.51,4.51,24.92s1.03,17.01.56,25.51c-.26,4.72-.72,9.44-1.39,14.12-.08.59,2.11.84,2.2.19,1.2-8.41,1.74-16.91,1.63-25.41s-.87-17.09-2.32-25.52c-.8-4.66-1.82-9.29-3.05-13.86-.15-.57-2.33-.64-2.15.05h0Z"/>
        <g>
          <path class="cls-1" d="M136.16,309.39c-16.43-6.53-27.09-13.21-44.73-32.63,2.57-4.66,5.7-7.79,8.91-12.22,12.85,15.29,26.02,22.49,37.75,30.21"/>
          <path class="cls-6" d="M136.75,309.06c-5.92-2.36-11.72-5.03-17.15-8.38-5.97-3.69-11.4-8.17-16.48-13-3.72-3.54-7.27-7.26-10.73-11.06l.08.35c2.47-4.43,5.94-8.14,8.91-12.22l-2.13-.19c4.53,5.38,9.57,10.32,15.06,14.73,4.71,3.78,9.71,7.17,14.78,10.44,2.67,1.72,5.36,3.42,8.02,5.17.43.28.99.37,1.49.29.22-.04.88-.28.45-.57-4.76-3.13-9.62-6.11-14.31-9.33-5.22-3.58-10.23-7.46-14.84-11.79-3-2.82-5.84-5.82-8.49-8.98-.36-.42-1.74-.72-2.13-.19-2.97,4.08-6.45,7.78-8.91,12.22-.09.16-.03.23.08.35,5.73,6.3,11.72,12.44,18.37,17.78,5.09,4.08,10.59,7.61,16.43,10.51,3.37,1.67,6.82,3.14,10.32,4.53.4.16,1.15.24,1.52-.03.4-.29-.07-.53-.34-.64h0Z"/>
        </g>
        <path class="cls-6" d="M139.95,281.44c-2.17,8.07-3.71,16.3-4.58,24.6s-1.1,16.76-.66,25.14c.25,4.7.71,9.39,1.38,14.06.1.7,2.28.71,2.2.19-1.18-8.27-1.71-16.63-1.58-24.98s.93-16.77,2.38-25.03c.81-4.64,1.84-9.24,3.06-13.79.14-.52-2.02-.86-2.2-.19h0Z"/>
        <path class="cls-2" d="M203.95,194.28c5.88,6.9,18.72,3.88,21.19-4.72.59-2.06-2.61-2.94-3.2-.88-1.82,6.35-11.43,8.2-15.64,3.26-.58-.68-1.75-.6-2.35,0-.68.68-.58,1.66,0,2.35h0Z"/>
        <path class="cls-23" d="M101.35,123.83c4.98-11.82,51.48-20.96,113.34-17.93,61.86,3.03,107.79,15.9,111.17,28.6"/>
        <g>
          <path class="cls-1" d="M106.5,89.05c1.87-7.28,5.05-12.11,5.5-13.15,77.93-21.47,118.93-16.43,198.08,1.26,3.84,5.84,6.99,12.02,8.29,18.53-33.55-16.04-121.7-34.16-211.87-6.66v.02Z"/>
          <path class="cls-6" d="M107.04,89.2c.92-3.5,2.22-6.88,3.88-10.1.42-.82.82-1.76,1.36-2.52.05-.07.09-.26.16-.32s.91-.17,1.11-.22c1.12-.31,2.25-.61,3.38-.91,8.33-2.22,16.71-4.26,25.15-6.03,14.76-3.09,29.7-5.34,44.76-6.28,13.86-.87,27.76-.61,41.59.6,14.84,1.3,29.56,3.65,44.18,6.43,8.28,1.58,16.54,3.29,24.78,5.08,2.17.47,4.33.94,6.49,1.42,1.07.24,2.14.47,3.21.71.54.12,1.08.24,1.62.36.8.18,1.08.3,1.53.99,2.33,3.64,4.43,7.47,5.92,11.54.7,1.92,1.26,3.88,1.67,5.87l.81-.62c-8.18-3.9-16.83-6.83-25.54-9.31-11.74-3.34-23.73-5.82-35.79-7.66-14.38-2.19-28.9-3.46-43.44-3.85-16.39-.44-32.81.24-49.09,2.09-17.55,1.99-34.95,5.33-51.96,10.12-2.17.61-4.32,1.24-6.47,1.9-.25.08-.39.28-.41.53v.02c-.05.71,1.06.71,1.11,0v-.02c-.13.18-.27.36-.4.53,17.07-5.2,34.58-8.94,52.27-11.26,16.25-2.13,32.65-3.08,49.03-2.91,14.8.15,29.61,1.21,44.27,3.22,12.28,1.69,24.49,4.03,36.48,7.22,9.14,2.43,18.23,5.32,26.89,9.17.84.37,1.67.76,2.5,1.16.44.21.91-.14.81-.62-.85-4.15-2.39-8.11-4.33-11.86-1-1.94-2.1-3.82-3.28-5.66-.22-.35-.5-.99-.82-1.25-.28-.23-.72-.25-1.06-.32-1.21-.27-2.43-.54-3.64-.81-8.62-1.91-17.25-3.76-25.91-5.49-15.16-3.02-30.41-5.66-45.79-7.28-14.13-1.48-28.35-2.04-42.55-1.4-15.05.68-30.01,2.67-44.79,5.57-8.46,1.66-16.87,3.61-25.22,5.75-2.29.59-4.58,1.19-6.87,1.81-.53.14-1.06.29-1.6.43-.39.11-1,.14-1.34.39-.24.18-.34.49-.48.75-1.21,2.27-2.4,4.52-3.36,6.91-.76,1.9-1.4,3.84-1.92,5.83-.18.69.89.98,1.07.29Z"/>
        </g>
        <path class="cls-6" d="M195.05,25.85c-10.8,4.41-18.67,14.8-20.54,26.26-.52,3.2-.57,6.44-.12,9.65.1.7,1.16.4,1.07-.29-1.54-11.06,3.36-22.54,11.84-29.66,2.41-2.03,5.14-3.69,8.05-4.89.65-.27.37-1.34-.29-1.07h0Z"/>
        <path class="cls-6" d="M228.69,28.58c10.02,4.68,16.91,15.01,18,25.95.31,3.08.15,6.2-.51,9.23-.15.69.92.99,1.07.29,2.43-11.2-1.77-23.33-10.11-31.08-2.34-2.17-5-3.99-7.89-5.34-.64-.3-1.2.65-.56.96h0Z"/>
        <g>
          <path class="cls-4" d="M135.18,193.43c-8.22-4.41-11.56-12.51-13.21-23.25-1.4-9.05-3.54-20.49,2.94-26.96,14.12-14.12,74.66-12.2,81.93,2.35,6.93,13.88-14.17,25.97-31.13,37.88-10.63,7.46-30.77,15.21-40.52,9.98Z"/>
          <path class="cls-4" d="M288.71,194.37c8.22-4.41,11.56-12.51,13.21-23.25,1.4-9.05,3.54-20.49-2.94-26.96-14.12-14.12-74.66-12.2-81.93,2.35-6.93,13.88,14.17,25.97,31.13,37.88,10.63,7.46,30.77,15.21,40.52,9.98Z"/>
          <line class="cls-21" x1="187.41" y1="147.73" x2="226.51" y2="147.73"/>
          <path class="cls-4" d="M182.27,138.23c12.91-4.72,27.05-5.89,40.56-3.39,3.82.71,7.59,1.71,11.26,2.99.72.25,1.02-.89.31-1.13-13.11-4.56-27.4-5.5-41.01-2.8-3.89.77-7.71,1.84-11.43,3.21-.7.26-.4,1.39.31,1.13h0Z"/>
          <g class="cls-28">
            <path class="cls-17" d="M285.79,189.47c7.09-3.87,9.96-10.94,11.36-20.32,1.19-7.9,3.01-17.89-2.59-23.53-12.23-12.3-64.52-10.49-70.76,2.23-5.96,12.13,12.29,22.64,26.97,33,9.19,6.49,26.61,13.21,35.02,8.63Z"/>
          </g>
          <g class="cls-29">
            <path class="cls-17" d="M285.79,189.47c7.09-3.87,9.96-10.94,11.36-20.32,1.19-7.9,3.01-17.89-2.59-23.53-12.23-12.3-64.52-10.49-70.76,2.23-5.96,12.13,12.29,22.64,26.97,33,9.19,6.49,26.61,13.21,35.02,8.63Z"/>
          </g>
        </g>
        <path class="cls-5" d="M54.32,274.75c12.12,11.01,24.24,22.01,36.35,33.02,3.44,3.13,6.89,6.26,10.33,9.39.48.43,1.18-.27.71-.71-12.12-11.01-24.24-22.01-36.35-33.02-3.44-3.13-6.89-6.26-10.33-9.39-.48-.43-1.18.27-.71.71h0Z"/>
        <path class="cls-14" d="M55.31,275.33c-6.58,10.72-13.15,21.44-19.73,32.15,11.58-6.12,35.16-1.25,46.74-7.37"/>
        <g>
          <g>
            <path class="cls-15" d="M255.44,274.67h-.01c-1.83-6.8-8.41-9.15-15.71-7.86-6.99,1.23-12.22,5.38-12.11,11.9h-.03s.94,49.91.94,49.91l42.86-7.56-15.93-46.39Z"/>
            <g>
              <circle class="cls-24" cx="250.32" cy="326.97" r="21.26"/>
              <circle class="cls-27" cx="250.32" cy="326.97" r="14.17"/>
              <circle class="cls-27" cx="250.32" cy="326.97" r="14.17"/>
              <circle class="cls-10" cx="256.65" cy="321.03" r="4.75"/>
            </g>
            <path class="cls-8" d="M241.63,277.66c5.69-1,11.16-.19,15.49,1.92-.7-2.05-1.46-4.26-1.87-5.56-1.84-5.78-7.97-8.54-15.65-7.18s-12.07,6.11-12.02,11.88l.11,6.07c3.35-3.48,8.23-6.12,13.94-7.12Z"/>
            <path class="cls-15" d="M255.44,274.67h-.01c-1.83-6.8-8.41-9.15-15.71-7.86-6.99,1.23-12.22,5.38-12.11,11.9h-.03s.94,49.91.94,49.91l42.86-7.56-15.93-46.39Z"/>
            <g>
              <circle class="cls-24" cx="250.32" cy="326.97" r="21.26"/>
              <circle class="cls-27" cx="250.32" cy="326.97" r="14.17"/>
              <circle class="cls-27" cx="250.32" cy="326.97" r="14.17"/>
              <circle class="cls-10" cx="256.65" cy="321.03" r="4.75"/>
            </g>
            <path class="cls-8" d="M241.63,277.66c5.69-1,11.16-.19,15.49,1.92-.7-2.05-1.46-4.26-1.87-5.56-1.84-5.78-7.97-8.54-15.65-7.18s-12.07,6.11-12.02,11.88l.11,6.07c3.35-3.48,8.23-6.12,13.94-7.12Z"/>
          </g>
          <g>
            <path class="cls-15" d="M210.43,278.96c.1-6.52-5.12-10.66-12.11-11.9-7.3-1.29-13.88,1.06-15.71,7.86h-.01s-15.93,46.39-15.93,46.39l42.86,7.56.94-49.9h-.03Z"/>
            <g>
              <circle class="cls-24" cx="187.71" cy="327.22" r="21.26"/>
              <circle class="cls-27" cx="187.71" cy="327.22" r="14.17"/>
              <circle class="cls-27" cx="187.71" cy="327.22" r="14.17"/>
              <circle class="cls-10" cx="181.39" cy="321.28" r="4.75"/>
            </g>
            <path class="cls-8" d="M196.41,277.91c5.71,1.01,10.59,3.64,13.94,7.12l.11-6.07c.05-5.77-4.34-10.53-12.02-11.88s-13.81,1.4-15.65,7.18c-.41,1.29-1.17,3.51-1.87,5.56,4.33-2.11,9.79-2.92,15.49-1.92Z"/>
            <path class="cls-15" d="M210.43,278.96c.1-6.52-5.12-10.66-12.11-11.9-7.3-1.29-13.88,1.06-15.71,7.86h-.01s-15.93,46.39-15.93,46.39l42.86,7.56.94-49.9h-.03Z"/>
            <g>
              <circle class="cls-24" cx="187.71" cy="327.22" r="21.26"/>
              <circle class="cls-27" cx="187.71" cy="327.22" r="14.17"/>
              <circle class="cls-27" cx="187.71" cy="327.22" r="14.17"/>
              <circle class="cls-10" cx="193.31" cy="320.42" r="4.75"/>
            </g>
            <path class="cls-8" d="M196.41,277.91c5.71,1.01,10.59,3.64,13.94,7.12l.11-6.07c.05-5.77-4.34-10.53-12.02-11.88s-13.81,1.4-15.65,7.18c-.41,1.29-1.17,3.51-1.87,5.56,4.33-2.11,9.79-2.92,15.49-1.92Z"/>
          </g>
          <g>
            <path class="cls-8" d="M209.9,308.64h0c-1.12-3.99-3.68-7.42-7.18-9.62l-.57-.36h34.32l-.9.54c-3.55,2.12-6.2,5.48-7.42,9.44h0s-18.25,0-18.25,0Z"/>
            <polygon class="cls-16" points="202.15 298.67 203.4 289.92 235.13 290.35 236.47 298.67 202.15 298.67"/>
          </g>
        </g>
      </g>
      <rect class="cls-3" width="425.2" height="425.2"/>
    </g>
  </g>
</svg>