<svg width="426" height="426" viewBox="0 0 426 426" fill="none" xmlns="http://www.w3.org/2000/svg">
<g clip-path="url(#clip0_777_841)">
<path d="M131.09 218.88C85.59 177.85 78.87 110.28 119.71 64.6004C160.55 18.9304 239.16 14.3904 284.99 55.0504C330.82 95.7104 327.92 169.9 287.45 215.89C304.35 229.1 344.28 268.48 339.14 289.31C331.82 318.99 317.78 305.99 296.11 291.59C298.9 314.21 292.2 342.11 287.41 359.04C283.09 374.31 275.81 405.62 259.71 406.56C237.61 406.39 236.02 399.91 231.42 386.7C226.47 372.45 224.33 360.62 212.72 360.53C201.07 360.53 201.18 374.9 197.59 385.98C193.6 398.3 197.06 405.51 175.19 406.92C156.65 408.12 148.29 380.07 140.22 357.2C135.94 345.07 130.02 305.32 130.69 291.97C119.21 302.57 109.26 328.81 92.03 311.57C84 303.53 87.16 289.49 90.28 278.57C97.01 254.98 111.56 233.7 131.1 218.87" fill="white"/>
<path d="M131.53 218.82C118.09 206.65 107.4 191.58 100.77 174.68C94.14 157.78 91.92 140.93 93.76 123.67C95.63 106.15 102.01 89.2902 112.12 74.8702C122.23 60.4502 135.42 49.1202 150.84 41.1302C166 33.2702 182.87 28.7902 199.89 27.7102C216.91 26.6302 234.16 28.9302 250.19 34.7902C266.27 40.6702 281.06 50.2402 292.5 63.0402C303.94 75.8402 311.58 91.4002 315.32 107.98C319.02 124.4 318.92 141.6 315.54 158.07C312.16 174.54 305 191.53 294.91 205.77C292.44 209.25 289.79 212.6 286.98 215.81C286.93 215.86 286.98 215.93 287.02 215.97C294.3 221.67 301.07 228.05 307.53 234.66C315.44 242.75 322.98 251.36 329.26 260.79C334.07 268.01 339.35 276.88 339.1 285.88C339.04 288.15 338.43 290.33 337.79 292.5C336.96 295.31 335.95 298.11 334.49 300.65C332.61 303.92 329.78 306.82 325.8 307.02C321.18 307.25 316.59 304.55 312.77 302.27C307.21 298.95 301.96 295.13 296.57 291.55C296.46 291.48 295.6 291.27 295.63 291.57C297.76 309.36 294.7 327.61 290.61 344.91C289.04 351.56 287.17 358.13 285.35 364.72C283.63 370.92 281.84 377.11 279.55 383.14C277.26 389.17 274.53 395.3 270.3 400.21C268.57 402.22 266.54 404.03 264.14 405.18C260.84 406.76 257.27 406.43 253.71 406.15C248.06 405.71 241.85 404.57 238.01 400C234.95 396.36 233.58 391.49 232.06 387.08C228.54 376.93 225.02 357.53 210.05 360.61C204.16 361.82 201.87 367.7 200.45 372.89C199.54 376.22 198.88 379.62 197.99 382.96C197.26 385.7 196.35 388.38 195.71 391.15C194.79 395.09 194.17 399.58 190.95 402.39C188.98 404.11 186.41 404.99 183.91 405.58C180.21 406.45 176.02 407.12 172.23 406.69C165.64 405.94 160.67 400.91 157.1 395.7C152.92 389.59 149.99 382.66 147.35 375.78C144.74 368.99 142.11 362.08 140.03 355.1C138.41 349.67 137.33 344.08 136.31 338.51C133.9 325.39 131.91 312.03 131.27 298.69C131.16 296.48 131.1 294.26 131.2 292.05C131.22 291.73 130.38 291.77 130.23 291.91C124.11 297.63 119.99 305.12 114.14 311.09C111.55 313.73 108.38 316.38 104.61 316.99C99.91 317.75 95.62 314.73 92.49 311.54C84.56 303.44 87.6 290.25 90.25 280.57C93.37 269.17 98.13 258.31 104.52 248.36C111.75 237.11 120.91 227.14 131.54 219.03C131.84 218.8 130.91 218.59 130.7 218.75C110.74 233.98 96.2 255.57 89.46 279.75C86.74 289.52 83.43 302.96 91.27 311.31C94.15 314.38 97.98 317.13 102.29 317.48C105.79 317.77 109.02 316.35 111.75 314.27C119.63 308.25 124 298.81 131.19 292.09L130.22 291.95C129.97 297.33 130.49 302.77 131.02 308.12C131.73 315.3 132.7 322.46 133.82 329.58C134.85 336.07 136 342.54 137.48 348.94C138.83 354.77 140.84 360.34 142.82 365.98C145.52 373.66 148.28 381.37 151.99 388.62C154.89 394.29 158.49 400.14 163.82 403.84C169.15 407.54 174.82 407.46 180.95 406.58C185.64 405.91 191.09 404.66 193.79 400.35C196.05 396.73 196.39 392.09 197.51 388.06C198.43 384.76 199.4 381.5 200.18 378.16C200.96 374.82 201.69 371.4 203.03 368.23C204.25 365.33 206.14 362.53 209.2 361.37C212.64 360.06 216.89 360.78 219.79 362.99C225.27 367.16 227.15 375.26 229.19 381.45C231 386.94 232.54 393.06 235.62 398.03C238.07 401.98 241.87 404.26 246.31 405.4C249.65 406.26 253.12 406.57 256.56 406.71C259.31 406.82 261.85 406.81 264.42 405.71C269.61 403.49 273.15 398.5 275.8 393.72C282.03 382.5 285 369.69 288.41 357.41C293.16 340.31 297.01 322.6 297.28 304.79C297.35 300.4 297.16 296.01 296.64 291.65L295.7 291.67C300.36 294.77 304.93 298.02 309.66 301.01C313.28 303.3 317.09 305.61 321.24 306.78C324.05 307.58 327.13 307.78 329.84 306.51C333.44 304.83 335.57 301.06 337.05 297.55C338.85 293.26 340.43 288.5 340.05 283.79C339.73 279.73 338.35 275.78 336.68 272.09C332.31 262.47 325.7 253.87 318.86 245.89C311.95 237.83 304.47 230.24 296.57 223.15C294.97 221.72 293.35 220.3 291.71 218.92C291 218.32 290.29 217.73 289.57 217.15C289.27 216.9 288.82 216.65 288.56 216.34C288.54 216.32 288.14 216.07 288.13 216C288.05 215.63 288.7 215.13 288.93 214.87C292.93 210.21 296.57 205.25 299.83 200.04C312.48 179.82 319.35 155.96 319.11 132.09C318.88 108.77 311.62 85.5202 297.01 67.1602C282.55 48.9902 261.8 36.7102 239.44 30.9602C217.08 25.2102 193.41 25.7602 171.42 32.2402C149.43 38.7202 128.35 52.1302 113.93 70.9202C99.12 90.2302 91.38 114.3 92.27 138.63C93.16 162.96 102.6 186.83 118.09 205.73C121.95 210.44 126.17 214.83 130.68 218.92C130.88 219.1 131.83 219.04 131.56 218.79L131.53 218.82Z" fill="#D9DBE0"/>
<path d="M131.4 218.77C110.97 233.67 92.33 261.96 87.66 291.45C97.52 297.09 107.81 302.71 117.67 308.35C123.27 302.11 125.18 297.83 130.98 292.03C129.05 314.67 141.58 362.38 150.65 384.1C151.8 386.85 176.92 396.92 197.47 387.22C201.72 372.24 204.31 362.23 212.38 361.16C220.45 360.09 226.31 367 231.84 386.95C258.43 394.49 280.25 385.06 281.09 382.55C288.84 359.33 301.64 317.16 296.02 291.76C301.62 294.66 305.96 298.67 311.55 301.57C312.79 302.45 338.33 275.91 337.87 274.61C330.23 253.12 290.59 215.78 287.74 215.78C243.7 235.13 179.21 234.03 131.39 218.76L131.4 218.77Z" fill="white"/>
<path d="M131.15 218.34C113.2 231.49 99.76 251.18 92.23 271.97C89.96 278.25 88.24 284.72 87.18 291.32C87.14 291.54 87.2 291.77 87.41 291.88C97.38 297.57 107.45 303.08 117.42 308.78C117.6 308.88 117.88 308.87 118.03 308.7C122.71 303.45 126.37 297.39 131.34 292.38L130.49 292.03C129.58 303.05 131.42 314.37 133.43 325.17C135.84 338.18 139.08 351.06 142.96 363.71C144.61 369.11 146.39 374.47 148.39 379.75C148.82 380.88 149.26 382 149.71 383.12C149.95 383.72 150.13 384.37 150.58 384.86C151.44 385.8 152.77 386.4 153.9 386.93C158.58 389.14 163.75 390.43 168.85 391.18C175.69 392.19 182.75 392.14 189.5 390.53C191.28 390.11 193.04 389.57 194.75 388.92C195.56 388.61 196.37 388.28 197.16 387.92C198.02 387.53 198.01 387.19 198.27 386.28C199.3 382.66 200.3 379.03 201.49 375.46C203.02 370.87 204.99 364.88 209.64 362.52C212.96 360.83 216.94 361.46 219.82 363.71C223.92 366.91 226.26 372.22 228.08 376.93C228.76 378.69 229.38 380.47 229.95 382.27C230.24 383.19 230.53 384.12 230.8 385.05C230.98 385.66 231.08 386.97 231.61 387.39C232.2 387.86 233.55 387.94 234.29 388.12C235.43 388.4 236.58 388.66 237.73 388.88C239.62 389.25 241.53 389.55 243.44 389.78C250.54 390.64 257.77 390.48 264.83 389.27C269.43 388.48 274.11 387.29 278.31 385.21C279.29 384.72 280.42 384.17 281.17 383.34C281.58 382.89 281.7 382.34 281.89 381.76C282.32 380.46 282.75 379.16 283.17 377.85C287.26 365.27 290.96 352.55 293.73 339.61C296.5 326.67 298.71 313.03 297.66 299.69C297.45 296.98 297.08 294.29 296.5 291.63L295.77 292.19C299 293.89 301.96 296.02 304.96 298.08C306.4 299.07 307.85 300.04 309.36 300.92C310.03 301.31 310.98 302.18 311.82 302.07C312.38 302 312.95 301.44 313.37 301.11C314.34 300.35 315.26 299.51 316.18 298.67C321.81 293.48 327.14 287.93 332.3 282.28C334.15 280.26 336.05 278.24 337.67 276.03C338 275.58 338.42 275.08 338.37 274.5C338.32 273.88 337.86 273.13 337.61 272.55C337.22 271.63 336.8 270.72 336.36 269.82C332.25 261.55 326.41 254.1 320.5 247.06C314.28 239.66 307.64 232.6 300.68 225.9C298.17 223.49 295.63 221.12 292.98 218.87C291.61 217.7 290.13 216.27 288.48 215.5C288.28 215.41 288.05 215.29 287.83 215.29C287.5 215.29 287.16 215.51 286.87 215.64C286.09 215.98 285.3 216.31 284.5 216.63C281.74 217.76 278.94 218.8 276.11 219.75C270.25 221.73 264.27 223.36 258.23 224.69C245.41 227.52 232.31 229.03 219.2 229.56C192.71 230.62 165.84 227.84 140.25 220.85C137.34 220.05 134.44 219.2 131.56 218.28C130.95 218.08 130.68 219.05 131.29 219.24C155.51 226.95 181.12 230.54 206.5 230.75C231.88 230.96 257.02 227.97 280.53 219.24C281.78 218.78 283.02 218.29 284.26 217.8C284.93 217.53 285.59 217.25 286.26 216.97C286.58 216.83 287.65 216.27 287.73 216.27C288.07 216.26 288.68 216.76 289.02 217C290.99 218.36 292.8 219.99 294.58 221.58C300.85 227.18 306.76 233.19 312.44 239.38C319.03 246.57 325.38 254.08 330.77 262.22C333 265.59 335.1 269.11 336.68 272.84C336.86 273.27 337.04 273.7 337.2 274.14C337.28 274.35 337.36 274.89 337.41 274.58C337.4 274.65 337.2 274.96 337.09 275.14C336.54 275.97 335.87 276.73 335.23 277.48C330.47 283.09 325.3 288.38 320.07 293.55C317.89 295.71 315.69 297.89 313.34 299.86C312.87 300.25 312.14 300.92 311.67 301.07C311.53 301.12 311.75 301.12 311.83 301.13C311.12 301.04 310.12 300.19 309.5 299.82C307.94 298.89 306.44 297.87 304.95 296.84C302.13 294.89 299.33 292.92 296.3 291.32C295.9 291.11 295.47 291.45 295.57 291.88C298.26 304.23 296.77 317.41 294.66 329.73C292.36 343.12 288.85 356.29 284.86 369.27C284.01 372.04 283.13 374.81 282.24 377.56C281.83 378.82 281.42 380.08 281 381.33C280.79 381.97 280.75 382.36 280.29 382.8C279.4 383.65 278.12 384.2 277.01 384.7C275.02 385.6 272.93 386.3 270.82 386.88C264.74 388.57 258.4 389.31 252.09 389.29C248.13 389.27 244.18 388.94 240.27 388.29C238.12 387.93 235.98 387.48 233.87 386.94C233.5 386.85 232.77 386.8 232.47 386.57C232.08 386.27 232.03 385.65 231.9 385.19C231.61 384.18 231.3 383.17 230.99 382.17C229.22 376.56 227.11 370.7 223.47 366C221.35 363.25 218.51 360.97 214.96 360.59C204.01 359.42 200.83 373.76 198.56 381.63C198.3 382.51 198.05 383.4 197.8 384.28C197.55 385.16 197.44 386.54 196.67 387.02C195.12 388 192.95 388.51 191.2 389.02C187.63 390.05 183.93 390.6 180.22 390.77C173.83 391.05 167.38 390.24 161.23 388.5C159.01 387.87 156.8 387.13 154.69 386.16C153.6 385.66 152.04 385.06 151.27 384.08C150.8 383.48 150.59 382.59 150.31 381.89C149.85 380.74 149.41 379.59 148.98 378.43C148.06 375.95 147.18 373.46 146.34 370.95C142.32 358.96 139.01 346.71 136.31 334.35C133.76 322.65 131.54 310.65 131.31 298.64C131.27 296.42 131.31 294.2 131.49 291.99C131.53 291.55 130.92 291.35 130.64 291.64C125.67 296.65 122.01 302.7 117.33 307.96L117.94 307.88C107.97 302.19 97.9 296.68 87.93 290.98L88.16 291.54C91.78 268.99 102.95 247.46 118.55 230.86C122.57 226.58 126.93 222.63 131.67 219.16C132.18 218.78 131.69 217.92 131.17 218.3L131.15 218.34Z" fill="#BFBFBF"/>
<mask id="mask0_777_841" style="mask-type:luminance" maskUnits="userSpaceOnUse" x="87" y="215" width="251" height="178">
<path d="M131.2 218.77C110.77 233.67 92.13 261.96 87.46 291.45C97.32 297.09 107.61 302.71 117.47 308.35C123.07 302.11 124.98 297.83 130.78 292.03C128.85 314.67 141.38 362.38 150.45 384.1C151.6 386.85 176.72 396.92 197.27 387.22C201.52 372.24 204.11 362.23 212.18 361.16C220.25 360.09 226.11 367 231.64 386.95C252.12 399.86 279.46 387.18 281.09 382.55C289.74 357.92 301.44 317.16 295.82 291.76C301.42 294.66 305.76 298.67 311.35 301.57C312.59 302.45 337.47 276.18 337.05 274.87C328.91 249.27 290.38 215.78 287.54 215.78C243.5 235.13 179.01 234.03 131.19 218.76L131.2 218.77Z" fill="white"/>
</mask>
<g mask="url(#mask0_777_841)">
<path d="M75.85 244.55V230.17H357.49V244.55H75.85ZM366.47 291V276.62H71.87V291H366.47ZM363.98 337.45V323.07H69.37V337.45H363.97H363.98ZM360.07 383.89V369.51H65.47V383.89H360.07Z" fill="#231815"/>
</g>
<path d="M93.94 118.81C93.94 118.81 186.9 77.1205 317 114.26C317 114.26 305.89 21.7705 198.27 27.2605C102.68 32.1305 93.93 118.81 93.93 118.81H93.94Z" fill="white"/>
<path d="M93.35 119.62L93.44 118.76C93.46 118.54 95.8 96.72 109.84 74.59C122.8 54.16 148.66 29.28 198.25 26.76C229.05 25.19 271.44 31.14 298.4 68.41C314.52 90.69 317.47 113.97 317.5 114.2L317.59 114.95L316.87 114.74C249.77 95.59 192.79 97.84 156.8 103.1C117.81 108.8 94.38 119.17 94.15 119.27L93.36 119.62H93.35ZM207.19 27.53C204.3 27.53 201.35 27.6 198.3 27.76C149.13 30.27 123.52 54.9 110.68 75.13C98.33 94.59 95.12 113.79 94.54 118.01C98.99 116.15 121.53 107.25 156.6 102.12C192.56 96.86 249.41 94.59 316.39 113.57C315.74 109.42 311.92 88.8 297.56 68.96C283.63 49.73 256.8 27.53 207.18 27.53H207.19Z" fill="#BFC2C8"/>
<mask id="mask1_777_841" style="mask-type:luminance" maskUnits="userSpaceOnUse" x="93" y="27" width="224" height="92">
<path d="M93.94 118.81C93.94 118.81 186.9 77.1205 317 114.26C317 114.26 305.89 21.7705 198.27 27.2605C102.68 32.1305 93.93 118.81 93.93 118.81H93.94Z" fill="white"/>
</mask>
<g mask="url(#mask1_777_841)">
<path d="M318.88 27.0801H100.88V41.4601H318.88V27.0801Z" fill="#231815"/>
<path d="M321.88 73.5205H103.88V87.9005H321.88V73.5205Z" fill="#231815"/>
</g>
<path d="M245.12 389.2C245.02 389.2 244.92 389.2 244.82 389.18L242.09 388.88C241.36 388.8 240.7 388.44 240.25 387.87C239.8 387.3 239.58 386.58 239.66 385.85C239.74 385.12 240.1 384.46 240.67 384.01C241.24 383.55 241.97 383.34 242.69 383.42L245.42 383.72C246.93 383.89 248.02 385.25 247.85 386.76C247.69 388.17 246.5 389.21 245.12 389.21V389.2ZM242.38 384.4C241.98 384.4 241.6 384.53 241.29 384.78C240.93 385.07 240.7 385.49 240.65 385.95C240.6 386.41 240.73 386.87 241.02 387.24C241.31 387.61 241.73 387.83 242.19 387.89L244.92 388.19C245.87 388.28 246.75 387.6 246.85 386.64C246.95 385.68 246.26 384.81 245.3 384.71L242.57 384.41C242.5 384.41 242.44 384.4 242.37 384.4H242.38Z" fill="#586060"/>
<path d="M254.65 390.25C254.55 390.25 254.45 390.25 254.35 390.23L251.62 389.93C250.11 389.76 249.02 388.4 249.19 386.89C249.36 385.38 250.73 384.31 252.23 384.46L254.96 384.76C255.69 384.84 256.35 385.2 256.8 385.77C257.25 386.34 257.47 387.06 257.39 387.79C257.24 389.2 256.04 390.24 254.66 390.24L254.65 390.25ZM254.45 389.24C255.41 389.34 256.28 388.65 256.38 387.69C256.43 387.23 256.3 386.77 256.01 386.4C255.72 386.03 255.3 385.81 254.84 385.75L252.11 385.45C251.14 385.35 250.28 386.04 250.18 387C250.07 387.96 250.77 388.83 251.73 388.93L254.46 389.23L254.45 389.24Z" fill="#586060"/>
<path d="M254.91 390.4C254.81 390.4 254.71 390.4 254.6 390.38L251.87 390.08C251.14 390 250.49 389.64 250.03 389.07C249.57 388.5 249.36 387.78 249.44 387.05C249.61 385.54 250.97 384.46 252.47 384.62L255.2 384.92C256.71 385.09 257.8 386.45 257.63 387.95C257.55 388.68 257.19 389.34 256.62 389.79C256.13 390.18 255.53 390.39 254.9 390.39L254.91 390.4ZM254.71 389.39C255.66 389.49 256.54 388.8 256.64 387.84C256.74 386.88 256.05 386.01 255.09 385.91L252.36 385.61C251.4 385.51 250.53 386.2 250.43 387.16C250.38 387.62 250.51 388.08 250.8 388.45C251.09 388.81 251.51 389.04 251.97 389.09L254.7 389.39H254.71Z" fill="#586060"/>
<path d="M264.83 391.38C264.73 391.38 264.63 391.38 264.53 391.36L261.8 391.06C260.29 390.89 259.2 389.53 259.37 388.02C259.54 386.51 260.92 385.44 262.41 385.59L265.14 385.89C266.65 386.06 267.74 387.42 267.57 388.93C267.41 390.34 266.22 391.38 264.84 391.38H264.83ZM264.63 390.36C265.58 390.47 266.46 389.77 266.56 388.81C266.66 387.85 265.97 386.98 265.01 386.88L262.28 386.58C261.32 386.48 260.45 387.17 260.35 388.13C260.24 389.09 260.94 389.96 261.9 390.06L264.63 390.36Z" fill="#586060"/>
<path d="M275.08 392.63C274.98 392.63 274.88 392.63 274.78 392.61L272.05 392.31C270.54 392.14 269.45 390.78 269.62 389.27C269.7 388.54 270.06 387.88 270.63 387.43C271.2 386.97 271.92 386.76 272.65 386.84L275.38 387.14C276.89 387.31 277.98 388.67 277.81 390.18C277.65 391.59 276.46 392.63 275.08 392.63ZM272.34 387.83C271.94 387.83 271.56 387.96 271.25 388.21C270.88 388.5 270.66 388.92 270.6 389.38C270.49 390.34 271.19 391.21 272.15 391.31L274.88 391.61C275.84 391.71 276.71 391.02 276.81 390.06C276.92 389.1 276.22 388.23 275.26 388.13L272.53 387.83C272.46 387.83 272.4 387.82 272.33 387.82L272.34 387.83Z" fill="#586060"/>
<path d="M235.6 388.15C235.5 388.15 235.39 388.15 235.29 388.13L232.56 387.83C231.05 387.66 229.96 386.3 230.13 384.79C230.3 383.28 231.65 382.19 233.17 382.36L235.9 382.66C236.63 382.74 237.28 383.1 237.74 383.67C238.2 384.24 238.41 384.96 238.33 385.69C238.25 386.42 237.89 387.08 237.32 387.53C236.83 387.93 236.23 388.13 235.61 388.13L235.6 388.15ZM232.86 383.35C231.98 383.35 231.22 384.01 231.12 384.91C231.01 385.87 231.71 386.74 232.67 386.84L235.4 387.14C235.86 387.2 236.32 387.06 236.69 386.77C237.05 386.48 237.28 386.06 237.33 385.6C237.38 385.14 237.25 384.68 236.96 384.31C236.67 383.95 236.25 383.72 235.79 383.67L233.06 383.37C233 383.37 232.93 383.36 232.87 383.36L232.86 383.35Z" fill="#586060"/>
<path d="M242.77 386.69C242.77 386.69 242.73 386.69 242.71 386.69L235.39 385.88C235.12 385.85 234.92 385.6 234.95 385.33C234.98 385.05 235.23 384.85 235.5 384.89L242.82 385.7C243.09 385.73 243.29 385.98 243.26 386.25C243.23 386.51 243.01 386.7 242.76 386.7L242.77 386.69Z" fill="#586060"/>
<path d="M252.23 387.741C252.23 387.741 252.19 387.741 252.17 387.741L244.85 386.931C244.58 386.901 244.38 386.651 244.41 386.381C244.44 386.101 244.69 385.911 244.96 385.941L252.28 386.751C252.55 386.781 252.75 387.031 252.72 387.301C252.69 387.561 252.47 387.751 252.22 387.751L252.23 387.741Z" fill="#586060"/>
<path d="M252.23 387.741C252.23 387.741 252.19 387.741 252.17 387.741L244.85 386.931C244.58 386.901 244.38 386.651 244.41 386.381C244.44 386.101 244.69 385.911 244.96 385.941L252.28 386.751C252.55 386.781 252.75 387.031 252.72 387.301C252.69 387.561 252.47 387.751 252.22 387.751L252.23 387.741Z" fill="#586060"/>
<path d="M262.47 388.871C262.47 388.871 262.43 388.871 262.41 388.871L255.09 388.061C254.82 388.031 254.62 387.781 254.65 387.511C254.68 387.231 254.93 387.031 255.2 387.071L262.52 387.881C262.79 387.911 262.99 388.161 262.96 388.431C262.93 388.691 262.71 388.881 262.46 388.881L262.47 388.871Z" fill="#586060"/>
<path d="M272.72 390C272.72 390 272.68 390 272.66 390L265.35 389.19C265.08 389.16 264.88 388.91 264.91 388.64C264.94 388.37 265.18 388.17 265.46 388.2L272.77 389.01C273.04 389.04 273.24 389.29 273.21 389.56C273.18 389.82 272.96 390.01 272.71 390.01L272.72 390Z" fill="#586060"/>
<path d="M264.81 389.2C264.19 389.2 263.59 388.99 263.1 388.6C262.53 388.14 262.17 387.49 262.09 386.76C261.92 385.25 263.01 383.89 264.52 383.72L267.25 383.42C267.98 383.34 268.7 383.55 269.27 384.01C269.84 384.47 270.2 385.12 270.28 385.85C270.45 387.36 269.35 388.72 267.85 388.89L265.12 389.19C265.02 389.2 264.91 389.21 264.81 389.21V389.2ZM267.55 384.4C267.48 384.4 267.42 384.4 267.35 384.41L264.62 384.71C263.66 384.82 262.97 385.68 263.07 386.64C263.12 387.1 263.35 387.52 263.71 387.81C264.08 388.1 264.54 388.24 265 388.18L267.73 387.88C268.69 387.77 269.38 386.91 269.28 385.95C269.23 385.49 269 385.07 268.64 384.78C268.33 384.53 267.94 384.4 267.55 384.4Z" fill="#586060"/>
<path d="M255.29 390.25C253.91 390.25 252.71 389.21 252.56 387.8C252.39 386.29 253.49 384.93 254.99 384.76L257.72 384.46C258.44 384.38 259.17 384.59 259.74 385.05C260.31 385.51 260.67 386.16 260.75 386.89C260.83 387.62 260.62 388.34 260.16 388.91C259.7 389.48 259.05 389.84 258.32 389.92L255.59 390.22C255.49 390.23 255.39 390.24 255.29 390.24V390.25ZM258.03 385.45C257.96 385.45 257.9 385.45 257.83 385.46L255.1 385.76C254.14 385.87 253.45 386.73 253.55 387.69C253.66 388.65 254.53 389.34 255.48 389.24L258.21 388.94C258.67 388.89 259.09 388.66 259.38 388.3C259.67 387.93 259.8 387.48 259.75 387.01C259.7 386.55 259.47 386.13 259.11 385.84C258.8 385.59 258.42 385.46 258.02 385.46L258.03 385.45Z" fill="#586060"/>
<path d="M255.03 390.4C253.65 390.4 252.45 389.36 252.3 387.95C252.22 387.22 252.43 386.5 252.89 385.93C253.35 385.36 254 385 254.73 384.92L257.46 384.62C258.97 384.46 260.33 385.55 260.5 387.05C260.58 387.78 260.37 388.5 259.91 389.07C259.45 389.64 258.8 390 258.07 390.08L255.34 390.38C255.24 390.39 255.14 390.4 255.04 390.4H255.03ZM257.76 385.6C257.7 385.6 257.63 385.6 257.57 385.61L254.84 385.91C254.38 385.96 253.96 386.19 253.67 386.55C253.38 386.91 253.25 387.37 253.3 387.84C253.41 388.8 254.28 389.5 255.23 389.39L257.96 389.09C258.42 389.04 258.84 388.81 259.13 388.45C259.42 388.08 259.55 387.63 259.5 387.16C259.4 386.27 258.64 385.6 257.76 385.6Z" fill="#586060"/>
<path d="M245.1 391.38C244.48 391.38 243.88 391.17 243.39 390.78C242.82 390.32 242.46 389.67 242.38 388.94C242.3 388.21 242.51 387.49 242.97 386.92C243.43 386.35 244.08 385.99 244.81 385.91L247.54 385.61C248.26 385.53 248.99 385.74 249.56 386.2C250.13 386.66 250.49 387.32 250.57 388.04C250.65 388.77 250.44 389.49 249.98 390.06C249.52 390.63 248.87 390.99 248.14 391.07L245.41 391.37C245.31 391.38 245.21 391.39 245.1 391.39V391.38ZM247.85 386.57C247.78 386.57 247.72 386.57 247.65 386.58L244.92 386.88C243.96 386.99 243.27 387.85 243.37 388.81C243.42 389.27 243.65 389.69 244.01 389.98C244.37 390.27 244.83 390.4 245.3 390.35L248.03 390.05C248.49 390 248.91 389.77 249.2 389.41C249.49 389.04 249.63 388.59 249.57 388.12C249.52 387.66 249.29 387.24 248.93 386.95C248.62 386.7 248.24 386.57 247.84 386.57H247.85Z" fill="#586060"/>
<path d="M234.85 392.63C234.23 392.63 233.63 392.42 233.14 392.03C232.57 391.57 232.21 390.91 232.13 390.19C231.96 388.68 233.06 387.32 234.56 387.15L237.29 386.85C238.02 386.77 238.74 386.98 239.31 387.44C239.88 387.9 240.24 388.55 240.32 389.28C240.49 390.79 239.4 392.15 237.89 392.32L235.16 392.62C235.06 392.63 234.95 392.64 234.85 392.64V392.63ZM237.6 387.83C237.53 387.83 237.47 387.83 237.4 387.84L234.67 388.14C233.71 388.25 233.02 389.11 233.12 390.07C233.17 390.53 233.4 390.95 233.76 391.24C234.13 391.53 234.59 391.67 235.05 391.61L237.78 391.31C238.74 391.2 239.43 390.34 239.33 389.38C239.28 388.92 239.05 388.5 238.69 388.21C238.38 387.96 238 387.83 237.6 387.83Z" fill="#586060"/>
<path d="M274.33 388.15C273.71 388.15 273.11 387.94 272.62 387.55C272.05 387.09 271.69 386.44 271.61 385.71C271.53 384.98 271.74 384.26 272.2 383.69C272.66 383.12 273.31 382.76 274.04 382.68L276.77 382.38C278.27 382.22 279.64 383.3 279.81 384.81C279.98 386.32 278.88 387.68 277.38 387.85L274.65 388.15C274.55 388.16 274.44 388.17 274.34 388.17L274.33 388.15ZM277.07 383.35C277.01 383.35 276.94 383.35 276.88 383.36L274.15 383.66C273.69 383.71 273.27 383.94 272.98 384.3C272.69 384.67 272.56 385.12 272.61 385.59C272.66 386.05 272.89 386.47 273.26 386.76C273.63 387.05 274.09 387.19 274.55 387.13L277.28 386.83C278.24 386.72 278.93 385.86 278.83 384.9C278.73 384.01 277.97 383.34 277.09 383.34L277.07 383.35Z" fill="#586060"/>
<path d="M267.17 386.69C266.92 386.69 266.7 386.5 266.67 386.24C266.64 385.97 266.84 385.72 267.11 385.69L274.42 384.88C274.69 384.85 274.94 385.05 274.97 385.32C275 385.59 274.8 385.84 274.53 385.87L267.22 386.68C267.22 386.68 267.18 386.68 267.16 386.68L267.17 386.69Z" fill="#586060"/>
<path d="M257.71 387.74C257.46 387.74 257.24 387.55 257.21 387.29C257.18 387.02 257.38 386.77 257.65 386.74L264.96 385.93C265.23 385.9 265.48 386.1 265.51 386.37C265.54 386.64 265.34 386.89 265.07 386.92L257.76 387.73C257.76 387.73 257.72 387.73 257.7 387.73L257.71 387.74Z" fill="#586060"/>
<path d="M257.71 387.74C257.46 387.74 257.24 387.55 257.21 387.29C257.18 387.02 257.38 386.77 257.65 386.74L264.96 385.93C265.23 385.9 265.48 386.1 265.51 386.37C265.54 386.64 265.34 386.89 265.07 386.92L257.76 387.73C257.76 387.73 257.72 387.73 257.7 387.73L257.71 387.74Z" fill="#586060"/>
<path d="M247.46 388.87C247.21 388.87 246.99 388.68 246.96 388.42C246.93 388.15 247.13 387.9 247.4 387.87L254.71 387.06C254.97 387.03 255.23 387.23 255.26 387.5C255.29 387.77 255.09 388.02 254.82 388.05L247.51 388.86C247.51 388.86 247.47 388.86 247.45 388.86L247.46 388.87Z" fill="#586060"/>
<path d="M237.21 390C236.96 390 236.74 389.809 236.71 389.549C236.68 389.279 236.88 389.03 237.15 389L244.47 388.19C244.74 388.16 244.99 388.36 245.02 388.63C245.05 388.9 244.85 389.149 244.58 389.179L237.26 389.989C237.26 389.989 237.22 389.989 237.2 389.989L237.21 390Z" fill="#586060"/>
<path d="M301.08 404.54C300.86 404.54 300.65 404.51 300.43 404.46L297.76 403.81C297.05 403.64 296.44 403.19 296.06 402.57C295.68 401.94 295.56 401.2 295.74 400.49C296.1 399.02 297.59 398.11 299.07 398.47L301.74 399.12C302.45 399.29 303.06 399.74 303.44 400.36C303.82 400.99 303.94 401.73 303.76 402.44C303.45 403.69 302.33 404.54 301.09 404.54H301.08ZM298.41 399.38C297.62 399.38 296.91 399.92 296.71 400.71C296.48 401.65 297.06 402.6 298 402.83L300.67 403.48C301.61 403.7 302.56 403.13 302.79 402.19C303.02 401.25 302.44 400.3 301.5 400.07L298.83 399.42C298.69 399.39 298.55 399.37 298.41 399.37V399.38Z" fill="#586060"/>
<path d="M293.19 400.08C292.34 400.08 291.5 399.69 290.96 398.95L289.34 396.73C288.91 396.14 288.73 395.41 288.85 394.68C288.97 393.95 289.36 393.32 289.95 392.89C291.18 392 292.9 392.27 293.79 393.5L295.41 395.73C295.84 396.32 296.02 397.05 295.9 397.78C295.78 398.51 295.39 399.14 294.8 399.57C294.31 399.92 293.75 400.09 293.19 400.09V400.08ZM291.56 393.36C291.2 393.36 290.84 393.47 290.53 393.69C290.15 393.97 289.9 394.37 289.83 394.83C289.76 395.29 289.87 395.75 290.14 396.13L291.76 398.35C292.33 399.13 293.43 399.3 294.21 398.74C294.59 398.46 294.84 398.06 294.91 397.6C294.98 397.14 294.87 396.68 294.6 396.3L292.98 394.07C292.64 393.6 292.1 393.35 291.56 393.35V393.36Z" fill="#586060"/>
<path d="M286.41 393.51C285.85 393.51 285.31 393.34 284.84 393.01L282.59 391.43C281.35 390.56 281.04 388.84 281.91 387.6C282.33 387 282.96 386.6 283.68 386.47C284.4 386.34 285.13 386.5 285.73 386.92L287.98 388.5C289.22 389.37 289.53 391.09 288.66 392.33C288.24 392.93 287.61 393.33 286.89 393.46C286.73 393.49 286.57 393.5 286.4 393.5L286.41 393.51ZM283.15 390.62L285.4 392.2C285.78 392.47 286.24 392.57 286.71 392.49C287.17 392.41 287.57 392.15 287.84 391.77C288.39 390.98 288.2 389.89 287.41 389.33L285.16 387.76C284.78 387.49 284.32 387.39 283.85 387.47C283.39 387.55 282.99 387.81 282.72 388.19C282.17 388.98 282.36 390.07 283.15 390.63V390.62Z" fill="#586060"/>
<path d="M298.01 401.63C297.91 401.63 297.81 401.6 297.72 401.54L293.01 398.25C292.78 398.09 292.73 397.78 292.89 397.55C293.05 397.32 293.36 397.27 293.59 397.43L298.3 400.72C298.53 400.88 298.58 401.19 298.42 401.42C298.32 401.56 298.17 401.63 298.01 401.63Z" fill="#586060"/>
<path d="M305.96 403.53C305.96 403.53 305.88 403.53 305.84 403.52L301.47 402.45C301.2 402.38 301.04 402.11 301.1 401.85C301.17 401.58 301.43 401.42 301.7 401.48L306.07 402.55C306.34 402.62 306.5 402.89 306.44 403.15C306.38 403.38 306.18 403.53 305.95 403.53H305.96Z" fill="#586060"/>
<path d="M323.85 411.25C338.121 411.25 349.69 399.681 349.69 385.41C349.69 371.139 338.121 359.57 323.85 359.57C309.579 359.57 298.01 371.139 298.01 385.41C298.01 399.681 309.579 411.25 323.85 411.25Z" fill="#586060"/>
<path d="M283.84 389.31C283.77 389.31 283.69 389.29 283.63 389.26L276.49 385.87C276.24 385.75 276.13 385.45 276.25 385.2C276.37 384.95 276.67 384.85 276.92 384.96L284.06 388.35C284.31 388.47 284.42 388.77 284.3 389.02C284.22 389.2 284.04 389.31 283.85 389.31H283.84Z" fill="#586060"/>
<path d="M290.94 395.42C290.82 395.42 290.7 395.38 290.61 395.29L286.06 391.18C285.85 390.99 285.84 390.68 286.02 390.47C286.21 390.27 286.52 390.25 286.73 390.43L291.28 394.54C291.49 394.73 291.5 395.04 291.32 395.25C291.22 395.36 291.09 395.42 290.95 395.42H290.94Z" fill="#586060"/>
<path d="M272.72 247.37H157.72V318.37H272.72V247.37Z" fill="#606768"/>
<path d="M259.34 261.64H171.22C170.94 261.64 170.72 261.42 170.72 261.14C170.72 260.86 170.94 260.64 171.22 260.64H259.34C259.62 260.64 259.84 260.86 259.84 261.14C259.84 261.42 259.62 261.64 259.34 261.64Z" fill="white"/>
<path d="M259.34 277.87H171.22C170.94 277.87 170.72 277.65 170.72 277.37C170.72 277.09 170.94 276.87 171.22 276.87H259.34C259.62 276.87 259.84 277.09 259.84 277.37C259.84 277.65 259.62 277.87 259.34 277.87Z" fill="white"/>
<path d="M259.97 294.62H171.85C171.57 294.62 171.35 294.4 171.35 294.12C171.35 293.84 171.57 293.62 171.85 293.62H259.97C260.25 293.62 260.47 293.84 260.47 294.12C260.47 294.4 260.25 294.62 259.97 294.62Z" fill="white"/>
<path d="M172.28 259.12C172.28 259.3 172.13 259.39 171.98 259.39C171.83 259.39 171.68 259.3 171.68 259.12C171.69 258.51 171.71 257.84 171.71 257.2C171.71 256.72 171.71 256.27 171.68 255.86C171.68 255.65 171.9 255.59 171.99 255.59C172.14 255.59 172.28 255.67 172.28 255.84C172.28 256.27 172.27 256.74 172.27 257.22C172.27 257.85 172.27 258.5 172.28 259.11V259.12Z" fill="white"/>
<path d="M174.35 259.44C173.95 259.44 173.24 259.44 173.19 258.73C173.18 258.48 173.17 258.08 173.17 257.66C173.17 257.11 173.18 256.53 173.2 256.26C173.24 255.57 173.74 255.55 174.36 255.55C174.52 255.55 174.67 255.55 174.74 255.56C175.9 255.64 176.53 256.44 176.53 257.48C176.53 259.43 174.88 259.43 174.36 259.43L174.35 259.44ZM174.28 256.1C174.04 256.1 173.77 256.1 173.75 256.35C173.74 256.56 173.72 257.14 173.72 257.68C173.72 258.08 173.72 258.45 173.75 258.64C173.78 258.87 173.93 258.91 174.35 258.91C174.88 258.91 175.93 258.91 175.93 257.49C175.93 256.68 175.44 256.1 174.68 256.1C174.68 256.1 174.47 256.1 174.28 256.1Z" fill="white"/>
<path d="M177.23 257.42C177.23 257.17 177.44 257.08 177.58 257.08C177.75 257.08 177.93 257.22 177.93 257.42C177.93 257.6 177.78 257.77 177.58 257.77C177.45 257.77 177.23 257.71 177.23 257.42ZM177.23 258.92C177.23 258.67 177.44 258.58 177.58 258.58C177.75 258.58 177.93 258.72 177.93 258.91C177.93 259.09 177.78 259.27 177.58 259.27C177.45 259.27 177.23 259.21 177.23 258.92Z" fill="white"/>
<path d="M172.09 282.61C171.69 282.61 170.98 282.61 170.93 281.9C170.92 281.65 170.91 281.25 170.91 280.83C170.91 280.28 170.92 279.7 170.94 279.43C170.98 278.74 171.48 278.72 172.1 278.72C172.26 278.72 172.41 278.72 172.48 278.73C173.64 278.81 174.27 279.61 174.27 280.65C174.27 282.6 172.62 282.6 172.1 282.6L172.09 282.61ZM172.02 279.27C171.78 279.27 171.51 279.27 171.49 279.52C171.48 279.73 171.46 280.31 171.46 280.85C171.46 281.25 171.46 281.62 171.49 281.81C171.52 282.04 171.67 282.08 172.09 282.08C172.62 282.08 173.67 282.08 173.67 280.66C173.67 279.85 173.18 279.27 172.42 279.27C172.42 279.27 172.21 279.27 172.02 279.27Z" fill="white"/>
<path d="M177.34 282.56C177.22 282.56 177.1 282.51 177.05 282.37C176.99 282.23 176.86 281.83 176.7 281.36C176.7 281.33 176.68 281.32 176.65 281.32C176.57 281.32 176.36 281.32 176.14 281.32C175.84 281.32 175.5 281.32 175.4 281.32C175.37 281.32 175.35 281.33 175.34 281.36C175.22 281.76 175.1 282.12 175.02 282.36C174.98 282.5 174.86 282.57 174.74 282.57C174.6 282.57 174.45 282.48 174.45 282.32C174.45 282.23 174.47 282.19 175.56 279.11C175.64 278.88 175.82 278.77 176 278.77C176.19 278.77 176.39 278.89 176.47 279.12C176.79 280.02 177.44 281.76 177.61 282.15C177.63 282.2 177.64 282.25 177.64 282.29C177.64 282.46 177.49 282.56 177.33 282.56H177.34ZM176.51 280.74C176.35 280.27 176.21 279.81 176.13 279.57C176.1 279.48 176.07 279.43 176.04 279.43C176.02 279.43 175.99 279.47 175.95 279.57C175.87 279.77 175.55 280.71 175.55 280.75C175.55 280.77 175.55 280.78 175.59 280.78C175.69 280.78 175.88 280.78 176.05 280.78C176.22 280.78 176.41 280.78 176.47 280.78C176.5 280.78 176.51 280.78 176.51 280.76C176.51 280.76 176.51 280.75 176.51 280.74Z" fill="white"/>
<path d="M178.69 282.3C178.69 281.91 178.7 281.18 178.7 280.52C178.7 280.08 178.7 279.66 178.7 279.4C178.7 279.3 178.69 279.3 178.39 279.3C178.2 279.3 177.97 279.3 177.73 279.3C177.54 279.3 177.44 279.17 177.44 279.03C177.44 278.89 177.53 278.77 177.72 278.77H177.73C178.03 278.77 178.56 278.77 179.08 278.77C179.51 278.77 179.93 278.77 180.22 278.77C180.42 278.77 180.48 278.93 180.48 279.04C180.48 279.18 180.4 279.31 180.24 279.31H180.22C180.05 279.31 179.9 279.31 179.78 279.31C179.447 279.31 179.28 279.343 179.28 279.41C179.28 279.75 179.27 280.24 179.27 280.73C179.27 281.33 179.27 281.94 179.3 282.31C179.3 282.48 179.15 282.57 179 282.57C178.85 282.57 178.7 282.49 178.7 282.32L178.69 282.3Z" fill="white"/>
<path d="M182.21 279.27C181.71 279.27 181.6 279.27 181.59 279.49C181.59 279.61 181.59 279.86 181.59 280.15C181.59 280.25 181.59 280.25 182.21 280.25C182.44 280.25 182.68 280.25 182.77 280.25C183.05 280.24 183.05 280.5 183.05 280.52C183.05 280.67 182.96 280.81 182.79 280.81H182.76C182.64 280.81 182.44 280.8 182.25 280.8C181.63 280.8 181.58 280.8 181.58 280.91C181.58 281.66 181.58 281.77 181.59 281.86C181.62 282.09 181.7 282.1 182.4 282.1C182.7 282.1 183.02 282.1 183.11 282.1H183.14C183.31 282.1 183.41 282.22 183.41 282.35C183.41 282.48 183.31 282.62 183.09 282.63C183.03 282.63 182.74 282.63 182.44 282.63C182.14 282.63 181.86 282.63 181.8 282.63C181.34 282.59 181.05 282.43 181.03 281.99C181.03 281.78 181.03 281.41 181.03 281C181.03 280.39 181.03 279.71 181.04 279.39C181.05 278.99 181.31 278.78 181.72 278.76C181.81 278.76 182.1 278.75 182.38 278.75C182.66 278.75 182.94 278.75 183.01 278.76C183.2 278.76 183.29 278.89 183.29 279.02C183.29 279.15 183.18 279.29 182.99 279.29C182.99 279.29 182.54 279.29 182.2 279.29L182.21 279.27Z" fill="white"/>
<path d="M184.02 280.59C184.02 280.34 184.23 280.25 184.37 280.25C184.54 280.25 184.72 280.39 184.72 280.59C184.72 280.77 184.57 280.94 184.37 280.94C184.24 280.94 184.02 280.88 184.02 280.59ZM184.02 282.09C184.02 281.84 184.23 281.75 184.37 281.75C184.54 281.75 184.72 281.89 184.72 282.08C184.72 282.26 184.57 282.44 184.37 282.44C184.24 282.44 184.02 282.38 184.02 282.09Z" fill="white"/>
<path d="M221.4 282.609C220.15 282.609 219.48 281.679 219.48 280.709C219.48 279.739 220.2 278.729 221.42 278.729C222.22 278.729 222.76 279.189 222.76 279.459C222.76 279.629 222.62 279.769 222.46 279.769C222.37 279.769 222.28 279.729 222.2 279.639C222 279.399 221.69 279.279 221.37 279.279C220.52 279.279 220.07 279.999 220.07 280.679C220.07 281.099 220.32 282.039 221.37 282.039C221.75 282.039 222.13 281.889 222.33 281.619C222.4 281.529 222.49 281.489 222.58 281.489C222.75 281.489 222.91 281.639 222.91 281.809C222.91 282.069 222.31 282.619 221.39 282.619L221.4 282.609Z" fill="white"/>
<path d="M224.12 282.3C224.12 282.48 223.97 282.57 223.82 282.57C223.67 282.57 223.52 282.48 223.52 282.3C223.53 281.69 223.55 281.02 223.55 280.38C223.55 279.9 223.55 279.45 223.52 279.04C223.52 278.83 223.74 278.77 223.83 278.77C223.98 278.77 224.12 278.85 224.12 279.02C224.12 279.45 224.11 279.92 224.11 280.4C224.11 281.03 224.11 281.68 224.12 282.29V282.3Z" fill="white"/>
<path d="M226.19 282.619C225.79 282.619 225.08 282.619 225.03 281.909C225.02 281.659 225.01 281.259 225.01 280.839C225.01 280.289 225.02 279.709 225.04 279.439C225.08 278.749 225.58 278.729 226.2 278.729C226.36 278.729 226.51 278.729 226.58 278.739C227.74 278.819 228.37 279.619 228.37 280.659C228.37 282.609 226.72 282.609 226.2 282.609L226.19 282.619ZM226.12 279.269C225.88 279.269 225.61 279.269 225.59 279.519C225.58 279.729 225.56 280.309 225.56 280.849C225.56 281.249 225.56 281.619 225.59 281.809C225.62 282.039 225.77 282.079 226.19 282.079C226.72 282.079 227.77 282.079 227.77 280.659C227.77 279.849 227.28 279.269 226.52 279.269C226.52 279.269 226.3 279.269 226.12 279.269Z" fill="white"/>
<path d="M229.08 280.589C229.08 280.339 229.29 280.249 229.43 280.249C229.6 280.249 229.78 280.389 229.78 280.589C229.78 280.769 229.63 280.939 229.43 280.939C229.3 280.939 229.08 280.879 229.08 280.589ZM229.08 282.089C229.08 281.839 229.29 281.749 229.43 281.749C229.6 281.749 229.78 281.889 229.78 282.079C229.78 282.259 229.63 282.439 229.43 282.439C229.3 282.439 229.08 282.379 229.08 282.089Z" fill="white"/>
<path d="M189.47 270.42C189.43 269.99 189.41 269.57 189.41 269.15C189.41 268.77 189.43 268.38 189.46 267.97C189.6 266.23 190.55 265.27 191.91 265.27C193.27 265.27 194.19 266.19 194.35 267.86C194.39 268.3 194.42 268.74 194.42 269.17C194.42 270.3 194.33 273.02 191.91 273.02C190.58 273.02 189.63 272.1 189.47 270.42ZM193.18 270.46C193.24 270.02 193.27 269.53 193.27 269.05C193.27 268.28 193.27 266.3 191.9 266.3C191.2 266.3 190.67 266.94 190.57 268.01C190.54 268.38 190.52 268.75 190.52 269.11C190.52 269.53 190.54 269.95 190.59 270.36C190.71 271.38 191.25 271.97 191.9 271.97C192.55 271.97 193.04 271.41 193.18 270.46Z" fill="white"/>
<path d="M195.47 270.42C195.43 269.99 195.41 269.57 195.41 269.15C195.41 268.77 195.43 268.38 195.46 267.97C195.6 266.23 196.55 265.27 197.91 265.27C199.27 265.27 200.19 266.19 200.35 267.86C200.39 268.3 200.42 268.74 200.42 269.17C200.42 270.3 200.33 273.02 197.91 273.02C196.58 273.02 195.63 272.1 195.47 270.42ZM199.18 270.46C199.24 270.02 199.27 269.53 199.27 269.05C199.27 268.28 199.27 266.3 197.9 266.3C197.2 266.3 196.67 266.94 196.57 268.01C196.54 268.38 196.52 268.75 196.52 269.11C196.52 269.53 196.54 269.95 196.59 270.36C196.71 271.38 197.25 271.97 197.9 271.97C198.55 271.97 199.04 271.41 199.18 270.46Z" fill="white"/>
<path d="M204.03 272.949C203.74 272.949 203.44 272.759 203.44 272.399C203.44 271.469 203.48 269.339 203.48 268.019C203.48 266.619 203.43 266.509 203.09 266.509H202.95C202.61 266.509 202.44 266.249 202.44 265.979C202.44 265.689 202.62 265.399 202.96 265.369C203.16 265.369 203.24 265.369 203.45 265.369C204.14 265.369 204.58 265.779 204.61 266.439C204.61 266.569 204.61 266.749 204.61 266.969C204.61 267.769 204.58 269.109 204.58 270.539C204.58 271.159 204.58 271.789 204.6 272.409V272.429C204.6 272.779 204.31 272.959 204.02 272.959L204.03 272.949Z" fill="white"/>
<path d="M211.47 272.399V272.419C211.47 272.769 211.21 272.929 210.94 272.929C210.67 272.929 210.39 272.759 210.39 272.399C210.39 272.039 210.39 271.639 210.39 271.229C209.42 271.239 208.39 271.239 208.29 271.239C207.62 271.239 207.28 270.909 207.28 270.469C207.28 270.239 207.37 269.969 207.56 269.699C208.16 268.849 209.81 266.539 210.53 265.539C210.64 265.379 210.79 265.319 210.94 265.319C211.24 265.319 211.53 265.569 211.53 265.889C211.53 266.009 211.49 266.139 211.39 266.269C208.46 270.079 208.46 270.089 208.46 270.159C208.46 270.279 208.62 270.279 208.87 270.279C209.21 270.279 209.81 270.259 210.4 270.249C210.4 269.849 210.4 269.469 210.4 269.169C210.4 268.949 210.4 268.769 210.4 268.639V268.599C210.4 268.249 210.67 268.059 210.94 268.059C211.21 268.059 211.46 268.239 211.46 268.629C211.46 269.099 211.43 269.479 211.43 270.219C211.8 270.219 212.07 270.199 212.12 270.199H212.15C212.48 270.199 212.66 270.439 212.66 270.689C212.66 270.939 212.47 271.199 212.08 271.209C211.96 271.209 211.72 271.209 211.43 271.209C211.43 271.539 211.45 271.939 211.46 272.389L211.47 272.399Z" fill="white"/>
<path d="M215.92 268.21C216.53 268.19 216.82 267.79 216.82 267.2C216.82 266.7 216.39 266.3 215.78 266.3C215.3 266.3 214.98 266.55 214.72 266.82C214.62 266.92 214.49 266.97 214.37 266.97C214.09 266.97 213.81 266.71 213.81 266.41C213.81 265.85 214.96 265.27 215.83 265.27C217.1 265.27 217.91 266.08 217.91 267.2C217.91 267.88 217.59 268.41 217.1 268.67C218.27 269.21 218.29 270.41 218.29 270.6C218.29 272.01 217.21 273.01 215.7 273.01C214.19 273.01 213.31 272.13 213.31 271.66C213.31 271.34 213.6 271.06 213.9 271.06C214.03 271.06 214.17 271.12 214.29 271.25C214.74 271.75 215.06 271.94 215.75 271.94C216.44 271.94 217.19 271.41 217.19 270.58C217.19 269.56 216.58 269.25 215.87 269.25H215.78C215.72 269.25 215.67 269.25 215.63 269.25C215.32 269.25 215.1 268.98 215.1 268.72C215.1 268.46 215.31 268.2 215.62 268.2H215.92V268.21Z" fill="white"/>
<path d="M220.52 272.369C220.52 272.219 220.6 272.059 220.79 271.929C221.85 271.239 222.84 269.959 222.84 269.719C222.84 269.699 222.84 269.689 222.81 269.689C222.78 269.689 222.78 269.699 222.75 269.709C222.4 269.879 222.04 269.949 221.7 269.949C220.62 269.949 219.4 269.219 219.4 267.689C219.4 266.449 220.3 265.279 221.91 265.279C223.28 265.279 224.43 266.239 224.43 267.849C224.43 268.679 224.13 269.529 223.75 270.239C223.35 270.979 221.82 272.919 221.1 272.919C220.78 272.919 220.52 272.649 220.52 272.369ZM221.89 266.279C221.13 266.279 220.41 266.789 220.41 267.659C220.41 268.599 221.17 268.989 221.84 268.989C222.78 268.989 223.34 268.319 223.34 267.599C223.34 266.799 222.69 266.279 221.89 266.279Z" fill="white"/>
<path d="M226.52 272.369C226.52 272.219 226.6 272.059 226.79 271.929C227.85 271.239 228.84 269.959 228.84 269.719C228.84 269.699 228.84 269.689 228.81 269.689C228.78 269.689 228.78 269.699 228.75 269.709C228.4 269.879 228.04 269.949 227.7 269.949C226.62 269.949 225.4 269.219 225.4 267.689C225.4 266.449 226.3 265.279 227.91 265.279C229.28 265.279 230.43 266.239 230.43 267.849C230.43 268.679 230.13 269.529 229.75 270.239C229.35 270.979 227.82 272.919 227.1 272.919C226.78 272.919 226.52 272.649 226.52 272.369ZM227.89 266.279C227.13 266.279 226.41 266.789 226.41 267.659C226.41 268.599 227.17 268.989 227.84 268.989C228.78 268.989 229.34 268.319 229.34 267.599C229.34 266.799 228.69 266.279 227.89 266.279Z" fill="white"/>
<path d="M234.03 272.949C233.74 272.949 233.44 272.759 233.44 272.399C233.44 271.469 233.48 269.339 233.48 268.019C233.48 266.619 233.43 266.509 233.09 266.509H232.95C232.61 266.509 232.44 266.249 232.44 265.979C232.44 265.689 232.62 265.399 232.96 265.369C233.16 265.369 233.24 265.369 233.45 265.369C234.14 265.369 234.58 265.779 234.61 266.439C234.61 266.569 234.61 266.749 234.61 266.969C234.61 267.769 234.58 269.109 234.58 270.539C234.58 271.159 234.58 271.789 234.6 272.409V272.429C234.6 272.779 234.31 272.959 234.02 272.959L234.03 272.949Z" fill="white"/>
<path d="M237.47 270.42C237.43 269.99 237.41 269.57 237.41 269.15C237.41 268.77 237.43 268.38 237.46 267.97C237.6 266.23 238.55 265.27 239.91 265.27C241.27 265.27 242.19 266.19 242.35 267.86C242.39 268.3 242.42 268.74 242.42 269.17C242.42 270.3 242.33 273.02 239.91 273.02C238.58 273.02 237.63 272.1 237.47 270.42ZM241.18 270.46C241.24 270.02 241.27 269.53 241.27 269.05C241.27 268.28 241.27 266.3 239.9 266.3C239.2 266.3 238.67 266.94 238.57 268.01C238.54 268.38 238.52 268.75 238.52 269.11C238.52 269.53 238.54 269.95 238.59 270.36C238.71 271.38 239.25 271.97 239.9 271.97C240.55 271.97 241.04 271.41 241.18 270.46Z" fill="white"/>
<path d="M188.85 288C188.83 287.74 188.81 287.49 188.81 287.24C188.81 287.01 188.82 286.78 188.84 286.53C188.92 285.49 189.49 284.91 190.31 284.91C191.13 284.91 191.68 285.46 191.77 286.46C191.79 286.72 191.81 286.99 191.81 287.25C191.81 287.93 191.76 289.56 190.31 289.56C189.51 289.56 188.94 289.01 188.85 288ZM191.08 288.02C191.12 287.76 191.13 287.46 191.13 287.17C191.13 286.71 191.13 285.52 190.31 285.52C189.89 285.52 189.57 285.9 189.51 286.55C189.49 286.77 189.48 286.99 189.48 287.21C189.48 287.46 189.49 287.71 189.52 287.96C189.59 288.57 189.92 288.93 190.31 288.93C190.7 288.93 190.99 288.59 191.08 288.02Z" fill="white"/>
<path d="M192.74 289.48C192.53 289.48 192.4 289.32 192.4 289.13C192.4 289 192.45 288.85 192.57 288.72C192.98 288.25 193.68 287.54 194.21 286.89C194.45 286.6 194.55 286.34 194.55 286.12C194.55 285.74 194.26 285.51 193.93 285.51C193.67 285.51 193.39 285.65 193.19 285.97C193.11 286.1 192.99 286.15 192.88 286.15C192.7 286.15 192.53 286.02 192.53 285.83C192.53 285.62 192.99 284.91 193.93 284.91C194.63 284.91 195.29 285.34 195.29 286.06C195.29 286.4 195.15 286.8 194.79 287.25C194.33 287.83 193.75 288.34 193.25 288.87C193.75 288.87 194.43 288.82 194.92 288.82C195.17 288.82 195.28 288.98 195.28 289.13C195.28 289.3 195.15 289.48 194.9 289.48H192.75H192.74Z" fill="white"/>
<path d="M196.17 289.74C196.02 289.74 195.87 289.63 195.87 289.47C195.87 289.43 195.87 289.4 195.89 289.36C196.17 288.67 197.43 285.37 197.56 284.89C197.6 284.76 197.7 284.7 197.82 284.7C197.97 284.7 198.13 284.81 198.13 284.96C198.13 284.99 198.13 285.02 198.11 285.06C197.94 285.48 196.72 288.75 196.43 289.56C196.38 289.69 196.27 289.75 196.17 289.75V289.74Z" fill="white"/>
<path d="M198.64 288C198.62 287.74 198.6 287.49 198.6 287.24C198.6 287.01 198.61 286.78 198.63 286.53C198.71 285.49 199.28 284.91 200.1 284.91C200.92 284.91 201.47 285.46 201.56 286.46C201.58 286.72 201.6 286.99 201.6 287.25C201.6 287.93 201.55 289.56 200.1 289.56C199.3 289.56 198.73 289.01 198.64 288ZM200.87 288.02C200.91 287.76 200.92 287.46 200.92 287.17C200.92 286.71 200.92 285.52 200.1 285.52C199.68 285.52 199.36 285.9 199.3 286.55C199.28 286.77 199.27 286.99 199.27 287.21C199.27 287.46 199.28 287.71 199.31 287.96C199.38 288.57 199.71 288.93 200.1 288.93C200.49 288.93 200.78 288.59 200.87 288.02Z" fill="white"/>
<path d="M203.7 289.55C202.91 289.55 202.18 288.99 202.18 288.01C202.18 287.52 202.37 287 202.59 286.58C202.84 286.12 203.75 284.97 204.14 284.97C204.34 284.97 204.51 285.15 204.51 285.32C204.51 285.4 204.47 285.49 204.38 285.55C203.67 286.01 203.1 286.8 203.1 286.93C203.1 286.94 203.1 286.95 203.12 286.95C203.13 286.95 203.14 286.95 203.16 286.94C203.38 286.84 203.6 286.79 203.82 286.79C204.71 286.79 205.2 287.42 205.2 288.13C205.2 288.95 204.57 289.56 203.7 289.56V289.55ZM203.72 287.32C203.14 287.32 202.82 287.74 202.82 288.16C202.82 288.67 203.24 288.94 203.68 288.94C204.28 288.94 204.57 288.53 204.57 288.12C204.57 287.71 204.26 287.32 203.71 287.32H203.72Z" fill="white"/>
<path d="M205.95 289.74C205.8 289.74 205.65 289.63 205.65 289.47C205.65 289.43 205.65 289.4 205.67 289.36C205.95 288.67 207.21 285.37 207.34 284.89C207.38 284.76 207.48 284.7 207.6 284.7C207.75 284.7 207.91 284.81 207.91 284.96C207.91 284.99 207.91 285.02 207.89 285.06C207.72 285.48 206.5 288.75 206.21 289.56C206.16 289.69 206.05 289.75 205.95 289.75V289.74Z" fill="white"/>
<path d="M208.42 288C208.4 287.74 208.38 287.49 208.38 287.24C208.38 287.01 208.39 286.78 208.41 286.53C208.49 285.49 209.06 284.91 209.88 284.91C210.7 284.91 211.25 285.46 211.34 286.46C211.36 286.72 211.38 286.99 211.38 287.25C211.38 287.93 211.33 289.56 209.88 289.56C209.08 289.56 208.51 289.01 208.42 288ZM210.65 288.02C210.69 287.76 210.7 287.46 210.7 287.17C210.7 286.71 210.7 285.52 209.88 285.52C209.46 285.52 209.14 285.9 209.08 286.55C209.06 286.77 209.05 286.99 209.05 287.21C209.05 287.46 209.06 287.71 209.09 287.96C209.16 288.57 209.49 288.93 209.88 288.93C210.27 288.93 210.56 288.59 210.65 288.02Z" fill="white"/>
<path d="M213.56 289.51C213.39 289.51 213.21 289.4 213.21 289.18C213.21 288.62 213.23 287.35 213.23 286.55C213.23 285.71 213.2 285.64 213 285.64H212.92C212.72 285.64 212.61 285.48 212.61 285.32C212.61 285.15 212.72 284.97 212.92 284.95C213.04 284.95 213.09 284.95 213.21 284.95C213.62 284.95 213.89 285.2 213.91 285.59C213.91 285.67 213.91 285.78 213.91 285.91C213.91 286.39 213.89 287.19 213.89 288.05C213.89 288.42 213.89 288.8 213.9 289.17C213.9 289.39 213.73 289.5 213.55 289.5L213.56 289.51Z" fill="white"/>
<path d="M236.59 287.75C236.53 287.75 236.23 287.75 235.9 287.77H235.89C235.7 287.77 235.59 287.6 235.59 287.42C235.59 287.1 235.85 287.1 236.05 287.1C236.34 287.1 236.68 287.11 236.88 287.11C237.4 287.11 237.59 287.37 237.59 287.75C237.59 288.43 236.98 289.56 235.55 289.56C234.34 289.56 233.31 288.66 233.31 287.27C233.31 286.05 234.17 284.89 235.63 284.89C236.58 284.89 237.23 285.44 237.23 285.77C237.23 285.97 237.06 286.14 236.86 286.14C236.75 286.14 236.64 286.09 236.55 285.98C236.32 285.69 235.94 285.55 235.56 285.55C234.51 285.55 234 286.47 234 287.23C234 287.99 234.52 288.85 235.54 288.85C236.56 288.85 236.8 288.08 236.8 287.91C236.8 287.8 236.71 287.74 236.6 287.74H236.59V287.75Z" fill="white"/>
<path d="M239.52 287.389C239.44 287.389 239.3 287.389 239.19 287.389C239.08 287.389 238.99 287.389 238.99 287.499C238.99 287.949 239.01 288.929 239.01 289.149C239.01 289.369 238.83 289.479 238.66 289.479C238.5 289.479 238.34 289.379 238.34 289.179C238.36 288.609 238.36 287.899 238.36 287.239C238.36 285.949 238.36 285.919 238.36 285.679C238.38 284.909 239.06 284.909 239.57 284.909C239.71 284.909 239.85 284.909 239.94 284.919C240.91 284.989 241.31 285.559 241.31 286.119C241.31 286.639 240.97 287.139 240.43 287.249C240.39 287.259 240.37 287.269 240.37 287.289C240.37 287.309 240.41 287.339 240.45 287.389C240.74 287.709 240.91 288.079 241.12 288.419C241.27 288.669 241.41 288.779 241.61 288.799C241.81 288.819 241.92 288.989 241.92 289.149C241.92 289.329 241.8 289.499 241.54 289.499C241.44 289.499 240.95 289.479 240.54 288.759C240.16 288.089 239.8 287.399 239.51 287.399L239.52 287.389ZM240.62 286.129C240.62 285.829 240.39 285.539 239.87 285.509C239.79 285.509 239.68 285.509 239.57 285.509C239.25 285.509 239.03 285.529 239.01 285.809C239 285.949 239.01 286.379 239 286.729C239 286.849 239.08 286.859 239.5 286.859C239.65 286.859 239.81 286.859 239.91 286.849C240.35 286.809 240.62 286.469 240.62 286.149V286.129Z" fill="white"/>
<path d="M243.58 289.519C243.03 289.519 242.27 289.229 242.27 288.839C242.27 288.659 242.41 288.499 242.58 288.499C242.65 288.499 242.72 288.529 242.79 288.589C243.04 288.809 243.34 288.899 243.61 288.899C244.23 288.899 244.56 288.439 244.56 287.989C244.56 287.759 244.43 287.189 243.74 287.189C243.58 287.189 243.41 287.229 243.27 287.269C243.19 287.299 243.13 287.349 243.04 287.349C243.01 287.349 242.98 287.349 242.95 287.349C242.69 287.349 242.52 287.229 242.52 286.939C242.52 286.889 242.64 285.959 242.73 285.429C242.79 285.099 242.93 284.949 243.31 284.949H243.35C243.52 284.949 243.61 284.949 244.6 284.949C244.81 284.949 244.92 285.109 244.92 285.269C244.92 285.419 244.82 285.579 244.61 285.579C244.44 285.579 243.63 285.579 243.45 285.579C243.34 285.579 243.29 285.629 243.27 285.739C243.24 285.949 243.15 286.429 243.13 286.549V286.589C243.13 286.589 243.14 286.659 243.18 286.659C243.21 286.659 243.26 286.639 243.32 286.629C243.43 286.609 243.59 286.589 243.77 286.589C244.84 286.589 245.22 287.319 245.22 287.969C245.22 288.849 244.57 289.509 243.58 289.509V289.519Z" fill="white"/>
<path d="M245.9 287.999C245.88 287.739 245.86 287.489 245.86 287.239C245.86 287.009 245.87 286.779 245.89 286.529C245.97 285.489 246.54 284.909 247.36 284.909C248.18 284.909 248.73 285.459 248.82 286.459C248.84 286.719 248.86 286.989 248.86 287.249C248.86 287.929 248.81 289.559 247.36 289.559C246.56 289.559 245.99 289.009 245.9 287.999ZM248.13 288.019C248.17 287.759 248.18 287.459 248.18 287.169C248.18 286.709 248.18 285.519 247.36 285.519C246.94 285.519 246.62 285.899 246.56 286.549C246.54 286.769 246.53 286.989 246.53 287.209C246.53 287.459 246.54 287.709 246.57 287.959C246.64 288.569 246.97 288.929 247.36 288.929C247.75 288.929 248.04 288.589 248.13 288.019Z" fill="white"/>
<path d="M250.98 286.669C251.35 286.659 251.52 286.419 251.52 286.059C251.52 285.759 251.26 285.519 250.9 285.519C250.61 285.519 250.42 285.669 250.27 285.829C250.21 285.889 250.13 285.919 250.06 285.919C249.89 285.919 249.72 285.759 249.72 285.579C249.72 285.239 250.41 284.899 250.93 284.899C251.69 284.899 252.18 285.389 252.18 286.059C252.18 286.469 251.99 286.789 251.69 286.939C252.39 287.259 252.4 287.979 252.4 288.099C252.4 288.939 251.75 289.549 250.85 289.549C249.95 289.549 249.42 289.019 249.42 288.739C249.42 288.549 249.59 288.379 249.77 288.379C249.85 288.379 249.93 288.419 250 288.489C250.27 288.789 250.46 288.899 250.88 288.899C251.3 288.899 251.74 288.579 251.74 288.079C251.74 287.469 251.37 287.279 250.95 287.279H250.9C250.9 287.279 250.83 287.279 250.81 287.279C250.62 287.279 250.49 287.119 250.49 286.959C250.49 286.799 250.62 286.649 250.8 286.649H250.98V286.669Z" fill="white"/>
<path d="M253.1 287.999C253.08 287.739 253.06 287.489 253.06 287.239C253.06 287.009 253.07 286.779 253.09 286.529C253.17 285.489 253.74 284.909 254.56 284.909C255.38 284.909 255.93 285.459 256.02 286.459C256.04 286.719 256.06 286.989 256.06 287.249C256.06 287.929 256.01 289.559 254.56 289.559C253.76 289.559 253.19 289.009 253.1 287.999ZM255.33 288.019C255.37 287.759 255.38 287.459 255.38 287.169C255.38 286.709 255.38 285.519 254.56 285.519C254.14 285.519 253.82 285.899 253.76 286.549C253.74 286.769 253.73 286.989 253.73 287.209C253.73 287.459 253.74 287.709 253.77 287.959C253.84 288.569 254.17 288.929 254.56 288.929C254.95 288.929 255.24 288.589 255.33 288.019Z" fill="white"/>
<path d="M258.24 289.509C258.07 289.509 257.89 289.399 257.89 289.179C257.89 288.619 257.91 287.349 257.91 286.549C257.91 285.709 257.88 285.639 257.68 285.639H257.6C257.4 285.639 257.29 285.479 257.29 285.319C257.29 285.149 257.4 284.969 257.6 284.949C257.72 284.949 257.77 284.949 257.89 284.949C258.3 284.949 258.57 285.199 258.59 285.589C258.59 285.669 258.59 285.779 258.59 285.909C258.59 286.389 258.57 287.189 258.57 288.049C258.57 288.419 258.57 288.799 258.58 289.169C258.58 289.389 258.41 289.499 258.23 289.499L258.24 289.509Z" fill="white"/>
<path d="M217.66 291.62C217.38 291.62 217.16 291.4 217.16 291.12V280.37C217.16 280.09 217.38 279.87 217.66 279.87C217.94 279.87 218.16 280.09 218.16 280.37V291.12C218.16 291.4 217.94 291.62 217.66 291.62Z" fill="white"/>
<path d="M190.73 304.281C190.73 304.491 190.55 304.601 190.37 304.601C190.19 304.601 190.01 304.491 190.01 304.281C190.02 303.551 190.04 302.751 190.04 301.981C190.04 301.411 190.03 300.861 190.01 300.381C190 300.131 190.27 300.061 190.38 300.061C190.55 300.061 190.73 300.161 190.73 300.351C190.72 300.861 190.71 301.421 190.71 302.001C190.71 302.751 190.71 303.531 190.73 304.271V304.281Z" fill="white"/>
<path d="M191.84 301.461C191.7 301.461 191.57 301.351 191.57 301.201C191.57 301.091 191.63 300.961 192.07 300.221C192.14 300.091 192.25 300.041 192.35 300.041C192.53 300.041 192.7 300.191 192.7 300.381C192.7 300.451 192.68 300.521 192.63 300.591C192.47 300.821 192.2 301.181 192.04 301.361C191.98 301.431 191.91 301.461 191.84 301.461Z" fill="white"/>
<path d="M196.33 304.311C196.33 304.081 196.33 303.641 196.33 303.281C196.33 303.011 196.33 302.781 196.33 302.671C196.31 302.321 196.13 302.171 195.91 302.171C195.59 302.171 195.21 302.481 195.2 302.881C195.2 302.981 195.2 303.091 195.2 303.231C195.2 303.491 195.2 303.841 195.22 304.301C195.22 304.511 195.07 304.621 194.92 304.621C194.77 304.621 194.63 304.521 194.63 304.311C194.63 304.071 194.63 303.641 194.63 303.271C194.63 303.001 194.63 302.771 194.63 302.661C194.61 302.301 194.42 302.161 194.21 302.161C193.9 302.161 193.53 302.471 193.51 302.881C193.51 302.981 193.51 303.091 193.51 303.231C193.51 303.491 193.51 303.841 193.53 304.301C193.53 304.551 193.37 304.621 193.24 304.621C193.09 304.621 192.93 304.511 192.93 304.301C192.95 303.651 192.95 303.231 192.95 302.841C192.95 302.541 192.95 302.251 192.94 301.901C192.94 301.691 193.1 301.601 193.24 301.601C193.38 301.601 193.54 301.701 193.54 301.901C193.54 301.921 193.54 301.931 193.54 301.931C193.54 301.931 193.56 301.921 193.56 301.911C193.75 301.691 194.02 301.591 194.28 301.591C194.61 301.591 194.93 301.771 195.09 302.141C195.32 301.771 195.67 301.601 196 301.601C196.47 301.601 196.91 301.961 196.93 302.611C196.93 302.821 196.94 303.341 196.94 303.771C196.94 303.971 196.94 304.151 196.94 304.281C196.94 304.511 196.79 304.621 196.64 304.621C196.49 304.621 196.35 304.511 196.35 304.301L196.33 304.311Z" fill="white"/>
<path d="M201.59 304.491C201.54 304.451 201.48 304.381 201.43 304.291C201.43 304.281 201.41 304.271 201.41 304.271C201.4 304.271 201.39 304.271 201.37 304.291C201.17 304.521 200.79 304.651 200.43 304.651C199.77 304.651 199.38 304.171 199.38 303.711C199.38 303.401 199.56 303.101 199.96 302.961C200.37 302.821 200.89 302.701 200.99 302.701C201.05 302.701 201.1 302.621 201.1 302.501C201.1 302.431 201.08 302.121 200.67 302.121C200.4 302.121 200.2 302.251 200.08 302.371C200.01 302.451 199.93 302.481 199.86 302.481C199.7 302.481 199.57 302.361 199.57 302.201C199.57 301.911 200.1 301.591 200.7 301.591C201.36 301.591 201.72 301.911 201.72 302.601C201.72 302.681 201.72 302.751 201.71 302.831C201.7 302.921 201.68 303.151 201.68 303.331C201.68 303.381 201.68 303.431 201.68 303.471C201.73 303.951 201.96 303.971 202 304.001C202.07 304.051 202.1 304.131 202.1 304.211C202.1 304.381 201.97 304.571 201.79 304.571C201.72 304.571 201.65 304.541 201.57 304.481L201.59 304.491ZM201.04 303.201C200.03 303.331 199.97 303.581 199.97 303.721C199.97 303.911 200.13 304.091 200.44 304.091C200.93 304.091 201.14 303.841 201.14 303.421C201.14 303.331 201.13 303.201 201.06 303.201H201.04Z" fill="white"/>
<path d="M205.15 304.641C204.42 304.641 204.11 304.231 204.11 304.031C204.11 303.871 204.26 303.741 204.42 303.741C204.5 303.741 204.59 303.781 204.66 303.871C204.74 303.981 204.9 304.081 205.15 304.081C205.47 304.081 205.59 303.911 205.59 303.771C205.59 303.581 205.46 303.461 204.76 303.151C204.39 302.991 204.22 302.691 204.22 302.401C204.22 301.991 204.55 301.601 205.13 301.601C205.71 301.601 206.05 301.871 206.05 302.101C206.05 302.261 205.91 302.401 205.75 302.401C205.67 302.401 205.58 302.361 205.5 302.281C205.44 302.221 205.33 302.141 205.12 302.141C204.91 302.141 204.8 302.251 204.8 302.391C204.8 302.481 204.86 302.591 205 302.651C205.16 302.731 205.43 302.851 205.61 302.941C206.02 303.161 206.2 303.471 206.2 303.761C206.2 304.231 205.75 304.641 205.15 304.641Z" fill="white"/>
<path d="M207.79 302.221C207.7 302.221 207.7 302.251 207.7 302.291C207.7 302.511 207.68 303.021 207.68 303.421C207.68 303.891 207.7 304.081 208.03 304.081C208.07 304.081 208.12 304.081 208.17 304.071C208.19 304.071 208.2 304.071 208.22 304.071C208.38 304.071 208.48 304.201 208.48 304.331C208.48 304.551 208.28 304.651 207.97 304.651C207.08 304.651 207.08 303.861 207.08 303.621C207.08 303.271 207.09 302.671 207.09 302.411V302.321C207.09 302.241 207.05 302.241 206.99 302.241H206.81C206.64 302.241 206.54 302.101 206.54 301.951C206.54 301.801 206.63 301.671 206.81 301.671H206.98C207.08 301.671 207.08 301.651 207.08 301.571C207.08 301.571 207.08 301.451 207.08 301.311C207.08 301.241 207.08 301.171 207.08 301.101V301.081C207.08 300.901 207.22 300.811 207.38 300.811C207.7 300.811 207.7 301.101 207.7 301.181C207.7 301.341 207.69 301.571 207.69 301.571C207.69 301.671 207.71 301.671 207.77 301.671H208.17C208.35 301.671 208.43 301.811 208.43 301.951C208.43 302.091 208.35 302.231 208.17 302.231H207.77L207.79 302.221Z" fill="white"/>
<path d="M209.73 301.941C209.73 302.191 209.72 302.641 209.72 303.011C209.72 303.241 209.72 303.451 209.73 303.541C209.75 303.931 209.98 304.091 210.23 304.091C210.57 304.091 210.95 303.801 210.97 303.411C210.97 303.281 210.98 303.091 210.98 302.851C210.98 302.611 210.98 302.301 210.96 301.941C210.96 301.731 211.11 301.631 211.27 301.631C211.43 301.631 211.59 301.731 211.59 301.931C211.57 302.581 211.56 302.951 211.56 303.341C211.56 303.601 211.61 303.861 211.72 304.071C211.76 304.151 211.77 304.221 211.77 304.281C211.77 304.471 211.61 304.591 211.46 304.591C211.26 304.591 211.17 304.451 211.11 304.251C211.11 304.231 211.1 304.221 211.09 304.221C211.09 304.221 211.08 304.221 211.07 304.241C210.84 304.501 210.49 304.641 210.16 304.641C209.64 304.641 209.14 304.301 209.12 303.631C209.12 303.441 209.11 303.011 209.11 302.601C209.11 302.351 209.11 302.111 209.11 301.951C209.11 301.731 209.27 301.631 209.43 301.631C209.59 301.631 209.74 301.731 209.74 301.921L209.73 301.941Z" fill="white"/>
<path d="M213.17 301.93C213.17 301.93 213.18 301.93 213.19 301.93C213.41 301.74 213.69 301.62 214.02 301.62C214.85 301.62 215.47 302.22 215.47 303.13C215.47 304.04 214.85 304.63 214.02 304.63C213.69 304.63 213.41 304.5 213.19 304.31C213.18 304.31 213.17 304.29 213.16 304.29C213.15 304.29 213.14 304.3 213.14 304.33C213.14 304.99 213.15 305.56 213.16 305.8C213.16 305.99 213.04 306.11 212.85 306.11C212.69 306.11 212.53 306 212.53 305.8V305.77C212.55 305.55 212.55 305.1 212.55 304.58C212.55 303.67 212.54 302.55 212.54 301.98C212.54 301.76 212.7 301.64 212.85 301.64C212.99 301.64 213.13 301.74 213.15 301.92C213.15 301.93 213.16 301.94 213.17 301.94V301.93ZM214.87 303.12C214.87 302.53 214.49 302.17 214.01 302.17C213.53 302.17 213.15 302.53 213.15 303.12C213.15 303.71 213.53 304.08 214.01 304.08C214.49 304.08 214.87 303.71 214.87 303.12Z" fill="white"/>
<path d="M216.16 300.431C216.16 300.141 216.41 300.021 216.58 300.021C216.8 300.021 217 300.201 217 300.431C217 300.651 216.84 300.861 216.58 300.861C216.35 300.861 216.16 300.711 216.16 300.431ZM216.58 304.631C216.42 304.631 216.26 304.531 216.26 304.321C216.26 303.821 216.26 303.141 216.26 302.591C216.26 302.321 216.26 302.081 216.26 301.921C216.26 301.721 216.4 301.611 216.58 301.611C216.74 301.611 216.9 301.711 216.9 301.901C216.9 302.161 216.89 302.631 216.89 303.141C216.89 303.551 216.89 303.981 216.9 304.311C216.9 304.531 216.74 304.631 216.58 304.631Z" fill="white"/>
<path d="M220.48 304.59C220.34 304.59 220.23 304.54 220.14 304.21C220.14 304.19 220.13 304.17 220.12 304.17C220.12 304.17 220.1 304.18 220.09 304.19C219.86 304.44 219.53 304.61 219.14 304.61C218.31 304.61 217.68 304.01 217.68 303.11C217.68 302.21 218.31 301.6 219.14 301.6C219.48 301.6 219.76 301.73 219.98 301.92H220C220.01 301.92 220.02 301.92 220.02 301.9C220.02 301.2 220.01 300.59 220 300.34C220 300.15 220.13 300.03 220.31 300.03C220.47 300.03 220.62 300.13 220.62 300.34V300.37C220.61 300.57 220.6 301 220.6 301.5C220.6 303.72 220.6 303.74 220.78 304.08C220.81 304.13 220.82 304.19 220.82 304.24C220.82 304.43 220.65 304.57 220.47 304.57L220.48 304.59ZM220.02 303.12C220.02 302.53 219.64 302.16 219.16 302.16C218.68 302.16 218.3 302.53 218.3 303.12C218.3 303.71 218.68 304.07 219.16 304.07C219.64 304.07 220.02 303.71 220.02 303.12Z" fill="white"/>
<path d="M223.97 301.93C223.97 301.93 223.98 301.93 223.99 301.93C224.21 301.74 224.49 301.62 224.82 301.62C225.65 301.62 226.27 302.22 226.27 303.13C226.27 304.04 225.65 304.63 224.82 304.63C224.49 304.63 224.21 304.5 223.99 304.31C223.98 304.31 223.97 304.29 223.96 304.29C223.95 304.29 223.94 304.3 223.94 304.33C223.94 304.99 223.95 305.56 223.96 305.8C223.96 305.99 223.84 306.11 223.65 306.11C223.49 306.11 223.33 306 223.33 305.8V305.77C223.35 305.55 223.35 305.1 223.35 304.58C223.35 303.67 223.34 302.55 223.34 301.98C223.34 301.76 223.5 301.64 223.65 301.64C223.79 301.64 223.93 301.74 223.95 301.92C223.95 301.93 223.96 301.94 223.97 301.94V301.93ZM225.67 303.12C225.67 302.53 225.29 302.17 224.81 302.17C224.33 302.17 223.95 302.53 223.95 303.12C223.95 303.71 224.33 304.08 224.81 304.08C225.29 304.08 225.67 303.71 225.67 303.12Z" fill="white"/>
<path d="M227.04 304.321C227.06 303.741 227.06 303.341 227.06 302.991C227.06 302.641 227.06 302.321 227.04 301.921C227.04 301.731 227.21 301.641 227.36 301.641C227.51 301.641 227.67 301.731 227.67 301.921C227.67 301.941 227.67 301.961 227.67 301.981V302.001V302.021C227.67 302.021 227.68 302.021 227.69 302.001C227.93 301.741 228.25 301.631 228.46 301.631C228.65 301.631 228.75 301.771 228.75 301.921C228.75 302.071 228.64 302.231 228.41 302.251C228.06 302.291 227.66 302.581 227.64 302.961C227.64 303.071 227.64 303.191 227.64 303.361C227.64 303.591 227.64 303.891 227.66 304.321C227.66 304.451 227.59 304.631 227.35 304.631C227.19 304.631 227.03 304.531 227.03 304.341L227.04 304.321Z" fill="white"/>
<path d="M229.28 300.431C229.28 300.141 229.53 300.021 229.7 300.021C229.92 300.021 230.12 300.201 230.12 300.431C230.12 300.651 229.96 300.861 229.7 300.861C229.47 300.861 229.28 300.711 229.28 300.431ZM229.7 304.631C229.54 304.631 229.38 304.531 229.38 304.321C229.38 303.821 229.38 303.141 229.38 302.591C229.38 302.321 229.38 302.081 229.38 301.921C229.38 301.721 229.52 301.611 229.7 301.611C229.86 301.611 230.02 301.711 230.02 301.901C230.02 302.161 230.01 302.631 230.01 303.141C230.01 303.551 230.01 303.981 230.02 304.311C230.02 304.531 229.86 304.631 229.7 304.631Z" fill="white"/>
<path d="M231.76 304.641C231.03 304.641 230.72 304.231 230.72 304.031C230.72 303.871 230.87 303.741 231.03 303.741C231.11 303.741 231.2 303.781 231.27 303.871C231.35 303.981 231.51 304.081 231.76 304.081C232.08 304.081 232.2 303.911 232.2 303.771C232.2 303.581 232.07 303.461 231.37 303.151C231 302.991 230.83 302.691 230.83 302.401C230.83 301.991 231.16 301.601 231.74 301.601C232.32 301.601 232.66 301.871 232.66 302.101C232.66 302.261 232.52 302.401 232.36 302.401C232.28 302.401 232.19 302.361 232.11 302.281C232.05 302.221 231.94 302.141 231.73 302.141C231.52 302.141 231.41 302.251 231.41 302.391C231.41 302.481 231.47 302.591 231.61 302.651C231.77 302.731 232.04 302.851 232.22 302.941C232.63 303.161 232.81 303.471 232.81 303.761C232.81 304.231 232.36 304.641 231.76 304.641Z" fill="white"/>
<path d="M233.3 303.121C233.3 302.241 233.95 301.601 234.81 301.601C235.67 301.601 236.31 302.241 236.31 303.121C236.31 304.001 235.66 304.641 234.81 304.641C233.96 304.641 233.3 304.031 233.3 303.121ZM235.71 303.121C235.71 302.531 235.3 302.151 234.81 302.151C234.32 302.151 233.9 302.521 233.9 303.121C233.9 303.721 234.31 304.071 234.81 304.071C235.31 304.071 235.71 303.701 235.71 303.121Z" fill="white"/>
<path d="M238.99 304.311C238.99 304.061 239 303.611 239 303.241C239 303.001 239 302.801 238.99 302.701C238.97 302.331 238.76 302.181 238.5 302.181C238.13 302.181 237.7 302.501 237.68 302.911C237.68 303.021 237.68 303.161 237.68 303.321C237.68 303.571 237.68 303.881 237.7 304.311C237.7 304.441 237.63 304.621 237.39 304.621C237.23 304.621 237.07 304.521 237.07 304.331C237.09 303.751 237.09 303.351 237.09 303.001C237.09 302.651 237.09 302.331 237.07 301.931C237.07 301.741 237.24 301.651 237.39 301.651C237.54 301.651 237.7 301.741 237.7 301.931C237.7 301.951 237.7 301.971 237.7 301.991V302.011V302.021C237.7 302.021 237.72 302.011 237.73 302.001C237.95 301.761 238.27 301.641 238.58 301.641C239.08 301.641 239.57 301.971 239.59 302.641C239.59 302.861 239.61 303.391 239.61 303.831C239.61 304.021 239.61 304.181 239.61 304.311C239.61 304.531 239.45 304.631 239.3 304.631C239.15 304.631 238.99 304.521 238.99 304.331V304.311Z" fill="white"/>
<path d="M241.74 304.651C240.92 304.651 240.31 304.031 240.31 303.141C240.31 302.251 240.96 301.591 241.73 301.591C242.56 301.591 243.02 302.201 243.02 302.651C243.02 302.931 242.83 303.161 242.45 303.171C242.26 303.171 242.14 303.171 240.97 303.171C240.93 303.171 240.92 303.221 240.92 303.281C240.92 303.781 241.31 304.081 241.74 304.081C242.12 304.081 242.35 303.901 242.52 303.711C242.58 303.641 242.65 303.611 242.72 303.611C242.88 303.611 243.04 303.751 243.04 303.921C243.04 303.991 243.02 304.061 242.95 304.131C242.66 304.431 242.34 304.631 241.73 304.631L241.74 304.651ZM242.4 302.551C242.4 302.471 242.27 302.111 241.73 302.111C241.24 302.111 240.98 302.531 240.98 302.631C240.98 302.681 241.04 302.681 241.6 302.681C241.85 302.681 242.12 302.681 242.28 302.681C242.35 302.681 242.4 302.621 242.4 302.551Z" fill="white"/>
<path d="M243.78 304.321C243.8 303.741 243.8 303.341 243.8 302.991C243.8 302.641 243.8 302.321 243.78 301.921C243.78 301.731 243.95 301.641 244.1 301.641C244.25 301.641 244.41 301.731 244.41 301.921C244.41 301.941 244.41 301.961 244.41 301.981V302.001V302.021C244.41 302.021 244.42 302.021 244.43 302.001C244.67 301.741 244.99 301.631 245.2 301.631C245.39 301.631 245.49 301.771 245.49 301.921C245.49 302.071 245.38 302.231 245.15 302.251C244.8 302.291 244.4 302.581 244.38 302.961C244.38 303.071 244.38 303.191 244.38 303.361C244.38 303.591 244.38 303.891 244.4 304.321C244.4 304.451 244.33 304.631 244.09 304.631C243.93 304.631 243.77 304.531 243.77 304.341L243.78 304.321Z" fill="white"/>
<path d="M139.81 233.11C139.13 233.11 138.45 232.86 137.92 232.36L135.93 230.47C135.4 229.96 135.09 229.28 135.07 228.55C135.05 227.82 135.32 227.12 135.83 226.58C136.87 225.48 138.62 225.44 139.72 226.48L141.72 228.37C142.82 229.41 142.86 231.16 141.82 232.26C141.28 232.83 140.55 233.12 139.82 233.12L139.81 233.11ZM138.6 231.63C139.3 232.29 140.41 232.27 141.07 231.56C141.73 230.86 141.7 229.75 141.01 229.09L139.01 227.2C138.31 226.54 137.2 226.56 136.54 227.26C136.22 227.6 136.05 228.04 136.06 228.51C136.07 228.98 136.27 229.41 136.6 229.73L138.6 231.62V231.63Z" fill="#D9DBE0"/>
<path d="M146.76 239.711C146.08 239.711 145.4 239.461 144.87 238.961L142.88 237.071C141.78 236.031 141.73 234.281 142.78 233.181C143.82 232.081 145.57 232.041 146.67 233.081L148.67 234.971C149.2 235.481 149.51 236.161 149.53 236.891C149.55 237.621 149.28 238.321 148.77 238.851C148.23 239.421 147.5 239.711 146.77 239.711H146.76ZM145.55 238.231C146.25 238.891 147.36 238.861 148.02 238.171C148.34 237.831 148.51 237.391 148.5 236.921C148.49 236.451 148.29 236.021 147.96 235.701L145.96 233.811C145.26 233.151 144.15 233.181 143.49 233.871C142.83 234.571 142.86 235.681 143.55 236.341L145.54 238.231H145.55Z" fill="#D9DBE0"/>
<path d="M146.87 239.99C146.19 239.99 145.51 239.74 144.98 239.24L142.99 237.35C141.89 236.31 141.84 234.56 142.89 233.46C143.93 232.36 145.68 232.32 146.78 233.36L148.78 235.25C149.88 236.29 149.92 238.04 148.88 239.14C148.34 239.71 147.61 240 146.88 240L146.87 239.99ZM145.67 238.51C146.37 239.17 147.48 239.14 148.14 238.45C148.8 237.75 148.78 236.64 148.08 235.98L146.08 234.09C145.38 233.43 144.27 233.46 143.61 234.15C142.95 234.85 142.98 235.96 143.67 236.62L145.66 238.51H145.67Z" fill="#D9DBE0"/>
<path d="M154.18 246.76C153.5 246.76 152.82 246.51 152.29 246.01L150.3 244.12C149.2 243.08 149.16 241.33 150.2 240.23C151.24 239.13 152.99 239.08 154.09 240.13L156.09 242.02C157.19 243.06 157.23 244.81 156.19 245.91C155.65 246.48 154.92 246.77 154.19 246.77L154.18 246.76ZM152.98 245.28C153.68 245.94 154.79 245.92 155.45 245.22C156.11 244.52 156.09 243.41 155.39 242.75L153.4 240.86C152.7 240.2 151.59 240.23 150.93 240.92C150.27 241.62 150.3 242.73 150.99 243.39L152.98 245.28Z" fill="#D9DBE0"/>
<path d="M132.86 226.51C132.18 226.51 131.5 226.26 130.97 225.76L128.98 223.87C127.88 222.83 127.84 221.08 128.88 219.98C129.92 218.88 131.67 218.83 132.77 219.88L134.77 221.77C135.87 222.81 135.91 224.56 134.87 225.66C134.33 226.23 133.6 226.52 132.87 226.52L132.86 226.51ZM131.65 225.03C132.35 225.69 133.46 225.66 134.12 224.97C134.78 224.27 134.75 223.16 134.06 222.5L132.06 220.61C131.36 219.95 130.25 219.98 129.59 220.67C128.93 221.37 128.95 222.48 129.65 223.14L131.64 225.03H131.65Z" fill="#D9DBE0"/>
<path d="M138.09 229.231C137.97 229.231 137.84 229.181 137.75 229.091L132.41 224.021C132.21 223.831 132.2 223.511 132.39 223.311C132.58 223.111 132.9 223.101 133.1 223.291L138.44 228.361C138.64 228.551 138.65 228.871 138.46 229.071C138.36 229.171 138.23 229.231 138.1 229.231H138.09Z" fill="#D9DBE0"/>
<path d="M144.99 235.781C144.87 235.781 144.74 235.731 144.65 235.641L139.31 230.571C139.11 230.381 139.1 230.061 139.29 229.861C139.48 229.661 139.8 229.651 140 229.841L145.34 234.911C145.54 235.101 145.55 235.421 145.36 235.621C145.26 235.721 145.13 235.781 145 235.781H144.99Z" fill="#D9DBE0"/>
<path d="M144.99 235.781C144.87 235.781 144.74 235.731 144.65 235.641L139.31 230.571C139.11 230.381 139.1 230.061 139.29 229.861C139.48 229.661 139.8 229.651 140 229.841L145.34 234.911C145.54 235.101 145.55 235.421 145.36 235.621C145.26 235.721 145.13 235.781 145 235.781H144.99Z" fill="#D9DBE0"/>
<path d="M152.47 242.88C152.35 242.88 152.22 242.83 152.13 242.74L146.79 237.67C146.59 237.48 146.58 237.16 146.77 236.96C146.96 236.76 147.28 236.75 147.48 236.94L152.82 242.01C153.02 242.2 153.03 242.52 152.84 242.72C152.74 242.82 152.61 242.88 152.48 242.88H152.47Z" fill="#D9DBE0"/>
<path d="M159.94 249.981C159.82 249.981 159.69 249.931 159.6 249.841L154.26 244.771C154.06 244.581 154.05 244.261 154.24 244.061C154.43 243.861 154.75 243.851 154.95 244.041L160.29 249.111C160.49 249.301 160.5 249.621 160.31 249.821C160.21 249.921 160.08 249.981 159.95 249.981H159.94Z" fill="#D9DBE0"/>
<path d="M281.97 231.7C281.5 231.7 281.04 231.58 280.63 231.35C279.99 230.99 279.53 230.4 279.33 229.69C279.13 228.98 279.22 228.24 279.58 227.6L280.93 225.2C281.29 224.56 281.88 224.1 282.58 223.9C283.29 223.7 284.03 223.79 284.67 224.15C285.99 224.89 286.46 226.57 285.72 227.89L284.37 230.29C284.01 230.93 283.42 231.39 282.71 231.59C282.46 231.66 282.21 231.69 281.96 231.69L281.97 231.7ZM283.33 224.8C283.17 224.8 283.01 224.82 282.86 224.87C282.41 225 282.04 225.29 281.81 225.7L280.46 228.1C280.23 228.51 280.17 228.98 280.3 229.43C280.43 229.88 280.72 230.25 281.13 230.48C281.54 230.71 282.01 230.77 282.46 230.64C282.91 230.51 283.28 230.22 283.51 229.81L284.86 227.41C285.09 227 285.15 226.53 285.02 226.08C284.89 225.63 284.6 225.26 284.19 225.03C283.92 224.88 283.63 224.8 283.33 224.8Z" fill="#D9DBE0"/>
<path d="M277.27 240.05C276.8 240.05 276.34 239.93 275.93 239.7C275.29 239.34 274.83 238.75 274.63 238.04C274.43 237.33 274.52 236.59 274.88 235.95L276.23 233.55C276.59 232.91 277.18 232.45 277.89 232.25C278.6 232.05 279.34 232.14 279.98 232.5C281.3 233.24 281.77 234.92 281.03 236.24L279.68 238.64C279.32 239.28 278.73 239.74 278.02 239.94C277.77 240.01 277.52 240.04 277.27 240.04V240.05ZM278.63 233.15C278.47 233.15 278.31 233.17 278.16 233.22C277.71 233.35 277.34 233.64 277.11 234.05L275.76 236.45C275.53 236.86 275.47 237.33 275.6 237.78C275.73 238.23 276.02 238.6 276.43 238.83C276.84 239.06 277.31 239.12 277.76 238.99C278.21 238.86 278.58 238.57 278.81 238.16L280.16 235.76C280.39 235.35 280.45 234.88 280.32 234.43C280.19 233.98 279.9 233.61 279.49 233.38C279.22 233.23 278.93 233.15 278.63 233.15Z" fill="#D9DBE0"/>
<path d="M277.24 240.35C276.77 240.35 276.31 240.23 275.9 240C275.26 239.64 274.8 239.05 274.6 238.34C274.4 237.63 274.49 236.89 274.85 236.25L276.2 233.85C276.56 233.21 277.15 232.75 277.85 232.55C278.56 232.35 279.3 232.44 279.94 232.8C280.58 233.16 281.04 233.75 281.24 234.46C281.44 235.17 281.35 235.91 280.99 236.55L279.64 238.95C279.28 239.59 278.69 240.05 277.98 240.25C277.73 240.32 277.48 240.35 277.23 240.35H277.24ZM278.6 233.45C278.44 233.45 278.28 233.47 278.13 233.52C277.68 233.65 277.31 233.94 277.08 234.35L275.73 236.75C275.26 237.59 275.56 238.66 276.4 239.13C276.81 239.36 277.28 239.42 277.73 239.29C278.18 239.16 278.55 238.87 278.78 238.46L280.13 236.06C280.36 235.65 280.42 235.18 280.29 234.73C280.16 234.28 279.87 233.91 279.46 233.68C279.19 233.53 278.9 233.45 278.6 233.45Z" fill="#D9DBE0"/>
<path d="M272.25 248.97C271.78 248.97 271.32 248.85 270.91 248.62C270.27 248.26 269.81 247.67 269.61 246.96C269.41 246.25 269.5 245.51 269.86 244.87L271.21 242.47C271.57 241.83 272.16 241.37 272.87 241.17C273.58 240.97 274.32 241.06 274.96 241.42C275.6 241.78 276.06 242.37 276.26 243.08C276.46 243.79 276.37 244.53 276.01 245.17L274.66 247.57C274.3 248.21 273.71 248.67 273 248.87C272.75 248.94 272.5 248.97 272.25 248.97ZM273.61 242.08C273.45 242.08 273.29 242.1 273.14 242.15C272.69 242.28 272.32 242.57 272.09 242.98L270.74 245.38C270.27 246.22 270.57 247.29 271.41 247.76C271.82 247.99 272.29 248.05 272.74 247.92C273.19 247.79 273.56 247.5 273.79 247.09L275.14 244.69C275.37 244.28 275.43 243.81 275.3 243.36C275.17 242.91 274.88 242.54 274.47 242.31C274.2 242.16 273.91 242.08 273.61 242.08Z" fill="#D9DBE0"/>
<path d="M286.67 223.34C286.2 223.34 285.74 223.22 285.33 222.99C284.69 222.63 284.23 222.04 284.03 221.33C283.83 220.62 283.92 219.88 284.28 219.24L285.63 216.84C285.99 216.2 286.58 215.74 287.29 215.54C288 215.34 288.74 215.43 289.38 215.79C290.7 216.53 291.17 218.21 290.43 219.54L289.08 221.94C288.72 222.58 288.13 223.04 287.42 223.24C287.17 223.31 286.92 223.34 286.67 223.34ZM288.03 216.45C287.87 216.45 287.71 216.47 287.56 216.52C287.11 216.65 286.74 216.94 286.51 217.35L285.16 219.75C284.93 220.16 284.87 220.63 285 221.08C285.13 221.53 285.42 221.9 285.83 222.13C286.24 222.36 286.71 222.42 287.16 222.29C287.61 222.16 287.98 221.87 288.21 221.46L289.56 219.06C290.03 218.22 289.73 217.15 288.89 216.68C288.62 216.53 288.33 216.45 288.03 216.45Z" fill="#D9DBE0"/>
<path d="M283.14 227.38C283.06 227.38 282.97 227.36 282.89 227.32C282.65 227.19 282.56 226.88 282.7 226.64L286.31 220.23C286.44 219.99 286.75 219.9 286.99 220.04C287.23 220.17 287.32 220.48 287.18 220.72L283.57 227.13C283.48 227.29 283.31 227.38 283.13 227.38H283.14Z" fill="#D9DBE0"/>
<path d="M278.47 235.68C278.39 235.68 278.3 235.66 278.22 235.62C277.98 235.49 277.89 235.18 278.03 234.94L281.64 228.53C281.77 228.29 282.08 228.2 282.32 228.34C282.56 228.47 282.65 228.78 282.51 229.02L278.9 235.43C278.81 235.59 278.64 235.68 278.46 235.68H278.47Z" fill="#D9DBE0"/>
<path d="M278.47 235.68C278.39 235.68 278.3 235.66 278.22 235.62C277.98 235.49 277.89 235.18 278.03 234.94L281.64 228.53C281.77 228.29 282.08 228.2 282.32 228.34C282.56 228.47 282.65 228.78 282.51 229.02L278.9 235.43C278.81 235.59 278.64 235.68 278.46 235.68H278.47Z" fill="#D9DBE0"/>
<path d="M273.42 244.66C273.34 244.66 273.25 244.64 273.17 244.6C272.93 244.47 272.84 244.16 272.98 243.92L276.59 237.51C276.73 237.27 277.03 237.18 277.27 237.32C277.51 237.45 277.6 237.76 277.46 238L273.85 244.41C273.76 244.57 273.59 244.66 273.41 244.66H273.42Z" fill="#D9DBE0"/>
<path d="M268.52 253.37C268.44 253.37 268.35 253.35 268.27 253.31C268.03 253.18 267.94 252.87 268.08 252.63L271.69 246.22C271.82 245.98 272.13 245.89 272.37 246.03C272.61 246.16 272.7 246.47 272.56 246.71L268.95 253.12C268.86 253.28 268.69 253.37 268.51 253.37H268.52Z" fill="#D9DBE0"/>
<path d="M176.11 144.95C176.11 158.2 165.36 168.95 152.11 168.95C138.86 168.95 128.11 158.2 128.11 144.95H176.11Z" fill="white"/>
<path d="M152.11 169.45C138.6 169.45 127.61 158.46 127.61 144.95V144.45H176.61V144.95C176.61 158.46 165.62 169.45 152.11 169.45ZM128.62 145.45C128.89 158.18 139.32 168.45 152.12 168.45C164.92 168.45 175.35 158.18 175.62 145.45H128.63H128.62Z" fill="#231815"/>
<path d="M170.51 144.95C170.51 155.21 162.51 163.52 152.64 163.52C142.77 163.52 134.77 155.21 134.77 144.95H170.51Z" fill="#231815"/>
<path d="M281.11 144.95C281.11 158.2 270.36 168.95 257.11 168.95C243.86 168.95 233.11 158.2 233.11 144.95H281.11Z" fill="white"/>
<path d="M257.11 169.45C243.6 169.45 232.61 158.46 232.61 144.95V144.45H281.61V144.95C281.61 158.46 270.62 169.45 257.11 169.45ZM233.62 145.45C233.89 158.18 244.32 168.45 257.12 168.45C269.92 168.45 280.35 158.18 280.62 145.45H233.63H233.62Z" fill="#231815"/>
<path d="M275.51 144.95C275.51 155.21 267.51 163.52 257.64 163.52C247.77 163.52 239.77 155.21 239.77 144.95H275.51Z" fill="#231815"/>
<path d="M155.46 130.79C162.47 131.93 169.48 133.07 176.48 134.21C177.11 134.31 177.38 133.35 176.75 133.25C169.74 132.11 162.73 130.97 155.73 129.83C155.1 129.73 154.83 130.69 155.46 130.79Z" fill="#231815"/>
<path d="M253.5 128.11C246.49 129.25 239.48 130.39 232.48 131.53C231.85 131.63 232.12 132.6 232.75 132.49C239.76 131.35 246.77 130.21 253.77 129.07C254.4 128.97 254.13 128 253.5 128.11Z" fill="#231815"/>
<path d="M193.68 193.12C198.98 197.03 206.77 196.51 211.91 192.59C213.38 191.47 214.62 190.09 215.54 188.49C215.86 187.93 215 187.43 214.68 187.99C211.62 193.34 204.78 195.83 198.88 194.44C197.18 194.04 195.59 193.31 194.19 192.27C193.67 191.89 193.17 192.75 193.69 193.13L193.68 193.12Z" fill="#231815"/>
</g>
<defs>
<clipPath id="clip0_777_841">
<rect width="425.2" height="425.2" fill="white"/>
</clipPath>
</defs>
</svg>
