<svg width="62" height="49" viewBox="0 0 62 49" fill="none" xmlns="http://www.w3.org/2000/svg">
<path d="M1.5 38.3672V36.4731C2.32394 37.6014 3.60827 38.5792 5.16803 39.3596C7.96513 40.7592 11.795 41.6095 16 41.6095C20.2001 41.6095 24.0299 40.7564 26.8281 39.3556C28.389 38.5742 29.6751 37.5956 30.5 36.4672V38.3672C30.5 40.1512 29.0425 41.8987 26.3806 43.2299C23.7485 44.5463 20.0782 45.3741 16 45.3741C11.922 45.3741 8.25181 44.5437 5.61955 43.226C2.95716 41.8933 1.5 40.1457 1.5 38.3672Z" fill="#F8DC00" stroke="#F6CD17"/>
<path d="M2.84204 37.1807C2.84204 37.1807 2.88438 42.0724 2.88438 42.0618C2.89497 42.0512 3.49835 42.6335 4.74747 43.3747L4.504 38.4089C4.504 38.4089 3.50894 37.8583 2.83145 37.1807H2.84204Z" fill="#F7CD18"/>
<path d="M7.28778 39.7324C7.28778 39.7324 7.37247 44.5182 7.38305 44.5077C7.39364 44.4971 7.7959 44.6453 9.25673 45.0688L9.06619 40.2724C9.06619 40.2724 8.15581 40.0924 7.28778 39.7324Z" fill="#F7CD18"/>
<path d="M11.7341 40.8545C11.7341 40.8545 11.8188 45.6403 11.8293 45.6297C11.8399 45.6191 12.0728 45.6509 13.6501 45.8309L13.5125 41.0557C13.5125 41.0557 12.5809 40.9921 11.7341 40.8545Z" fill="#F7CD18"/>
<path d="M19.8426 40.8545C19.8426 40.8545 19.7579 45.6403 19.7473 45.6297C19.7367 45.6191 19.5039 45.6509 17.9266 45.8309L18.0642 41.0557C18.0642 41.0557 18.9957 40.9921 19.8426 40.8545Z" fill="#F7CD18"/>
<path d="M24.7756 39.7217C24.7756 39.7217 24.6909 44.5075 24.6803 44.4969C24.6697 44.4863 24.2675 44.6346 22.8066 45.0581L22.9972 40.2617C22.9972 40.2617 23.9076 40.0817 24.7756 39.7217Z" fill="#F7CD18"/>
<path d="M29.1686 37.1494C29.1686 37.1494 29.1263 42.0411 29.1263 42.0305C29.1157 42.0199 28.5123 42.6023 27.2632 43.3435L27.5067 38.3776C27.5067 38.3776 28.5017 37.8271 29.1792 37.1494H29.1686Z" fill="#F7CD18"/>
<path d="M16.0054 41.1197C24.2926 41.1197 30.8621 37.7274 30.8621 33.5427C30.8621 29.3581 24.2926 25.9658 16.0054 25.9658C7.71818 25.9658 1.14865 29.5067 1.14865 33.6913C1.14865 37.8759 7.71818 41.1197 16.0054 41.1197Z" fill="#FBDD0A" stroke="#F6CD17" stroke-miterlimit="10"/>
<path d="M15.9999 40.3571C23.4598 40.3571 29.5073 37.3327 29.5073 33.6019C29.5073 29.8711 23.4598 26.8467 15.9999 26.8467C8.53997 26.8467 2.49249 29.8711 2.49249 33.6019C2.49249 37.3327 8.53997 40.3571 15.9999 40.3571Z" fill="#FBDD0A" stroke="#F6CD17" stroke-miterlimit="10"/>
<path d="M24.0279 27.748L25.1915 30.8928L28.3363 32.0565L25.1915 33.2202L24.0279 36.3649L22.8642 33.2202L19.7194 32.0565L22.8642 30.8928L24.0279 27.748Z" fill="white"/>
<path d="M5.45705 20.6172L6.17933 22.5691L8.13126 23.2914L6.17933 24.0137L5.45705 25.9656L4.73477 24.0137L2.78284 23.2914L4.73477 22.5691L5.45705 20.6172Z" fill="#FBDD0A"/>
<path d="M1.5 32.3662V30.4721C2.32394 31.6004 3.60827 32.5782 5.16803 33.3586C7.96513 34.7582 11.795 35.6085 16 35.6085C20.2001 35.6085 24.0299 34.7554 26.8281 33.3546C28.389 32.5732 29.6751 31.5946 30.5 30.4662V32.3662C30.5 34.1502 29.0425 35.8977 26.3806 37.2289C23.7485 38.5453 20.0782 39.3732 16 39.3732C11.922 39.3732 8.25181 38.5428 5.61955 37.2251C2.95716 35.8923 1.5 34.1447 1.5 32.3662Z" fill="#F8DC00" stroke="#F6CD17"/>
<path d="M2.84204 31.1807C2.84204 31.1807 2.88438 36.0724 2.88438 36.0618C2.89497 36.0512 3.49835 36.6335 4.74747 37.3747L4.504 32.4089C4.504 32.4089 3.50894 31.8583 2.83145 31.1807H2.84204Z" fill="#F7CD18"/>
<path d="M7.28778 33.7324C7.28778 33.7324 7.37247 38.5182 7.38305 38.5077C7.39364 38.4971 7.7959 38.6453 9.25673 39.0688L9.06619 34.2724C9.06619 34.2724 8.15581 34.0924 7.28778 33.7324Z" fill="#F7CD18"/>
<path d="M11.7341 34.8545C11.7341 34.8545 11.8188 39.6403 11.8293 39.6297C11.8399 39.6191 12.0728 39.6509 13.6501 39.8309L13.5125 35.0557C13.5125 35.0557 12.5809 34.9921 11.7341 34.8545Z" fill="#F7CD18"/>
<path d="M19.8426 34.8545C19.8426 34.8545 19.7579 39.6403 19.7473 39.6297C19.7367 39.6191 19.5039 39.6509 17.9266 39.8309L18.0642 35.0557C18.0642 35.0557 18.9957 34.9921 19.8426 34.8545Z" fill="#F7CD18"/>
<path d="M24.7756 33.7217C24.7756 33.7217 24.6909 38.5075 24.6803 38.4969C24.6697 38.4863 24.2675 38.6346 22.8066 39.0581L22.9972 34.2617C22.9972 34.2617 23.9076 34.0817 24.7756 33.7217Z" fill="#F7CD18"/>
<path d="M29.1686 31.1484C29.1686 31.1484 29.1263 36.0401 29.1263 36.0296C29.1157 36.019 28.5123 36.6013 27.2632 37.3425L27.5067 32.3767C27.5067 32.3767 28.5017 31.8261 29.1792 31.1484H29.1686Z" fill="#F7CD18"/>
<path d="M16.0054 35.1187C24.2926 35.1187 30.8621 31.7264 30.8621 27.5418C30.8621 23.3572 24.2926 19.9648 16.0054 19.9648C7.71818 19.9648 1.14865 23.5057 1.14865 27.6903C1.14865 31.875 7.71818 35.1187 16.0054 35.1187Z" fill="#FBDD0A" stroke="#F6CD17" stroke-miterlimit="10"/>
<path d="M15.9999 34.3571C23.4598 34.3571 29.5073 31.3327 29.5073 27.6019C29.5073 23.8711 23.4598 20.8467 15.9999 20.8467C8.53997 20.8467 2.49249 23.8711 2.49249 27.6019C2.49249 31.3327 8.53997 34.3571 15.9999 34.3571Z" fill="#FBDD0A" stroke="#F6CD17" stroke-miterlimit="10"/>
<path d="M24.0279 21.748L25.1915 24.8928L28.3363 26.0565L25.1915 27.2202L24.0279 30.3649L22.8642 27.2202L19.7194 26.0565L22.8642 24.8928L24.0279 21.748Z" fill="white"/>
<path d="M16.6742 9L17.3965 10.9519L19.3484 11.6742L17.3965 12.3965L16.6742 14.3484L15.9519 12.3965L14 11.6742L15.9519 10.9519L16.6742 9Z" fill="#FBDD0A"/>
<path d="M1.5 26.3662V24.4721C2.32394 25.6004 3.60827 26.5782 5.16803 27.3586C7.96513 28.7582 11.795 29.6085 16 29.6085C20.2001 29.6085 24.0299 28.7554 26.8281 27.3546C28.389 26.5732 29.6751 25.5946 30.5 24.4662V26.3662C30.5 28.1502 29.0425 29.8977 26.3806 31.2289C23.7485 32.5453 20.0782 33.3732 16 33.3732C11.922 33.3732 8.25181 32.5428 5.61955 31.2251C2.95716 29.8923 1.5 28.1447 1.5 26.3662Z" fill="#F8DC00" stroke="#F6CD17"/>
<path d="M2.84204 25.1807C2.84204 25.1807 2.88438 30.0724 2.88438 30.0618C2.89497 30.0512 3.49835 30.6335 4.74747 31.3747L4.504 26.4089C4.504 26.4089 3.50894 25.8583 2.83145 25.1807H2.84204Z" fill="#F7CD18"/>
<path d="M7.28778 27.7324C7.28778 27.7324 7.37247 32.5182 7.38305 32.5077C7.39364 32.4971 7.7959 32.6453 9.25673 33.0688L9.06619 28.2724C9.06619 28.2724 8.15581 28.0924 7.28778 27.7324Z" fill="#F7CD18"/>
<path d="M11.7341 28.8545C11.7341 28.8545 11.8188 33.6403 11.8293 33.6297C11.8399 33.6191 12.0728 33.6509 13.6501 33.8309L13.5125 29.0557C13.5125 29.0557 12.5809 28.9921 11.7341 28.8545Z" fill="#F7CD18"/>
<path d="M19.8426 28.8545C19.8426 28.8545 19.7579 33.6403 19.7473 33.6297C19.7367 33.6191 19.5039 33.6509 17.9266 33.8309L18.0642 29.0557C18.0642 29.0557 18.9957 28.9921 19.8426 28.8545Z" fill="#F7CD18"/>
<path d="M24.7756 27.7217C24.7756 27.7217 24.6909 32.5075 24.6803 32.4969C24.6697 32.4863 24.2675 32.6346 22.8066 33.0581L22.9972 28.2617C22.9972 28.2617 23.9076 28.0817 24.7756 27.7217Z" fill="#F7CD18"/>
<path d="M29.1686 25.1484C29.1686 25.1484 29.1263 30.0401 29.1263 30.0296C29.1157 30.019 28.5123 30.6013 27.2632 31.3425L27.5067 26.3767C27.5067 26.3767 28.5017 25.8261 29.1792 25.1484H29.1686Z" fill="#F7CD18"/>
<path d="M16.0054 29.1187C24.2926 29.1187 30.8621 25.7264 30.8621 21.5418C30.8621 17.3572 24.2926 13.9648 16.0054 13.9648C7.71818 13.9648 1.14865 17.5057 1.14865 21.6903C1.14865 25.875 7.71818 29.1187 16.0054 29.1187Z" fill="#FBDD0A" stroke="#F6CD17" stroke-miterlimit="10"/>
<path d="M15.9999 28.3571C23.4598 28.3571 29.5073 25.3327 29.5073 21.6019C29.5073 17.8711 23.4598 14.8467 15.9999 14.8467C8.53997 14.8467 2.49249 17.8711 2.49249 21.6019C2.49249 25.3327 8.53997 28.3571 15.9999 28.3571Z" fill="#FBDD0A" stroke="#F6CD17" stroke-miterlimit="10"/>
<path d="M24.0279 15.748L25.1915 18.8928L28.3363 20.0565L25.1915 21.2202L24.0279 24.3649L22.8642 21.2202L19.7194 20.0565L22.8642 18.8928L24.0279 15.748Z" fill="white"/>
<path d="M20.4622 0L21.6259 3.14478L24.7707 4.30845L21.6259 5.47212L20.4622 8.6169L19.2986 5.47212L16.1538 4.30845L19.2986 3.14478L20.4622 0Z" fill="#FBDD0A"/>
<path d="M5.45705 8.61719L6.17933 10.5691L8.13126 11.2914L6.17933 12.0137L5.45705 13.9656L4.73477 12.0137L2.78284 11.2914L4.73477 10.5691L5.45705 8.61719Z" fill="#FBDD0A"/>
<path d="M23.6617 21.9981L25.001 20.6587C24.7858 22.0392 25.0025 23.6387 25.5536 25.2935C26.5418 28.261 28.6487 31.5704 31.6221 34.5438C34.592 37.5137 37.9033 39.6185 40.8724 40.6066C42.5287 41.1579 44.1301 41.3753 45.5113 41.1607L44.1678 42.5042C42.9063 43.7656 40.6401 43.9707 37.8165 43.0298C35.0244 42.0994 31.8438 40.0895 28.9601 37.2058C26.0765 34.3222 24.0684 31.1398 23.1389 28.3467C22.1988 25.5217 22.4041 23.2557 23.6617 21.9981Z" fill="#F8DC00" stroke="#F6CD17"/>
<path d="M25.4492 22.1081C25.4492 22.1081 22.0202 25.597 22.0277 25.5895C22.0426 25.5895 22.0575 26.4279 22.4167 27.8353L25.7559 24.1517C25.7559 24.1517 25.4416 23.0588 25.4417 22.1006L25.4492 22.1081Z" fill="#F7CD18"/>
<path d="M26.7885 27.0566C26.7885 27.0566 23.4642 30.5006 23.4792 30.5006C23.4942 30.5006 23.6738 30.8899 24.4073 32.2223L27.6641 28.696C27.6641 28.696 27.1477 27.925 26.7885 27.0566Z" fill="#F7CD18"/>
<path d="M29.1388 30.9941C29.1388 30.9941 25.8146 34.4381 25.8296 34.4381C25.8446 34.4381 25.9868 34.6252 26.9748 35.8678L30.2541 32.3939C30.2541 32.3939 29.6403 31.6903 29.1388 30.9941Z" fill="#F7CD18"/>
<path d="M34.8724 36.7279C34.8724 36.7279 31.4285 40.0521 31.4285 40.0371C31.4285 40.0221 31.2413 39.8799 29.9988 38.8919L33.4727 35.6126C33.4727 35.6126 34.1763 36.2264 34.8724 36.7279Z" fill="#F7CD18"/>
<path d="M39.1618 39.4147C39.1618 39.4147 35.7178 42.7389 35.7178 42.724C35.7178 42.709 35.3286 42.5294 33.9961 41.7959L37.5224 38.539C37.5224 38.539 38.2934 39.0555 39.1618 39.4147Z" fill="#F7CD18"/>
<path d="M44.0873 40.7018C44.0873 40.7018 40.5984 44.1309 40.6059 44.1234C40.6059 44.1084 39.7675 44.0935 38.3601 43.7343L42.0437 40.3951C42.0437 40.3951 43.1366 40.7094 44.0948 40.7093L44.0873 40.7018Z" fill="#F7CD18"/>
<path d="M31.9721 34.2012C37.832 40.0611 44.8761 42.3077 47.8351 39.3487C50.794 36.3898 48.5474 29.3457 42.6875 23.4858C36.8276 17.6258 29.6784 15.4842 26.7194 18.4432C23.7605 21.4022 26.1122 28.3412 31.9721 34.2012Z" fill="#FBDD0A" stroke="#F6CD17" stroke-miterlimit="10"/>
<path d="M32.5072 33.6582C37.7821 38.9332 44.1969 41.0708 46.835 38.4327C49.4731 35.7947 47.3354 29.3799 42.0605 24.1049C36.7855 18.8299 30.3707 16.6923 27.7326 19.3304C25.0946 21.9684 27.2322 28.3832 32.5072 33.6582Z" fill="#FBDD0A" stroke="#F6CD17" stroke-miterlimit="10"/>
<path d="M44.0531 29.1572L45.2168 32.302L48.3615 33.4657L45.2168 34.6293L44.0531 37.7741L42.8894 34.6293L39.7446 33.4657L42.8894 32.302L44.0531 29.1572Z" fill="white"/>
<path d="M48.3084 17L49.4721 20.1448L52.6169 21.3084L49.4721 22.4721L48.3084 25.6169L47.1448 22.4721L44 21.3084L47.1448 20.1448L48.3084 17Z" fill="#FBDD0A"/>
<path d="M37.1197 11.4619L37.842 13.4138L39.7939 14.1361L37.842 14.8584L37.1197 16.8103L36.3974 14.8584L34.4455 14.1361L36.3974 13.4138L37.1197 11.4619Z" fill="#FBDD0A"/>
</svg>
