<svg width="426" height="426" viewBox="0 0 426 426" fill="none" xmlns="http://www.w3.org/2000/svg">
<g clip-path="url(#clip0_829_1724)">
<path d="M115.07 144.72C124.53 106.71 168.79 73.9297 214.41 73.9297C257.58 73.9297 306.01 96.6497 321.82 134.18C345.01 189.21 338.01 213.92 381.52 251.47C402.92 269.94 373.36 287.6 361.96 293.18C350.56 298.75 337.74 296.61 325.6 294.36C313.46 292.11 300.65 289.91 289.22 295.4C272.14 303.6 261 327.64 242.75 329.91C221.01 332.62 203.48 302.5 181.71 304.77C160.33 307 145.2 339.79 124.02 335.56C100.3 330.82 104.94 293.29 73.05 293.29C53.48 293.29 35.19 276.41 36.13 262.28C37.08 248.15 55.47 235.94 64.56 227.13C73.64 218.32 83.95 211.12 91.44 200.29C99.42 188.75 115.08 144.74 115.08 144.73L115.07 144.72Z" fill="url(#paint0_radial_829_1724)"/>
<path d="M175.142 133.183C183.838 128.367 188.393 119.958 185.316 114.402C182.239 108.846 172.694 108.247 163.998 113.063C155.302 117.88 150.746 126.288 153.824 131.844C156.901 137.4 166.445 138 175.142 133.183Z" fill="white"/>
<path d="M337.87 81.0198C341.786 81.0198 344.96 77.8455 344.96 73.9298C344.96 70.0141 341.786 66.8398 337.87 66.8398C333.954 66.8398 330.78 70.0141 330.78 73.9298C330.78 77.8455 333.954 81.0198 337.87 81.0198Z" fill="#A9D9E9"/>
<path d="M96.83 123.15C100.746 123.15 103.92 119.975 103.92 116.06C103.92 112.144 100.746 108.97 96.83 108.97C92.9143 108.97 89.74 112.144 89.74 116.06C89.74 119.975 92.9143 123.15 96.83 123.15Z" fill="#A9D9E9"/>
<path opacity="0.22" d="M218.6 281.93C268.306 281.93 308.6 270.065 308.6 255.43C308.6 240.794 268.306 228.93 218.6 228.93C168.894 228.93 128.6 240.794 128.6 255.43C128.6 270.065 168.894 281.93 218.6 281.93Z" fill="#00A3E9"/>
<path d="M357.03 142.299C367.612 142.299 376.19 133.721 376.19 123.139C376.19 112.558 367.612 103.979 357.03 103.979C346.448 103.979 337.87 112.558 337.87 123.139C337.87 133.721 346.448 142.299 357.03 142.299Z" fill="#A9D9E9"/>
<path d="M350.28 119.52C352.627 119.52 354.53 117.617 354.53 115.27C354.53 112.922 352.627 111.02 350.28 111.02C347.933 111.02 346.03 112.922 346.03 115.27C346.03 117.617 347.933 119.52 350.28 119.52Z" fill="white"/>
<path d="M77.67 93.0895C88.2518 93.0895 96.83 84.5113 96.83 73.9295C96.83 63.3478 88.2518 54.7695 77.67 54.7695C67.0882 54.7695 58.51 63.3478 58.51 73.9295C58.51 84.5113 67.0882 93.0895 77.67 93.0895Z" fill="#A9D9E9"/>
<path d="M73.25 73.5C75.5972 73.5 77.5 71.5972 77.5 69.25C77.5 66.9028 75.5972 65 73.25 65C70.9028 65 69 66.9028 69 69.25C69 71.5972 70.9028 73.5 73.25 73.5Z" fill="white"/>
<path d="M337.07 370.43C360.266 370.43 379.07 361.587 379.07 350.68C379.07 339.772 360.266 330.93 337.07 330.93C313.874 330.93 295.07 339.772 295.07 350.68C295.07 361.587 313.874 370.43 337.07 370.43Z" fill="#A9DAED"/>
<path d="M317.1 352.31C321.794 352.31 325.6 349.735 325.6 346.56C325.6 343.384 321.794 340.81 317.1 340.81C312.406 340.81 308.6 343.384 308.6 346.56C308.6 349.735 312.406 352.31 317.1 352.31Z" fill="white"/>
<path d="M193.54 195.1C199.615 195.1 204.54 189.055 204.54 181.6C204.54 174.144 199.615 168.1 193.54 168.1C187.465 168.1 182.54 174.144 182.54 181.6C182.54 189.055 187.465 195.1 193.54 195.1Z" fill="#0080A0"/>
<path d="M270.54 195.1C276.615 195.1 281.54 189.055 281.54 181.6C281.54 174.144 276.615 168.1 270.54 168.1C264.465 168.1 259.54 174.144 259.54 181.6C259.54 189.055 264.465 195.1 270.54 195.1Z" fill="#0080A0"/>
</g>
<defs>
<radialGradient id="paint0_radial_829_1724" cx="0" cy="0" r="1" gradientUnits="userSpaceOnUse" gradientTransform="translate(219.2 178.43) scale(151.7 151.7)">
<stop stop-color="#00B7EC"/>
<stop offset="1" stop-color="#AADCF2"/>
</radialGradient>
<clipPath id="clip0_829_1724">
<rect width="425.2" height="425.2" fill="white"/>
</clipPath>
</defs>
</svg>
