<svg width="50" height="50" viewBox="0 0 50 50" fill="none" xmlns="http://www.w3.org/2000/svg">
<path d="M25 50C38.8071 50 50 38.8071 50 25C50 11.1929 38.8071 0 25 0C11.1929 0 0 11.1929 0 25C0 38.8071 11.1929 50 25 50Z" fill="#0096DE"/>
<path d="M19.7771 34.9677C16.9189 33.4681 6.40373 26.6579 3.05158 20.0947C0.881503 29.7983 5.34516 40.1194 14.5724 44.9359C23.782 49.7525 34.7912 47.5294 41.5131 40.2429C34.2619 41.2309 22.8116 36.5556 19.7771 34.9677Z" fill="white"/>
<path d="M39.0251 24.5943C41.7827 24.5943 44.0181 22.3589 44.0181 19.6013C44.0181 16.8438 41.7827 14.6084 39.0251 14.6084C36.2676 14.6084 34.0322 16.8438 34.0322 19.6013C34.0322 22.3589 36.2676 24.5943 39.0251 24.5943Z" fill="white"/>
</svg>
