<svg width="426" height="426" viewBox="0 0 426 426" fill="none" xmlns="http://www.w3.org/2000/svg">
<g clip-path="url(#clip0_749_926)">
<path d="M119.04 102.62C142.523 102.62 161.56 83.5832 161.56 60.1001C161.56 36.6169 142.523 17.5801 119.04 17.5801C95.5569 17.5801 76.52 36.6169 76.52 60.1001C76.52 83.5832 95.5569 102.62 119.04 102.62Z" fill="#AA7950"/>
<path d="M122.27 92.0496C137.927 92.0496 150.62 79.3569 150.62 63.6996C150.62 48.0423 137.927 35.3496 122.27 35.3496C106.613 35.3496 93.92 48.0423 93.92 63.6996C93.92 79.3569 106.613 92.0496 122.27 92.0496Z" fill="#835E3E"/>
<path d="M290.46 99.0302C313.943 99.0302 332.98 79.9934 332.98 56.5102C332.98 33.0271 313.943 13.9902 290.46 13.9902C266.977 13.9902 247.94 33.0271 247.94 56.5102C247.94 79.9934 266.977 99.0302 290.46 99.0302Z" fill="#AA7950"/>
<path d="M284.24 88.45C299.897 88.45 312.59 75.7573 312.59 60.1C312.59 44.4427 299.897 31.75 284.24 31.75C268.583 31.75 255.89 44.4427 255.89 60.1C255.89 75.7573 268.583 88.45 284.24 88.45Z" fill="#835E3E"/>
<path d="M79.9438 170.56L75.7344 178.429L83.2862 179.067L79.9438 170.56Z" fill="#835E3E"/>
<path d="M66.9257 175.001L69.7621 183.463L75.4116 178.413L66.9257 175.001Z" fill="#835E3E"/>
<path d="M61.5639 185.163L68.8221 190.469L70.4777 183.122L61.5639 185.163Z" fill="#835E3E"/>
<path d="M354.328 174.553L345.408 175.068L348.802 181.843L354.328 174.553Z" fill="#835E3E"/>
<path d="M347.873 166.855L340.151 171.339L346.237 175.856L347.873 166.855Z" fill="#835E3E"/>
<path d="M335.441 163.48L332.265 171.888L339.785 171.53L335.441 163.48Z" fill="#835E3E"/>
<path d="M128.133 214.644C82.6326 173.614 75.9127 106.044 116.753 60.3641C157.593 14.6941 236.203 10.1541 282.033 50.8141C327.863 91.4741 324.963 165.664 284.493 211.654C301.393 224.864 313 164.5 340.5 171.5C368 178.5 328 243 291.5 259.5C294.29 282.12 289.243 337.874 284.453 354.804C280.133 370.074 272.853 401.384 256.753 402.324C234.653 402.154 233.063 395.674 228.463 382.464C223.513 368.214 221.373 356.384 209.763 356.294C198.113 356.294 198.223 370.664 194.633 381.744C190.643 394.064 194.103 401.274 172.233 402.684C153.693 403.884 145.333 375.834 137.263 352.964C132.983 340.834 124 281.646 124 264C85.3673 244.646 58.5 187.62 73 179.5C85.5 172.5 97.625 192.795 108 203C119.828 214.634 116.753 222.5 128.143 214.634" fill="#AA7950"/>
<path d="M72.2647 187.451C71.014 192.119 73.516 196.845 77.853 198.008C82.1901 199.17 86.7199 196.328 87.9707 191.66C89.2214 186.992 86.7194 182.266 82.3824 181.104C78.0453 179.942 73.5155 182.784 72.2647 187.451Z" fill="#835E3E"/>
<path d="M344.974 182.393C344.544 177.58 340.57 174.002 336.098 174.401C331.625 174.8 328.348 179.026 328.778 183.839C329.208 188.653 333.182 192.231 337.654 191.832C342.127 191.432 345.404 187.206 344.974 182.393Z" fill="#835E3E"/>
<path d="M130.42 214.38L286.78 211.4C286.78 211.4 250.54 219.94 206.11 219.94C161.68 219.94 130.43 214.39 130.43 214.39L130.42 214.38Z" fill="#CD5D54" stroke="#AE5248" stroke-linecap="round" stroke-linejoin="round"/>
<path d="M269 229C252.667 253.667 208.1 308.7 160.5 331.5" stroke="black" stroke-linecap="round" stroke-linejoin="round" stroke-dasharray="2 2"/>
<path d="M255.5 234L268.5 244.5M262 253.5L248 241.5M255.5 262L241 250.5M248 270L234 258.5M241 278.5L225.5 267M234 287.5L217.5 273.5M225.5 296.5L209 281.5M217.5 302L202.5 287.5M209 309L194.5 294.5M199 316.5L185.5 302M189.5 323.5L176 309M181 330L168.5 316.5M170.5 336L160 323.5" stroke="black" stroke-linecap="round" stroke-linejoin="round"/>
<path d="M169.28 243.319C168.1 245.669 169.09 247.699 170.22 249.049C177.4 257.649 189.8 247.959 194.09 240.879C199.41 232.099 203.56 227.709 212.04 220.949C210.73 221.989 206.84 219.989 206.28 221.549C205.72 223.109 204.94 227.539 203.64 228.569C193.71 236.489 194.05 250.599 185.49 259.449C181.85 263.219 176.27 266.709 170.8 265.299C165.92 264.039 163.19 259.499 163.62 254.639C164.09 249.269 166.13 243.609 168.01 238.639C169.77 233.999 172.92 229.949 176.93 226.859C186.84 219.229 201.19 221.379 211.66 214.409C210.42 215.229 209.67 220.089 209.17 221.479C208.67 222.869 207.75 227.689 206.53 228.499C196.92 234.889 185.12 233.229 174.59 238.029C174.59 238.029 170.75 240.349 169.28 243.289V243.319Z" fill="#CD5D54" stroke="#AE5248" stroke-linecap="round" stroke-linejoin="round"/>
<path d="M248.99 249C249.94 247.06 249.85 244.35 248.35 242.15C245.92 238.56 241.72 237.49 237.89 236.54C227.16 233.85 214.96 234.81 205.53 228.53C204.46 227.82 211.55 215.03 210.66 214.43C221.27 221.49 236 219.22 245.87 227.27C249.69 230.38 252.86 235.04 253.52 240C254.19 245.09 251.27 250.43 249.57 255.04C247.87 259.65 246.43 263.97 241.26 265.3C235.56 266.77 229.75 262.95 226.08 258.94C217.95 250.06 218.2 236.36 208.42 228.57C207.09 227.51 211.74 230.89 210.58 229.97C219.24 236.87 222.92 232.64 228.6 241.47C231.18 245.49 235.03 249.35 239.66 250.72C245.53 252.44 247.81 251.42 248.99 248.99V249Z" fill="#CD5D54" stroke="#AE5248" stroke-linecap="round" stroke-linejoin="round"/>
<path d="M203.32 234.11C203.05 236.62 202.7 239.11 202.19 241.59C201.8 243.49 201.27 245.32 200.79 247.2C199.45 252.42 203.32 240.6 203.23 240.74C201.65 243.09 200.8 246.16 199.4 248.67C198.05 251.09 196.56 253.44 194.95 255.7C188.93 264.18 181.24 271.23 172.33 276.58C171.16 277.28 170.17 282.3 169.69 283.6C169.21 284.9 168.39 289.96 167.2 290.67C179.81 283.09 189.96 271.99 196.36 258.73C202.11 246.82 207.03 233.22 208.45 220.02C207.93 224.82 203.84 229.26 203.32 234.12V234.11Z" fill="#CD5D54" stroke="#AE5248" stroke-linecap="round" stroke-linejoin="round"/>
<path d="M202.97 235.829C201.85 260.569 218.38 284.029 242.04 291.309C242.39 291.419 247.04 277.169 247.17 277.209C223.5 269.919 206.98 246.459 208.1 221.729C207.89 226.459 203.19 231.029 202.97 235.829Z" fill="#CD5D54" stroke="#AE5248" stroke-linecap="round" stroke-linejoin="round"/>
<path d="M209.2 234.39C213.48 234.39 216.95 229.241 216.95 222.89C216.95 216.538 213.48 211.39 209.2 211.39C204.92 211.39 201.45 216.538 201.45 222.89C201.45 229.241 204.92 234.39 209.2 234.39Z" fill="#CD5D54" stroke="#AE5248" stroke-linecap="round" stroke-linejoin="round"/>
<path d="M204.75 198.78C232.088 198.78 254.25 185.497 254.25 169.11C254.25 152.724 232.088 139.44 204.75 139.44C177.412 139.44 155.25 152.724 155.25 169.11C155.25 185.497 177.412 198.78 204.75 198.78Z" fill="#D9AF92"/>
<path d="M193.5 193C189.9 192.6 186.333 184.5 185 180.5L205.5 172L222 180.5C221.333 183.333 219.3 189.5 216.5 191.5C213 194 198 193.5 193.5 193Z" fill="#CD5D54"/>
<path d="M184.5 190.5L180.5 181.5L187.5 181L184.5 190.5Z" fill="white"/>
<path d="M222.5 190.5L220 181H226.5L222.5 190.5Z" fill="white"/>
<path d="M190 154C190 150.27 193.02 147.25 196.75 147.25H212.75C216.48 147.25 219.5 150.27 219.5 154C219.5 157.73 216.48 160.75 212.75 160.75C208.04 163.94 201.89 164.02 197.09 160.97L196.75 160.75C193.02 160.75 190 157.73 190 154Z" fill="#825E3E"/>
<path d="M204.76 170.54L204.66 160.57" stroke="#825E3E" stroke-width="5" stroke-miterlimit="10"/>
<path d="M234.13 176C225.71 182.71 212.6 180.27 204.86 170.55" stroke="#825E3E" stroke-width="5" stroke-linecap="round" stroke-linejoin="round"/>
<path d="M175.36 176C183.78 182.71 196.89 180.27 204.63 170.55" stroke="#825E3E" stroke-width="5" stroke-linecap="round" stroke-linejoin="round"/>
<path d="M218.044 100.267L256.535 148.42M228.345 93.7859L272.237 144.992M239.363 88.8339L287.25 142.4" stroke="black" stroke-linejoin="round" stroke-dasharray="2 2"/>
<path d="M162.935 110.881C154.548 106.12 142.406 110.262 136.164 111.33C134.832 112.934 134.335 116.737 143.002 119.109C151.669 121.482 158.189 131.427 160.365 136.103C172.869 138.37 183.246 130.354 186.872 126.062C167.898 123.8 171.322 115.642 162.935 110.881Z" fill="white" stroke="#333333" stroke-width="4"/>
<path d="M247.104 107.881C255.491 103.12 267.633 107.262 273.875 108.33C275.207 109.934 275.704 113.737 267.037 116.109C258.371 118.482 251.851 128.427 249.674 133.103C237.17 135.37 226.793 127.354 223.167 123.062C242.141 120.8 238.717 112.642 247.104 107.881Z" fill="white" stroke="#333333" stroke-width="4"/>
<path d="M112.5 136C115.833 152.5 128.5 187.7 152.5 196.5" stroke="#E9594D" stroke-width="2" stroke-linecap="round" stroke-linejoin="round"/>
<path d="M141.498 202C142.698 200.4 144.998 195.333 145.998 193C147.998 193 151.498 200.5 152.498 202C153.498 203.5 149.998 210.5 145.998 210.5C141.998 210.5 139.998 204 141.498 202Z" fill="#E9594D"/>
<path d="M104 200C102.397 206.249 95.1538 218.372 79 216.873" stroke="black" stroke-linecap="round" stroke-linejoin="round" stroke-dasharray="2 2"/>
</g>
<defs>
<clipPath id="clip0_749_926">
<rect width="425.2" height="425.2" fill="white"/>
</clipPath>
</defs>
</svg>
