<svg width="300" height="300" viewBox="0 0 300 300" fill="none" xmlns="http://www.w3.org/2000/svg">
<path d="M249.595 95.4183C249.031 107.892 203.982 115.985 148.977 113.495C93.9722 111.004 49.833 98.8755 50.3974 86.4014" fill="#D9AE5E"/>
<path d="M168.683 114.341C162.248 114.341 155.651 114.193 148.956 113.89C122.321 112.683 97.3871 109.198 78.7394 104.076C59.9294 98.9039 49.7201 92.6245 50.0023 86.3945L50.7855 86.4298C50.2352 98.6711 94.2897 110.637 148.991 113.114C203.699 115.59 248.65 107.646 249.207 95.4044L249.983 95.4397C249.701 101.677 238.97 107.004 219.765 110.454C205.52 113.015 187.839 114.341 168.683 114.341Z" fill="#BB984D"/>
<path d="M95.8419 157.084C63.7535 128.156 59.0122 80.4963 87.8128 48.2949C116.613 16.0866 172.063 12.8834 204.384 41.564C236.705 70.2376 234.666 122.547 206.119 154.981C218.036 164.302 246.202 192.065 242.575 206.754C237.411 227.688 227.512 218.523 212.23 208.363C214.198 224.316 209.471 243.986 206.091 255.924C203.05 266.691 197.914 288.768 186.555 289.438C170.962 289.318 169.847 284.753 166.602 275.433C163.109 265.386 161.599 257.039 153.408 256.976C145.195 256.976 145.266 267.107 142.733 274.925C139.918 283.617 142.359 288.697 126.936 289.692C113.855 290.532 107.963 270.755 102.27 254.633C99.2498 246.082 95.08 218.05 95.5527 208.638C87.453 216.11 80.4398 234.617 68.2832 222.46C62.6176 216.794 64.8471 206.889 67.0484 199.184C71.7968 182.547 82.0625 167.54 95.8419 157.084Z" fill="white"/>
<path fill-rule="evenodd" clip-rule="evenodd" d="M204.052 41.938C171.937 13.4401 116.802 16.6252 88.1855 48.6282L88.1855 48.6283C59.5856 80.6052 64.2732 127.951 96.1767 156.712L96.6254 157.117L96.1442 157.482C82.451 167.873 72.2479 182.788 67.5292 199.321L67.5292 199.321C66.4294 203.171 65.3378 207.521 65.2155 211.602C65.0932 215.681 65.9413 219.411 68.6367 222.106C71.6165 225.086 74.2034 226.112 76.5051 225.98C78.8251 225.848 80.9867 224.535 83.0962 222.546C85.2037 220.559 87.1945 217.96 89.1872 215.356L89.2079 215.329C91.1799 212.752 93.1577 210.167 95.2136 208.271L96.1134 207.441L96.052 208.663C95.8184 213.314 96.7349 222.63 98.0961 231.886C99.4572 241.141 101.249 250.242 102.741 254.467C103.139 255.594 103.538 256.737 103.939 257.889C106.417 264.999 109.005 272.421 112.269 278.28C116.072 285.103 120.674 289.593 126.904 289.193C134.597 288.697 137.62 287.186 139.147 284.916C139.928 283.756 140.352 282.353 140.759 280.644C140.853 280.249 140.946 279.838 141.042 279.413C141.359 278.015 141.711 276.456 142.257 274.771L142.733 274.925L142.257 274.771C142.828 273.01 143.265 271.128 143.702 269.249C143.744 269.069 143.786 268.889 143.828 268.709C144.305 266.663 144.797 264.632 145.473 262.842C146.149 261.052 147.024 259.458 148.296 258.31C149.582 257.149 151.24 256.476 153.408 256.476H153.412C155.551 256.492 157.283 257.052 158.722 258.064C160.153 259.072 161.264 260.505 162.205 262.22C163.584 264.734 164.641 267.947 165.797 271.461C166.204 272.699 166.624 273.974 167.074 275.269C167.162 275.521 167.248 275.77 167.333 276.015C168.832 280.334 169.901 283.415 172.279 285.51C174.767 287.704 178.779 288.876 186.541 288.938C189.202 288.776 191.534 287.364 193.602 285.096C195.677 282.82 197.453 279.716 198.985 276.264C201.575 270.429 203.427 263.698 204.861 258.489C205.124 257.532 205.373 256.627 205.61 255.788L205.61 255.788C208.99 243.848 213.688 224.266 211.733 208.424L211.6 207.344L212.506 207.947C213.898 208.872 215.24 209.785 216.535 210.667C218.813 212.217 220.947 213.67 222.956 214.917C226.107 216.874 228.871 218.274 231.289 218.727C233.665 219.174 235.688 218.705 237.447 216.915C239.245 215.087 240.805 211.842 242.09 206.635C242.954 203.133 241.935 198.776 239.634 193.995C237.341 189.23 233.814 184.125 229.788 179.17C221.736 169.259 211.743 160.014 205.811 155.375L205.394 155.049L205.744 154.651C234.149 122.377 236.124 70.3905 204.052 41.938L204.384 41.564L204.052 41.938ZM87.4401 47.9616C116.424 15.548 172.188 12.3266 204.716 41.19C237.154 69.9675 235.199 122.291 206.842 154.914C212.869 159.692 222.645 168.793 230.564 178.539C234.616 183.526 238.195 188.699 240.535 193.562C242.868 198.409 244.01 203.031 243.061 206.874C241.763 212.134 240.149 215.593 238.161 217.616C236.134 219.678 233.758 220.209 231.104 219.71C228.491 219.22 225.592 217.731 222.428 215.767C220.404 214.509 218.238 213.035 215.945 211.475C214.937 210.789 213.904 210.086 212.848 209.378C214.497 225.239 209.876 244.389 206.572 256.06C206.339 256.888 206.092 257.786 205.83 258.737C204.398 263.942 202.523 270.759 199.899 276.67C198.347 280.167 196.519 283.381 194.341 285.77C192.16 288.161 189.596 289.759 186.584 289.937L186.567 289.938L186.551 289.938C178.732 289.878 174.394 288.708 171.617 286.261C169.035 283.984 167.882 280.654 166.426 276.452C166.329 276.171 166.23 275.886 166.129 275.597L166.129 275.597C165.661 274.251 165.231 272.944 164.818 271.689C163.674 268.21 162.659 265.127 161.328 262.701C160.431 261.065 159.411 259.772 158.146 258.882C156.89 257.998 155.361 257.491 153.406 257.476C151.469 257.476 150.056 258.069 148.966 259.052C147.863 260.048 147.058 261.475 146.408 263.195C145.759 264.915 145.28 266.883 144.801 268.936C144.759 269.117 144.717 269.298 144.675 269.48C144.24 271.352 143.793 273.275 143.208 275.079C142.678 276.716 142.339 278.215 142.024 279.606C141.926 280.039 141.83 280.462 141.732 280.875C141.323 282.594 140.866 284.153 139.977 285.474C138.166 288.165 134.698 289.692 126.968 290.191C120.116 290.631 115.232 285.652 111.396 278.766C108.085 272.825 105.465 265.307 102.99 258.205C102.59 257.056 102.193 255.918 101.798 254.8C100.27 250.473 98.4672 241.282 97.1067 232.031C95.8563 223.529 94.9678 214.895 95.0178 209.858C93.3356 211.582 91.6819 213.741 89.9813 215.963L89.9684 215.98C87.9922 218.563 85.9553 221.224 83.7823 223.274C81.6064 225.325 79.2292 226.827 76.562 226.979C73.8766 227.132 71.028 225.912 67.9296 222.814C64.9595 219.843 64.0895 215.788 64.2159 211.572C64.3423 207.357 65.4661 202.902 66.5676 199.047C71.2906 182.499 81.4369 167.555 95.0619 157.051C63.1903 127.918 58.5727 80.2376 87.4401 47.9616Z" fill="#999899"/>
<path d="M98.2479 240.028C96.9214 248.657 96.1947 265.406 98.6147 269.336C102.008 274.854 141.59 274.317 148.123 269.52C150.452 267.805 150.727 259.748 153.584 259.324C156.442 258.901 157.606 268.109 160.146 269.752C165.586 273.273 205.626 275.439 210.198 270.246C214.494 265.371 212.709 243.464 210.924 237.664C202.627 210.74 102.538 212.187 98.2549 240.028H98.2479Z" fill="#D9AE5E"/>
<path d="M121.771 273.697C115.428 273.697 109.269 273.28 104.88 272.427C101.239 271.714 99.0169 270.748 98.2761 269.548C95.6655 265.308 96.618 248.043 97.8598 239.978C98.777 234.031 104.097 228.845 113.241 224.978C121.439 221.514 132.305 219.207 144.666 218.304C173.445 216.194 206.571 222.227 211.291 237.551C213.083 243.365 214.953 265.435 210.48 270.508C205.724 275.905 165.162 273.471 159.927 270.084C158.706 269.294 157.888 267.121 157.013 264.821C156.075 262.33 155.009 259.48 153.634 259.713C152.3 259.91 151.538 262.38 150.797 264.764C150.127 266.938 149.492 268.991 148.342 269.83C144.885 272.37 133.039 273.69 121.764 273.69L121.771 273.697ZM155.814 218.678C152.124 218.678 148.405 218.812 144.722 219.08C112.768 221.422 99.9623 231.47 98.6359 240.091C97.2389 249.179 96.6463 265.399 98.9464 269.132C99.3697 269.823 100.774 270.825 105.035 271.658C116.91 273.972 142.768 272.977 147.897 269.202C148.836 268.511 149.464 266.493 150.063 264.532C150.875 261.914 151.707 259.205 153.528 258.937C155.51 258.647 156.604 261.505 157.754 264.539C158.544 266.62 159.356 268.772 160.357 269.421C165.967 273.055 205.781 274.663 209.901 269.986C214.12 265.195 212.258 243.323 210.55 237.777C209.09 233.043 203.798 226.488 186.865 222.177C177.862 219.884 166.961 218.678 155.814 218.678Z" fill="#BA974C"/>
<path d="M152.956 10.6748H142.027C139.226 10.6748 136.954 12.946 136.954 15.7477C136.954 18.5494 139.226 20.8206 142.027 20.8206H152.956C155.758 20.8206 158.029 18.5494 158.029 15.7477C158.029 12.946 155.758 10.6748 152.956 10.6748Z" fill="#D9AE5C"/>
<path d="M152.956 21.2159H142.027C139.015 21.2159 136.566 18.7676 136.566 15.7549C136.566 12.7422 139.015 10.2939 142.027 10.2939H152.956C155.969 10.2939 158.417 12.7422 158.417 15.7549C158.417 18.7676 155.969 21.2159 152.956 21.2159ZM142.027 11.0701C139.445 11.0701 137.342 13.1726 137.342 15.7549C137.342 18.3372 139.445 20.4398 142.027 20.4398H152.956C155.539 20.4398 157.641 18.3372 157.641 15.7549C157.641 13.1726 155.539 11.0701 152.956 11.0701H142.027Z" fill="#BA974C"/>
<path d="M75.6985 56.6339C116.853 34.1692 173.1 37.8733 219.461 59.2656C219.8 59.4208 222.157 64.9453 223.123 67.9439C174.518 49.2609 122.448 47.4618 73.0174 63.8376C73.2573 63.4707 75.1129 58.2143 75.6632 56.7045" fill="#D3AA5A"/>
<path d="M75.896 56.9729C84.786 52.1328 94.3109 48.5416 104.125 46.0862C114.236 43.5533 124.621 42.2269 135.035 41.8953C145.449 41.5637 156.456 42.2622 167.025 43.8779C177.742 45.5147 188.318 48.0759 198.612 51.4696C203.841 53.1982 208.998 55.1384 214.064 57.2974C215.341 57.8407 216.618 58.4051 217.888 58.9766C218.156 59.0966 218.424 59.2236 218.692 59.3435C218.841 59.4141 219.01 59.4705 219.151 59.5552C219.377 59.6963 219.257 59.6046 219.222 59.5693C219.341 59.6822 219.447 59.9574 219.532 60.1196C220.393 61.7918 221.084 63.5627 221.762 65.3125C222.114 66.2156 222.446 67.1257 222.749 68.05L223.229 67.5702C213.782 63.9437 204.109 60.9098 194.266 58.5321C184.664 56.2109 174.913 54.5246 165.085 53.4804C155.256 52.4362 145.273 52.0622 135.353 52.3656C125.503 52.669 115.675 53.6427 105.952 55.2654C96.0042 56.9305 86.1688 59.2871 76.5451 62.2998C75.3316 62.6808 74.1251 63.0688 72.9186 63.4639L73.3561 64.0354C73.9134 63.1041 74.2027 61.9047 74.5767 60.8887C75.0705 59.534 75.5503 58.1723 76.0442 56.8106C76.2135 56.3379 75.4586 56.1333 75.2893 56.606C74.8236 57.9113 74.3579 59.2165 73.8852 60.5218C73.5183 61.5307 73.2432 62.7231 72.6858 63.6474C72.5164 63.9296 72.7987 64.3318 73.1232 64.2189C82.634 61.0721 92.3565 58.5533 102.206 56.7189C111.971 54.8986 121.863 53.7485 131.79 53.2828C141.611 52.8242 151.468 53.0289 161.261 53.8896C171.054 54.7504 180.995 56.3097 190.689 58.4969C200.454 60.6982 210.063 63.5416 219.461 66.9846C220.654 67.4221 221.839 67.8666 223.024 68.3252C223.3 68.431 223.589 68.1135 223.504 67.8454C222.869 65.891 222.093 63.979 221.289 62.0952C220.957 61.3191 220.618 60.5359 220.238 59.788C219.955 59.2236 219.786 58.9978 219.207 58.7297C214.226 56.4437 209.146 54.3694 203.989 52.5067C193.539 48.732 182.773 45.8393 171.837 43.892C161.077 41.9799 150.148 40.971 139.219 41.0416C128.692 41.1051 118.151 42.1704 107.865 44.4211C97.8175 46.6154 88.0033 49.9597 78.8029 54.5881C77.6952 55.1455 76.6016 55.7241 75.515 56.3097C75.0705 56.5495 75.4656 57.2269 75.9101 56.987L75.896 56.9729Z" fill="#BA974C"/>
<path d="M71.5569 71.6422C74.7601 38.3332 115.788 13.1803 152.815 15.9531C190.788 18.7965 228.528 53.1074 225.325 86.4164" fill="#D9AE5C"/>
<path d="M225.713 86.4584L224.936 86.3807C226.192 73.321 221.056 59.21 210.48 46.6512C196.065 29.5416 173.96 17.9282 152.787 16.3408C134.795 14.9932 115.456 20.186 99.7154 30.5858C83.5513 41.2749 73.4266 56.2467 71.945 71.67L71.1689 71.5924C72.6787 55.9292 82.9233 40.7457 99.2921 29.9297C115.174 19.4311 134.697 14.21 152.85 15.5505C174.222 17.1521 196.538 28.8713 211.079 46.1362C221.797 58.8572 226.997 73.1728 225.72 86.4372L225.713 86.4584Z" fill="#BA974C"/>
<path d="M50.3975 86.4087C51.35 65.348 96.7803 50.6585 151.82 53.1491C206.86 55.6397 250.548 74.3579 249.595 95.4186" fill="#D9AE5E"/>
<path d="M249.984 95.4396L249.207 95.4043C250.139 74.7952 206.444 56.0135 151.806 53.537C125.165 52.3305 100.005 55.0962 80.9548 61.3192C61.9544 67.521 51.2441 76.4391 50.7926 86.4297L50.0094 86.3945C50.4751 76.0581 61.3758 66.893 80.7079 60.5784C99.8495 54.3272 125.115 51.5473 151.841 52.7609C178.554 53.9674 203.424 59.012 221.86 66.9636C240.466 74.9857 250.456 85.0962 249.991 95.4396H249.984Z" fill="#BA974C"/>
<path d="M148.215 167.907L208.85 155.567C221.289 161.289 233.177 178.413 241.722 189.116C236.324 205.048 228.796 209.415 215.687 217.98C216.47 226.348 215.405 236.042 214.544 242.576C181.552 240.685 94.8612 243.832 94.8612 243.832C93.7817 235.259 93.4501 227.145 94.1628 218.46C80.6515 211.433 72.6787 205.513 62.6105 195.445C71.1547 184.742 83.3961 162.813 95.8349 157.091L148.208 167.915L148.215 167.907Z" fill="#DAAE5E"/>
<path d="M148.398 168.055C153.429 167.032 158.467 166.009 163.497 164.979C172.987 163.046 182.484 161.113 191.973 159.187C195.804 158.403 199.635 157.627 203.474 156.844C205.266 156.477 207.171 156.251 208.928 155.736C208.956 155.729 209.005 155.715 209.033 155.715C208.462 155.715 209.033 155.87 209.196 155.948C209.619 156.153 210.035 156.371 210.452 156.604C212.018 157.472 213.514 158.467 214.946 159.546C217.973 161.825 220.731 164.443 223.342 167.173C228.817 172.917 233.636 179.238 238.497 185.489C239.005 186.139 239.513 186.795 240.021 187.444C240.268 187.754 240.515 188.072 240.762 188.382C241.185 188.918 241.291 189.194 241.051 189.892C240.409 191.712 239.69 193.512 238.864 195.261C237.523 198.105 235.901 200.807 233.918 203.255C230.052 208.032 224.979 211.552 219.892 214.904C218.382 215.899 216.872 216.879 215.362 217.867C215.327 217.881 215.313 217.91 215.306 217.938C216.047 226.129 215.228 234.405 214.163 242.533L214.565 242.413C206.465 241.955 198.337 241.863 190.23 241.821C180.085 241.771 169.946 241.863 159.807 242.011C149.704 242.159 139.6 242.371 129.497 242.625C121.602 242.822 113.706 243.048 105.818 243.295C103.342 243.373 100.858 243.45 98.3819 243.535C97.627 243.563 96.865 243.584 96.11 243.613C95.7432 243.627 95.2916 243.57 94.9318 243.655C94.8895 243.662 94.833 243.655 94.7836 243.655L95.2634 243.846C94.2121 235.421 93.8805 226.941 94.5649 218.474C94.5649 218.417 94.5014 218.375 94.4591 218.354C88.6877 215.348 83.0362 212.082 77.7657 208.251C72.7846 204.638 68.1914 200.539 63.817 196.214C63.6265 196.023 63.0691 195.649 63.1185 195.346C63.1467 195.177 63.4995 194.859 63.6053 194.725C63.9863 194.231 64.3603 193.737 64.7342 193.243C65.4892 192.227 66.237 191.204 66.9708 190.174C68.6218 187.853 70.2375 185.511 71.8744 183.175C75.3316 178.222 78.8382 173.29 82.7469 168.676C86.6557 164.062 90.8114 159.68 96.1806 157.176L95.7361 157.211C101.649 158.432 107.554 159.652 113.467 160.873C122.872 162.82 132.284 164.76 141.689 166.708C143.826 167.152 145.971 167.59 148.109 168.034C148.434 168.105 148.864 167.858 148.342 167.752C144.786 167.018 141.23 166.284 137.674 165.544C130.414 164.041 123.161 162.545 115.901 161.042C110.059 159.836 104.217 158.629 98.3819 157.423C97.4153 157.225 96.1171 156.675 95.1787 157.126C90.8466 159.222 87.2413 162.7 84.031 166.221C76.5804 174.398 70.8231 183.888 64.2545 192.743C63.6053 193.617 62.9421 194.492 62.2577 195.346C62.2225 195.395 62.2577 195.438 62.286 195.466C67.627 200.8 73.2855 205.802 79.5296 210.064C82.6764 212.209 85.936 214.177 89.2662 216.033C90.1975 216.548 91.1359 217.056 92.0743 217.557C92.5047 217.783 93.1044 217.98 93.4713 218.291C93.9793 218.728 93.69 219.695 93.6547 220.322C93.4995 222.728 93.4219 225.141 93.4219 227.554C93.4219 232.98 93.8241 238.392 94.4943 243.768C94.5155 243.944 94.8542 243.965 94.9741 243.958C97.9304 243.853 100.894 243.754 103.85 243.662C111.301 243.422 118.744 243.203 126.195 243.013C136.065 242.752 145.929 242.533 155.8 242.371C165.67 242.209 176.31 242.089 186.562 242.103C195.063 242.117 203.579 242.18 212.074 242.576C212.9 242.611 213.725 242.653 214.551 242.703C214.642 242.703 214.932 242.724 214.953 242.583C215.539 238.102 216.025 233.601 216.244 229.078C216.371 226.524 216.406 223.97 216.315 221.416C216.293 220.894 216.272 220.365 216.237 219.843C216.202 219.321 215.934 218.354 216.258 217.91C216.519 217.564 217.232 217.274 217.599 217.035C218.029 216.752 218.467 216.47 218.897 216.188C224.57 212.484 230.369 208.702 234.68 203.375C236.924 200.602 238.709 197.498 240.148 194.238C240.508 193.42 240.847 192.594 241.171 191.762C241.369 191.247 241.566 190.725 241.75 190.195C241.827 189.97 241.912 189.744 241.99 189.518C242.124 189.137 242.131 189.194 241.976 188.883C241.602 188.121 240.797 187.394 240.268 186.724C239.619 185.892 238.97 185.059 238.328 184.227C233.086 177.467 227.829 170.645 221.698 164.662C218.819 161.854 215.729 159.222 212.286 157.119C211.475 156.625 210.635 156.16 209.781 155.736C209.414 155.56 209.09 155.348 208.674 155.377C208.518 155.384 208.356 155.44 208.208 155.468C205.583 156.005 202.959 156.534 200.334 157.07C190.181 159.137 180.028 161.204 169.882 163.272C162.721 164.732 155.56 166.179 148.398 167.646C148.285 167.667 148.166 167.695 148.053 167.717C147.559 167.815 148.18 168.069 148.42 168.02L148.398 168.055Z" fill="#BA974C"/>
<path d="M150.388 166.235L97.3871 158.671C108.309 167.152 119.076 175.562 131.331 180.162C139.967 175.139 145.005 173.495 150.769 168.351C151.446 167.752 148.815 167.469 149.492 166.863C154.48 174.334 159.073 175.992 167.611 181.256C177.686 175.717 193.109 160.379 207.77 152.321L150.395 166.235H150.388Z" fill="#E9C586"/>
<path d="M150.501 166.093C148.744 165.846 146.994 165.592 145.238 165.345C141.025 164.746 136.806 164.146 132.594 163.539C127.479 162.805 122.357 162.079 117.241 161.345C112.832 160.717 108.422 160.089 104.019 159.461C101.874 159.158 99.7366 158.826 97.5917 158.544C97.5635 158.544 97.5282 158.537 97.5 158.53C97.4224 158.516 96.8015 158.53 97.0414 158.72C104.958 164.866 112.902 171.11 121.722 175.936C123.824 177.086 125.976 178.144 128.17 179.097C128.699 179.322 129.229 179.548 129.765 179.76C130.23 179.95 130.809 180.289 131.31 180.324C131.762 180.36 132.213 179.95 132.587 179.739C133.18 179.4 133.772 179.068 134.372 178.737C137.984 176.74 141.731 174.962 145.245 172.796C147.051 171.688 148.772 170.454 150.388 169.078C150.84 168.697 151.679 168.245 150.924 167.773C150.698 167.631 149.52 167.279 149.866 166.933L149.118 166.869C150.783 169.346 152.716 171.618 155.023 173.516C157.331 175.414 159.666 176.775 162.1 178.215C163.85 179.245 165.6 180.275 167.328 181.34C167.476 181.432 167.787 181.446 167.942 181.361C172.902 178.624 177.354 174.962 181.771 171.456C187.253 167.102 192.686 162.664 198.401 158.607C201.526 156.385 204.744 154.282 208.102 152.427C208.391 152.272 207.608 152.159 207.509 152.187C205.604 152.653 203.692 153.111 201.787 153.577C197.208 154.685 192.629 155.799 188.05 156.907L171.547 160.908C166.764 162.065 161.973 163.229 157.19 164.386C155.623 164.767 154.05 165.148 152.484 165.529C151.75 165.705 150.931 165.811 150.226 166.079C150.198 166.093 150.162 166.093 150.134 166.1C149.958 166.143 150.021 166.242 150.113 166.319C150.233 166.425 150.522 166.404 150.663 166.369C152.568 165.903 154.48 165.444 156.385 164.979C160.964 163.871 165.543 162.756 170.122 161.648L186.625 157.648C191.409 156.491 196.199 155.327 200.983 154.17C202.549 153.789 204.123 153.408 205.689 153.027C206.416 152.85 207.255 152.758 207.947 152.476C207.975 152.462 208.01 152.462 208.039 152.455L207.446 152.215C201.371 155.567 195.762 159.708 190.301 163.956C185.059 168.034 179.965 172.295 174.638 176.26C172.281 178.017 169.868 179.725 167.293 181.143L167.907 181.164C162.876 178.067 157.331 175.435 153.217 171.089C151.983 169.776 150.889 168.344 149.88 166.848C149.76 166.665 149.28 166.63 149.132 166.785C148.469 167.455 150.473 167.681 150.501 168.125C150.515 168.33 149.922 168.697 149.781 168.817C149.421 169.127 149.055 169.431 148.681 169.727C147.982 170.277 147.27 170.806 146.536 171.314C143.664 173.297 140.539 174.877 137.462 176.5C135.289 177.643 133.137 178.814 131.014 180.049H131.55C121.778 176.359 113.114 170.348 104.838 164.083C102.46 162.283 100.096 160.449 97.7399 158.615L97.2813 158.805C99.0381 159.052 100.788 159.306 102.545 159.553C106.757 160.153 110.976 160.752 115.188 161.359C120.303 162.093 125.426 162.82 130.541 163.553C134.951 164.181 139.36 164.809 143.763 165.437C145.908 165.741 148.046 166.072 150.19 166.354C150.219 166.354 150.254 166.361 150.282 166.369C150.381 166.383 150.72 166.432 150.769 166.305C150.818 166.178 150.621 166.107 150.515 166.093H150.501Z" fill="#BA974C"/>
<path d="M151.933 170.743C152.095 179.844 152.138 188.939 152.166 198.041C152.194 207.58 152.201 217.119 152.265 226.658C152.3 231.66 152.349 236.655 152.441 241.658C152.441 241.89 153.224 241.933 153.217 241.728C153.055 232.627 153.013 223.532 152.984 214.43C152.956 204.891 152.949 195.352 152.886 185.813C152.85 180.811 152.801 175.816 152.709 170.813C152.709 170.581 151.926 170.538 151.933 170.743Z" fill="#BA974C"/>
<path d="M92.9069 159.426C105.092 174.122 131.543 177.156 147.495 166.672C133.695 155.524 110.292 149.88 93.5771 155.827L92.9069 159.426Z" fill="#008ED1"/>
<path d="M208.85 155.828C197.378 173.269 166.778 179.16 150.381 166.235C166.002 156.435 190.223 149.294 208.285 153.034L208.85 155.828Z" fill="#008ED7"/>
<path d="M151.686 167.201C160.943 181.404 162.262 187.302 157.274 191.451C154.311 193.913 149.471 193.702 148.476 190.604C148.13 189.539 148.476 188.544 147.495 178.786" fill="#008ED1"/>
<path d="M147.411 219.772C148.837 219.772 149.993 218.616 149.993 217.19C149.993 215.764 148.837 214.607 147.411 214.607C145.984 214.607 144.828 215.764 144.828 217.19C144.828 218.616 145.984 219.772 147.411 219.772Z" fill="#E9C586"/>
<path d="M147.411 220.16C145.774 220.16 144.433 218.826 144.433 217.183C144.433 215.539 145.767 214.205 147.411 214.205C149.055 214.205 150.388 215.539 150.388 217.183C150.388 218.826 149.055 220.16 147.411 220.16ZM147.411 214.995C146.204 214.995 145.216 215.983 145.216 217.19C145.216 218.396 146.204 219.384 147.411 219.384C148.617 219.384 149.605 218.396 149.605 217.19C149.605 215.983 148.617 214.995 147.411 214.995Z" fill="#BA974C"/>
<path d="M147.411 236.55C148.837 236.55 149.993 235.394 149.993 233.968C149.993 232.542 148.837 231.386 147.411 231.386C145.984 231.386 144.828 232.542 144.828 233.968C144.828 235.394 145.984 236.55 147.411 236.55Z" fill="#E9C586"/>
<path d="M147.411 236.945C145.774 236.945 144.433 235.612 144.433 233.968C144.433 232.324 145.767 230.99 147.411 230.99C149.055 230.99 150.388 232.324 150.388 233.968C150.388 235.612 149.055 236.945 147.411 236.945ZM147.411 231.773C146.204 231.773 145.216 232.761 145.216 233.968C145.216 235.174 146.204 236.162 147.411 236.162C148.617 236.162 149.605 235.174 149.605 233.968C149.605 232.761 148.617 231.773 147.411 231.773Z" fill="#BA974C"/>
<path d="M148.935 168.373C139.191 178.116 136.714 204.666 144.828 218.178C156.032 201.922 153.725 176.141 149.047 168.352" fill="#008ED1"/>
<path d="M149.076 172.542C154.163 172.239 153.852 162.622 148.758 162.65C143.664 162.679 143.46 172.302 148.547 172.542" fill="#008ED1"/>
<path d="M215.433 218.177C227.194 211.89 237.284 203.177 242.307 188.134C240.028 185.199 238.843 183.167 236.409 180.804C229.586 192.89 223.215 198.076 213.817 203.981L215.433 218.184V218.177Z" fill="#E9C686"/>
<path d="M216.089 218.396C221.627 215.432 226.877 211.876 231.329 207.417C236.049 202.697 239.697 197.032 242.138 190.823C242.321 190.357 242.498 189.891 242.667 189.419C242.759 189.165 242.843 188.918 242.935 188.664C243.034 188.375 243.133 188.233 242.956 187.972C242.349 187.069 241.637 186.216 240.995 185.341C239.795 183.711 238.547 182.13 237.1 180.712C236.874 180.494 235.873 180.31 235.675 180.663C233.382 184.713 230.8 188.614 227.695 192.1C225.092 195.021 222.143 197.596 218.975 199.889C217.091 201.258 215.136 202.528 213.168 203.77C213.104 203.798 213.062 203.847 213.048 203.918C213.521 208.059 213.993 212.208 214.459 216.35C214.523 216.935 214.593 217.528 214.657 218.114C214.713 218.6 216.251 218.629 216.209 218.248C215.736 214.106 215.263 209.957 214.798 205.816C214.734 205.23 214.664 204.637 214.6 204.052L214.48 204.2C217.923 202.041 221.296 199.755 224.379 197.102C227.462 194.449 230.263 191.359 232.669 188.022C234.299 185.757 235.774 183.386 237.15 180.959L235.724 180.91C236.994 182.152 238.102 183.52 239.153 184.946C239.697 185.679 240.233 186.42 240.783 187.154C241.079 187.542 241.573 187.951 241.404 188.459C241.256 188.89 241.108 189.313 240.945 189.736C239.753 192.954 238.243 196.051 236.409 198.951C233.057 204.235 228.648 208.765 223.61 212.469C220.809 214.529 217.839 216.336 214.777 217.979C214.466 218.149 214.854 218.367 215.016 218.431C215.327 218.544 215.786 218.572 216.089 218.41V218.396Z" fill="#BB974C"/>
<path d="M211.171 196.983C214.269 208.505 215.397 220.562 214.755 232.465C214.572 235.823 214.24 239.168 213.768 242.498C213.711 242.914 215.256 243.091 215.32 242.632C217.02 230.729 216.865 218.544 214.826 206.691C214.261 203.41 213.549 200.158 212.681 196.948C212.575 196.545 211.037 196.496 211.164 196.983H211.171Z" fill="#BA974C"/>
<path d="M94.1627 218.452C82.5776 213.845 75.0564 209.139 62.6105 195.437C64.4238 192.149 66.6321 189.941 68.897 186.822C77.9633 197.603 87.2483 202.683 95.5244 208.13" fill="#E9C586"/>
<path d="M94.579 218.212C90.3951 216.547 86.2958 214.656 82.4647 212.286C78.2667 209.689 74.4426 206.535 70.8725 203.142C68.2408 200.644 65.7432 198.019 63.302 195.331L63.3584 195.578C65.1011 192.453 67.5494 189.842 69.6448 186.963L68.142 186.829C71.3523 190.639 74.9153 194.125 78.7958 197.243C82.1119 199.903 85.6326 202.288 89.2027 204.588C91.0795 205.795 92.9703 206.994 94.833 208.215C95.1293 208.412 95.5315 208.476 95.8843 208.419C96.0395 208.391 96.5052 208.222 96.2018 208.017C92.8716 205.83 89.4708 203.741 86.1829 201.491C82.4929 198.965 78.944 196.227 75.6844 193.165C73.5465 191.161 71.5357 189.038 69.6519 186.794C69.3979 186.498 68.4242 186.286 68.1491 186.66C66.0536 189.539 63.6053 192.149 61.8626 195.275C61.7991 195.381 61.8415 195.437 61.9191 195.522C65.9548 199.96 70.174 204.285 74.8589 208.045C78.4642 210.945 82.3659 213.443 86.5146 215.496C88.8711 216.667 91.2982 217.697 93.7464 218.671C94.0287 218.784 94.5578 218.84 94.8189 218.65C95.1011 218.452 94.7695 218.276 94.579 218.198V218.212Z" fill="#BA974C"/>
<path d="M96.8368 198.739C93.7747 210.134 92.5188 221.994 93.1397 233.777C93.3161 237.107 93.6406 240.43 94.1134 243.725C94.1839 244.219 95.722 244.226 95.6656 243.859C94.0005 232.182 94.1839 220.252 96.223 208.631C96.8015 205.35 97.5212 202.091 98.389 198.873C98.4878 198.506 96.9638 198.267 96.8368 198.739Z" fill="#BA974C"/>
<path d="M186.032 214.127C182.9 214.127 176.543 211.192 174.708 210.176C174.461 210.042 174.214 209.915 173.975 209.788C172.422 208.977 170.814 208.137 170.814 206.14V189.334C170.814 187.083 172.648 185.249 174.899 185.249H197.166C199.417 185.249 201.251 187.083 201.251 189.334V206.14C201.251 208.257 199.494 209.118 197.794 209.957L197.342 210.183C196.03 210.839 189.327 214.127 186.032 214.127ZM174.899 186.032C173.079 186.032 171.597 187.514 171.597 189.334V206.14C171.597 207.664 172.867 208.328 174.341 209.097C174.588 209.224 174.842 209.358 175.089 209.499C177.143 210.635 183.217 213.351 186.032 213.351C189.151 213.351 195.706 210.134 196.99 209.492L197.448 209.266C199.071 208.469 200.475 207.777 200.475 206.147V189.341C200.475 187.521 198.993 186.039 197.173 186.039H174.906L174.899 186.032Z" fill="#BA974C"/>
<path d="M171.498 190.245C173.043 192.368 175.477 193.815 177.749 195.049C179.88 196.199 182.095 197.18 184.353 198.055C184.77 198.217 185.186 198.394 185.609 198.521C186.272 198.718 186.745 198.493 187.331 198.267C189.419 197.462 191.472 196.559 193.462 195.522C194.866 194.788 196.249 193.991 197.533 193.067C198.655 192.263 199.741 191.359 200.546 190.231C200.8 189.871 199.325 189.56 199.064 189.934C197.603 191.987 195.261 193.391 193.095 194.584C191.084 195.691 188.982 196.658 186.851 197.505C186.406 197.681 185.955 197.858 185.503 198.02L186.449 198.055C185.221 197.632 184.015 197.131 182.822 196.616C180.444 195.579 178.081 194.414 175.957 192.926C174.871 192.164 173.798 191.303 173.015 190.216C172.825 189.955 172.38 189.906 172.077 189.913C171.971 189.913 171.315 189.998 171.498 190.245Z" fill="#BA974C"/>
<path d="M185.51 198.5C185.623 203.354 185.736 208.208 185.856 213.062C185.856 213.295 186.639 213.337 186.632 213.133C186.519 208.279 186.406 203.424 186.286 198.57C186.286 198.337 185.503 198.295 185.51 198.5Z" fill="#BA974C"/>
<path d="M118.786 214.127C115.654 214.127 109.304 211.192 107.462 210.176C107.215 210.042 106.968 209.915 106.729 209.788C105.176 208.977 103.568 208.137 103.568 206.14V189.334C103.568 187.083 105.402 185.249 107.653 185.249H129.92C132.171 185.249 134.005 187.083 134.005 189.334V206.14C134.005 208.257 132.248 209.125 130.548 209.957L130.096 210.183C128.784 210.839 122.081 214.127 118.786 214.127ZM107.653 186.032C105.833 186.032 104.351 187.514 104.351 189.334V206.14C104.351 207.664 105.621 208.328 107.095 209.097C107.342 209.224 107.596 209.358 107.843 209.499C109.897 210.635 115.971 213.351 118.786 213.351C121.905 213.351 128.46 210.134 129.744 209.492L130.202 209.266C131.825 208.469 133.229 207.777 133.229 206.147V189.341C133.229 187.521 131.747 186.039 129.927 186.039H107.66L107.653 186.032Z" fill="#BA974C"/>
<path d="M104.252 190.245C105.797 192.368 108.231 193.815 110.503 195.049C112.634 196.199 114.849 197.18 117.107 198.055C117.524 198.217 117.94 198.394 118.363 198.521C119.026 198.718 119.499 198.493 120.085 198.267C122.173 197.462 124.226 196.559 126.216 195.522C127.62 194.788 129.003 193.991 130.287 193.067C131.409 192.263 132.495 191.359 133.3 190.231C133.554 189.871 132.079 189.56 131.818 189.934C130.357 191.987 128.015 193.391 125.849 194.584C123.838 195.691 121.736 196.658 119.605 197.505C119.16 197.681 118.709 197.858 118.257 198.02L119.203 198.055C117.975 197.632 116.769 197.131 115.576 196.616C113.198 195.579 110.835 194.414 108.711 192.926C107.625 192.164 106.552 191.303 105.769 190.216C105.579 189.955 105.134 189.906 104.831 189.913C104.725 189.913 104.069 189.998 104.252 190.245Z" fill="#BA974C"/>
<path d="M118.264 198.5C118.377 203.354 118.49 208.208 118.61 213.062C118.61 213.295 119.393 213.337 119.386 213.133C119.273 208.279 119.16 203.424 119.04 198.57C119.04 198.337 118.257 198.295 118.264 198.5Z" fill="#BA974C"/>
<path opacity="0.1" d="M114.476 128.099C114.243 127.514 113.918 126.992 113.516 126.54C112.662 124.318 111.032 122.462 108.852 121.079C104.266 117.791 98.0644 119.139 93.1044 120.818C91.0089 121.545 88.7441 121.996 86.8885 123.274C82.8246 126.336 83.2408 133.328 85.9078 137.187C86.4158 137.843 87.0296 138.33 87.7211 138.711C89.0122 140.122 90.9525 140.813 92.7728 141.35C95.7502 142.359 98.9887 142.5 102.093 142.083C104.33 141.808 106.609 141.413 108.612 140.32C108.873 140.207 109.12 140.087 109.36 139.967C110.715 139.925 112.048 139.748 113.325 139.254C116.388 137.152 115.682 131.133 114.476 128.099Z" fill="#E4007F"/>
<path opacity="0.1" d="M215.651 119.485C213.993 117.897 211.644 117.523 209.457 117.234C207.481 116.825 205.499 116.479 203.488 116.331C201.442 116.141 199.381 116.507 197.427 117.072C196.051 117.439 194.732 117.961 193.716 118.998C192.467 120.113 191.508 121.503 190.513 122.836C189.384 124.367 188.276 126.004 187.952 127.916C187.712 130.463 188.191 133.3 189.737 135.388C190.068 135.804 190.47 136.108 190.908 136.34C191.359 137.533 192.051 138.605 193.06 139.445C194.266 140.299 195.854 140.172 197.258 140.313C202.676 140.419 208.497 139.953 213.281 137.194C215.221 135.804 217.331 134.414 218.509 132.284C220.456 128.008 219.363 122.448 215.644 119.478L215.651 119.485Z" fill="#E4007F"/>
<path d="M185.225 118.741C189.333 117.864 191.715 112.711 190.545 107.231C189.375 101.751 185.097 98.0196 180.989 98.8965C176.881 99.7735 174.499 104.927 175.669 110.407C176.839 115.887 181.117 119.618 185.225 118.741Z" fill="#2E3535"/>
<path d="M122.878 110.53C124.318 105.115 122.196 99.8493 118.136 98.7692C114.077 97.6891 109.618 101.203 108.177 106.618C106.737 112.033 108.859 117.298 112.919 118.379C116.978 119.459 121.437 115.945 122.878 110.53Z" fill="#2E3535"/>
<path d="M141.978 137.272C146.127 142.133 155.179 140.01 156.921 133.942C157.338 132.488 155.08 131.875 154.664 133.321C153.38 137.801 146.606 139.099 143.629 135.621C143.22 135.141 142.394 135.198 141.971 135.621C141.491 136.101 141.562 136.792 141.971 137.279L141.978 137.272Z" fill="#F2B1AE"/>
<path d="M69.6096 87.5938C73.1232 79.2542 105.917 72.8125 149.548 74.9433C193.173 77.074 225.571 86.1615 227.949 95.115" fill="white"/>
<path d="M227.575 95.2211C226.453 91.0019 217.902 86.4934 204.116 82.8528C189.588 79.0146 170.207 76.3476 149.527 75.3387C129.109 74.3368 109.607 75.1905 94.6002 77.7305C80.6303 80.0941 71.6557 83.7488 69.9694 87.7493L69.2498 87.4459C73.1444 78.2103 108.422 72.5447 149.563 74.5626C191.917 76.6369 225.776 85.428 228.323 95.0235L227.568 95.2281L227.575 95.2211Z" fill="#BA974C"/>
<path d="M73.2502 63.0691C74.5696 57.9327 76.8133 54.5249 77.1308 53.7911C132.093 38.65 161.007 42.206 216.837 54.6801C219.546 58.8006 221.769 63.1538 222.679 67.7469C199.015 56.437 136.849 43.6524 73.2502 63.055V63.0691Z" fill="#E9C586"/>
<path d="M73.6242 63.1748C74.2733 60.7054 75.1905 58.3206 76.3617 56.0558C76.658 55.4772 76.9403 54.814 77.3213 54.2849C77.3565 54.2355 77.3848 54.1014 77.4341 54.0591C77.4835 54.0168 78.0762 53.9392 78.2173 53.9039C79.0075 53.6852 79.8048 53.4735 80.6021 53.2618C86.4793 51.6955 92.3848 50.2562 98.3396 49.0144C108.746 46.8343 119.287 45.2468 129.906 44.5836C139.678 43.9697 149.485 44.1532 159.236 45.0069C169.699 45.9241 180.085 47.5751 190.4 49.5365C196.242 50.6442 202.07 51.8578 207.883 53.1137C209.407 53.4453 210.938 53.7769 212.462 54.1155C213.217 54.2849 213.972 54.4472 214.727 54.6165C215.108 54.7011 215.489 54.7858 215.87 54.8705C216.435 54.9975 216.632 55.0821 216.95 55.569C218.594 58.1372 220.075 60.8394 221.127 63.711C221.62 65.0586 222.016 66.4415 222.305 67.8526L222.876 67.4152C217.105 64.6635 211.009 62.6033 204.864 60.8535C196.58 58.497 188.128 56.7472 179.619 55.449C169.48 53.9039 159.236 53.0078 148.984 52.7327C137.427 52.4222 125.849 52.902 114.356 54.2073C101.98 55.6113 89.7037 57.9678 77.7093 61.3404C76.1853 61.7708 74.6613 62.2153 73.1444 62.6809C72.968 62.7374 72.8692 62.8785 72.8551 63.0549V63.069C72.8198 63.5699 73.603 63.5699 73.6312 63.069V63.0549C73.5395 63.1819 73.4407 63.3089 73.349 63.4288C85.3928 59.767 97.7328 57.1282 110.214 55.4914C121.672 53.9885 133.236 53.3183 144.793 53.4382C155.235 53.544 165.677 54.2919 176.021 55.7101C184.685 56.9025 193.293 58.5534 201.745 60.8042C208.194 62.5186 214.607 64.5506 220.71 67.2741C221.303 67.5351 221.889 67.8103 222.474 68.0925C222.785 68.2407 223.116 67.9937 223.046 67.655C222.446 64.727 221.359 61.9401 219.991 59.2872C219.285 57.9185 218.509 56.592 217.683 55.3009C217.528 55.0539 217.331 54.6024 217.105 54.4189C216.907 54.2566 216.597 54.2425 216.357 54.1931C215.503 54.0026 214.643 53.8122 213.789 53.6217C207.707 52.2741 201.625 50.9688 195.515 49.7482C184.826 47.6174 174.066 45.7548 163.222 44.6118C153.26 43.5676 143.227 43.1725 133.215 43.624C122.603 44.1038 112.048 45.5078 101.627 47.5539C95.6585 48.7251 89.7319 50.0939 83.8405 51.6108C82.2248 52.0271 80.6091 52.4504 79.0005 52.8879C78.6265 52.9867 78.2526 53.0925 77.8716 53.1913C77.5964 53.2689 77.166 53.29 76.9261 53.4664C76.7568 53.5934 76.6863 53.8122 76.5875 53.9956C75.7338 55.5972 74.8942 57.1847 74.2168 58.8709C73.6806 60.2115 73.2291 61.5803 72.8622 62.9773C72.7352 63.4641 73.4901 63.6687 73.6171 63.1819L73.6242 63.1748Z" fill="#BA974C"/>
<path d="M135.698 18.5064C128.086 21.6178 122.54 28.9273 121.214 36.9988C120.84 39.2637 120.804 41.5496 121.122 43.8215C121.192 44.3154 121.94 44.1037 121.877 43.6169C120.79 35.8065 124.254 27.7138 130.238 22.6903C131.931 21.2651 133.85 20.0939 135.903 19.2542C136.362 19.0637 136.164 18.3088 135.698 18.4993V18.5064Z" fill="#BA974C"/>
<path d="M159.426 20.4332C166.482 23.7281 171.336 30.9882 172.119 38.6928C172.338 40.88 172.232 43.0884 171.766 45.2333C171.66 45.7201 172.415 45.9318 172.521 45.4379C174.229 37.5498 171.279 29.0127 165.416 23.5447C163.758 21.9995 161.874 20.7083 159.821 19.7488C159.37 19.5371 158.975 20.2074 159.426 20.4261V20.4332Z" fill="#BA974C"/>
</svg>
