<svg width="250" height="449" viewBox="0 0 250 449" fill="none" xmlns="http://www.w3.org/2000/svg">
<circle cx="125" cy="145" r="125" fill="#FFE2E2"/>
<path d="M124.8 247.229C130.853 259.639 145.82 264.792 158.23 258.74C170.639 252.687 175.793 237.72 169.74 225.311C163.687 212.901 148.721 207.747 136.311 213.8C123.901 219.853 118.748 234.82 124.8 247.229Z" fill="#FFE162"/>
<path d="M136.021 235.945C136.116 232.719 137.628 220.282 142.057 214.392C132.384 216.696 125.065 225.232 124.78 235.637C124.489 246.026 131.313 254.946 140.809 257.794C136.742 251.71 135.925 239.369 136.021 235.945Z" fill="white"/>
<path d="M153.783 248.698C154.992 251.177 157.981 252.206 160.46 250.997C162.938 249.788 163.967 246.799 162.759 244.321C161.55 241.842 158.561 240.813 156.082 242.022C153.604 243.231 152.575 246.22 153.783 248.698Z" fill="white"/>
<path d="M66.9593 161.388C73.012 173.798 87.9787 178.952 100.388 172.899C112.798 166.846 117.952 151.88 111.899 139.47C105.846 127.06 90.8796 121.907 78.4698 127.959C66.0601 134.012 60.9066 148.979 66.9593 161.388Z" fill="#FFE162"/>
<path d="M78.1804 150.104C78.2753 146.878 79.7867 134.442 84.2161 128.552C74.5433 130.855 67.2235 139.391 66.9394 149.796C66.6476 160.185 73.4717 169.106 82.9675 171.953C78.9008 165.869 78.0835 153.528 78.1804 150.104Z" fill="white"/>
<path d="M95.9423 162.857C97.1511 165.336 100.14 166.365 102.619 165.156C105.097 163.947 106.126 160.958 104.918 158.48C103.709 156.001 100.72 154.972 98.2411 156.181C95.7627 157.39 94.7335 160.379 95.9423 162.857Z" fill="white"/>
<path fill-rule="evenodd" clip-rule="evenodd" d="M175 7.5C175 3.35786 171.642 0 167.5 0H82.5C78.3579 0 75 3.35786 75 7.5C75 11.6421 71.6421 15 67.5 15H60C54.4772 15 50 19.4772 50 25V35C50 40.5228 54.4772 45 60 45H190C195.523 45 200 40.5228 200 35V25C200 19.4772 195.523 15 190 15H182.5C178.358 15 175 11.6421 175 7.5Z" fill="#D65550"/>
<rect x="50" y="240" width="150" height="30" rx="15" fill="#FFE162"/>
<rect x="25" y="419" width="200" height="30" rx="15" fill="#FFE162"/>
<path d="M61.8421 269H188.158L205 419H125H45L61.8421 269Z" fill="#D65550"/>
<path d="M98.9474 357H151.053L158 419H125H92L98.9474 357Z" fill="#9F433F"/>
<path d="M70 240C83.8071 240 95 228.807 95 215C95 201.193 83.8071 190 70 190C56.1929 190 45 201.193 45 215C45 228.807 56.1929 240 70 240Z" fill="#0096DE"/>
<path d="M64.7771 224.968C61.9189 223.468 51.4037 216.658 48.0516 210.095C45.8815 219.798 50.3452 230.119 59.5724 234.936C68.782 239.752 79.7912 237.529 86.5131 230.243C79.2619 231.231 67.8116 226.556 64.7771 224.968Z" fill="white"/>
<path d="M84.0251 214.594C86.7827 214.594 89.0181 212.359 89.0181 209.601C89.0181 206.844 86.7827 204.608 84.0251 204.608C81.2676 204.608 79.0322 206.844 79.0322 209.601C79.0322 212.359 81.2676 214.594 84.0251 214.594Z" fill="white"/>
<path d="M159 192C172.807 192 184 180.807 184 167C184 153.193 172.807 142 159 142C145.193 142 134 153.193 134 167C134 180.807 145.193 192 159 192Z" fill="#0096DE"/>
<path d="M153.777 176.968C150.919 175.468 140.404 168.658 137.052 162.095C134.882 171.798 139.345 182.119 148.572 186.936C157.782 191.752 168.791 189.529 175.513 182.243C168.262 183.231 156.812 178.556 153.777 176.968Z" fill="white"/>
<path d="M173.025 166.594C175.783 166.594 178.018 164.359 178.018 161.601C178.018 158.844 175.783 156.608 173.025 156.608C170.268 156.608 168.032 158.844 168.032 161.601C168.032 164.359 170.268 166.594 173.025 166.594Z" fill="white"/>
<path d="M139.943 186.07C134.459 173.398 119.741 167.572 107.07 173.056C94.3987 178.541 88.5725 193.259 94.0567 205.93C99.5409 218.601 114.259 224.427 126.93 218.943C139.601 213.459 145.428 198.741 139.943 186.07Z" fill="#D65550"/>
<path d="M128.222 196.833C127.981 200.052 125.908 212.407 121.216 218.091C130.984 216.228 138.683 208.032 139.438 197.651C140.2 187.285 133.787 178.065 124.43 174.79C128.217 181.053 128.474 193.418 128.222 196.833Z" fill="white"/>
<path d="M111.057 183.289C109.961 180.759 107.022 179.595 104.491 180.69C101.961 181.786 100.797 184.725 101.892 187.256C102.988 189.786 105.927 190.95 108.458 189.855C110.988 188.759 112.152 185.82 111.057 183.289Z" fill="white"/>
<path d="M232.817 150.944C227.332 138.272 212.615 132.446 199.943 137.93C187.272 143.415 181.446 158.133 186.93 170.804C192.414 183.475 207.132 189.301 219.803 183.817C232.475 178.333 238.301 163.615 232.817 150.944Z" fill="#D65550"/>
<path d="M221.096 161.707C220.855 164.926 218.782 177.281 214.09 182.965C223.857 181.102 231.556 172.906 232.311 162.525C233.073 152.159 226.661 142.939 217.303 139.664C221.09 145.927 221.348 158.292 221.096 161.707Z" fill="white"/>
<path d="M203.93 148.163C202.835 145.633 199.895 144.469 197.365 145.564C194.834 146.66 193.67 149.599 194.766 152.13C195.861 154.66 198.8 155.824 201.331 154.729C203.862 153.633 205.025 150.694 203.93 148.163Z" fill="white"/>
<path d="M190.564 233.872C204.37 234.043 215.701 222.989 215.871 209.183C216.042 195.377 204.989 184.047 191.183 183.876C177.377 183.705 166.046 194.758 165.875 208.564C165.704 222.371 176.758 233.701 190.564 233.872Z" fill="#7BBD31"/>
<path d="M185.527 218.777C182.688 217.242 172.258 210.302 168.987 203.698C166.697 213.374 171.033 223.75 180.2 228.68C189.349 233.61 200.385 231.524 207.197 224.321C199.934 225.219 188.542 220.402 185.527 218.777Z" fill="white"/>
<path d="M204.902 208.642C207.66 208.676 209.923 206.468 209.957 203.711C209.991 200.954 207.783 198.691 205.026 198.657C202.269 198.622 200.006 200.83 199.972 203.587C199.938 206.345 202.145 208.608 204.902 208.642Z" fill="white"/>
<path d="M40.9981 199.306C54.8041 199.476 66.1347 188.423 66.3056 174.617C66.4764 160.811 55.4229 149.48 41.6169 149.309C27.8108 149.139 16.4803 160.192 16.3094 173.998C16.1385 187.804 27.192 199.135 40.9981 199.306Z" fill="#7BBD31"/>
<path d="M35.9615 184.211C33.1222 182.676 22.6921 175.736 19.4214 169.132C17.1314 178.808 21.467 189.183 30.6339 194.114C39.7832 199.044 50.8191 196.957 57.6307 189.754C50.3678 190.653 38.9762 185.836 35.9615 184.211Z" fill="white"/>
<path d="M55.3366 174.075C58.0939 174.109 60.3568 171.902 60.3909 169.144C60.425 166.387 58.2175 164.124 55.4601 164.09C52.7028 164.056 50.4399 166.264 50.4058 169.021C50.3717 171.778 52.5792 174.041 55.3366 174.075Z" fill="white"/>
<path d="M66.5 63.5C55.5 70 41.1 87.3 33.5 102.5" stroke="white" stroke-width="20" stroke-linecap="round"/>
</svg>
