<svg width="426" height="426" viewBox="0 0 426 426" fill="none" xmlns="http://www.w3.org/2000/svg">
<g clip-path="url(#clip0_810_1651)">
<path d="M95.34 349.01C103.166 349.01 109.51 342.666 109.51 334.84C109.51 327.014 103.166 320.67 95.34 320.67C87.5141 320.67 81.17 327.014 81.17 334.84C81.17 342.666 87.5141 349.01 95.34 349.01Z" stroke="#DBD27B" stroke-miterlimit="10"/>
<path d="M83.16 346.91C85.33 347.24 87.38 346.23 87.97 344.4C88.63 342.33 87.16 340.01 84.69 339.22C82.22 338.43 79.67 339.46 79.01 341.53C78.42 343.35 79.5 345.37 81.46 346.37L76.48 361.91L75.94 363.61L80.72 365.14L81.26 363.44L78.18 362.45L78.74 360.7L81.83 361.69L82.37 359.99L79.28 359L83.16 346.91ZM80.49 342C80.76 341.16 82.32 340.91 83.98 341.44C85.64 341.97 86.76 343.08 86.49 343.92C86.22 344.76 84.66 345.01 83 344.48C81.34 343.95 80.22 342.84 80.49 342Z" fill="#DBD27B"/>
<path d="M87.34 349.81C89.54 349.72 91.35 348.33 91.58 346.42C91.83 344.26 89.95 342.27 87.37 341.97C84.79 341.67 82.49 343.17 82.24 345.32C82.02 347.22 83.46 349 85.58 349.6L83.67 365.81L83.46 367.58L88.44 368.17L88.65 366.4L85.44 366.02L85.65 364.19L88.87 364.57L89.08 362.8L85.86 362.42L87.34 349.81ZM83.77 345.5C83.87 344.63 85.36 344.08 87.08 344.29C88.8 344.5 90.12 345.37 90.02 346.24C89.92 347.11 88.43 347.66 86.71 347.45C84.99 347.24 83.67 346.37 83.77 345.5Z" fill="#DBD27B"/>
<path d="M92.85 352.09C95.04 351.87 96.77 350.38 96.88 348.46C97.01 346.29 95.01 344.41 92.41 344.26C89.81 344.11 87.61 345.74 87.48 347.91C87.37 349.82 88.91 351.51 91.06 351.98L90.1 368.27L90 370.05L95.01 370.34L95.11 368.56L91.88 368.37L91.99 366.54L95.23 366.73L95.33 364.95L92.09 364.76L92.84 352.09H92.85ZM89.04 348C89.09 347.12 90.54 346.49 92.28 346.59C94.02 346.69 95.38 347.49 95.33 348.37C95.28 349.25 93.83 349.88 92.09 349.78C90.35 349.68 88.99 348.88 89.04 348Z" fill="#DBD27B"/>
<path d="M97.93 352.45C100.12 352.23 101.85 350.74 101.96 348.82C102.09 346.65 100.09 344.77 97.49 344.62C94.89 344.47 92.69 346.1 92.56 348.27C92.45 350.18 93.99 351.87 96.14 352.34L95.18 368.63L95.08 370.41L100.09 370.7L100.19 368.92L96.96 368.73L97.07 366.9L100.31 367.09L100.41 365.31L97.17 365.12L97.92 352.45H97.93ZM94.12 348.36C94.17 347.48 95.62 346.85 97.36 346.95C99.1 347.05 100.46 347.85 100.41 348.73C100.36 349.61 98.91 350.24 97.17 350.14C95.43 350.04 94.07 349.24 94.12 348.36Z" fill="#DBD27B"/>
<path d="M103.35 351.03C105.51 350.61 107.1 348.97 107.04 347.05C106.97 344.88 104.81 343.19 102.21 343.27C99.61 343.35 97.56 345.18 97.63 347.35C97.69 349.26 99.38 350.8 101.56 351.08L102.08 367.39L102.14 369.17L107.16 369.01L107.1 367.23L103.87 367.33L103.81 365.49L107.05 365.39L106.99 363.61L103.75 363.71L103.34 351.02L103.35 351.03ZM99.18 347.3C99.15 346.42 100.54 345.66 102.28 345.61C104.02 345.56 105.45 346.22 105.48 347.1C105.51 347.98 104.12 348.74 102.38 348.79C100.64 348.84 99.21 348.18 99.18 347.3Z" fill="#DBD27B"/>
<path d="M107.98 348.4C110.03 347.61 111.31 345.72 110.92 343.84C110.48 341.72 108.05 340.42 105.51 340.96C102.97 341.49 101.26 343.65 101.71 345.77C102.1 347.65 104.04 348.87 106.23 348.76L109.57 364.73L109.94 366.48L114.85 365.45L114.48 363.7L111.32 364.36L110.94 362.56L114.11 361.9L113.74 360.15L110.57 360.81L107.97 348.38L107.98 348.4ZM103.23 345.45C103.05 344.59 104.28 343.6 105.99 343.25C107.7 342.9 109.22 343.3 109.4 344.16C109.58 345.02 108.35 346.01 106.64 346.36C104.93 346.71 103.41 346.31 103.23 345.45Z" fill="#DBD27B"/>
<path d="M130.42 230.559C84.92 189.529 78.2 121.959 119.04 76.2791C159.88 30.6091 238.49 26.0691 284.32 66.7291C330.15 107.389 327.25 181.579 286.78 227.569C303.68 240.779 343.61 280.159 338.47 300.989C331.15 330.669 317.11 317.669 295.44 303.269C298.23 325.889 291.53 353.789 286.74 370.719C282.42 385.989 275.14 417.299 259.04 418.239C236.94 418.069 235.35 411.589 230.75 398.379C225.8 384.129 223.66 372.299 212.05 372.209C200.4 372.209 200.51 386.579 196.92 397.659C192.93 409.979 196.39 417.189 174.52 418.599C155.98 419.799 147.62 391.749 139.55 368.879C135.27 356.749 129.35 316.999 130.02 303.649C118.54 314.249 108.59 340.489 91.36 323.249C83.33 315.209 86.49 301.169 89.61 290.249C96.34 266.659 110.89 245.379 130.43 230.549" fill="white"/>
<path d="M130.86 230.499C117.42 218.329 106.73 203.259 100.1 186.359C93.7701 170.209 91.2501 152.609 93.0901 135.349C94.9601 117.829 101.34 100.969 111.45 86.5495C121.56 72.1295 134.75 60.7995 150.17 52.8095C165.33 44.9495 182.2 40.4695 199.22 39.3895C216.24 38.3095 233.49 40.6095 249.52 46.4695C265.55 52.3295 280.39 61.9195 291.83 74.7195C303.18 87.4195 310.91 103.079 314.65 119.659C318.35 136.079 318.25 153.279 314.87 169.749C311.49 186.219 304.33 203.209 294.24 217.449C291.77 220.929 289.12 224.279 286.31 227.489C286.26 227.539 286.31 227.609 286.35 227.649C293.63 233.349 300.4 239.729 306.86 246.339C314.77 254.429 322.31 263.039 328.59 272.469C333.4 279.689 338.68 288.559 338.43 297.559C338.37 299.829 337.76 302.009 337.12 304.179C336.29 306.989 335.28 309.789 333.82 312.329C331.94 315.599 329.11 318.499 325.13 318.699C320.51 318.93 315.92 316.229 312.1 313.949C306.54 310.629 301.29 306.809 295.9 303.229C295.79 303.159 294.93 302.949 294.96 303.249C297.09 321.039 294.03 339.289 289.94 356.589C288.37 363.239 286.5 369.809 284.68 376.399C282.96 382.599 281.17 388.789 278.88 394.819C276.59 400.849 273.86 406.979 269.63 411.889C267.9 413.9 265.87 415.709 263.47 416.859C260.17 418.439 256.6 418.109 253.04 417.829C247.39 417.389 241.18 416.249 237.34 411.679C234.28 408.039 232.91 403.169 231.39 398.759C227.87 388.609 224.35 369.21 209.38 372.289C203.49 373.499 201.2 379.379 199.78 384.569C198.87 387.899 198.21 391.299 197.32 394.639C196.59 397.379 195.68 400.059 195.04 402.829C194.12 406.769 193.5 411.259 190.28 414.069C188.31 415.789 185.74 416.669 183.24 417.259C179.54 418.129 175.35 418.799 171.56 418.369C164.97 417.619 160 412.589 156.43 407.379C152.25 401.27 149.32 394.339 146.68 387.459C144.07 380.669 141.44 373.759 139.36 366.779C137.74 361.349 136.66 355.759 135.64 350.189C133.23 337.069 131.24 323.709 130.6 310.369C130.49 308.159 130.43 305.939 130.53 303.729C130.55 303.409 129.71 303.449 129.56 303.589C123.44 309.309 119.32 316.799 113.47 322.769C110.88 325.409 107.71 328.06 103.94 328.669C99.2401 329.43 94.9501 326.409 91.8201 323.219C83.8901 315.119 86.9301 301.929 89.5801 292.249C92.7001 280.849 97.4601 269.989 103.85 260.039C111.08 248.789 120.24 238.819 130.87 230.709C131.17 230.479 130.24 230.269 130.03 230.429C110.07 245.659 95.5301 267.249 88.7901 291.429C86.0701 301.199 82.7601 314.639 90.6001 322.989C93.4801 326.059 97.3101 328.809 101.62 329.159C105.12 329.449 108.35 328.029 111.08 325.949C118.96 319.93 123.33 310.489 130.52 303.769L129.55 303.629C129.3 309.009 129.82 314.449 130.35 319.799C131.06 326.979 132.03 334.139 133.15 341.259C134.18 347.749 135.33 354.219 136.81 360.619C138.16 366.449 140.17 372.019 142.15 377.659C144.85 385.339 147.61 393.049 151.32 400.299C154.22 405.969 157.82 411.819 163.15 415.519C168.48 419.219 174.15 419.139 180.28 418.259C184.97 417.589 190.42 416.339 193.12 412.029C195.38 408.409 195.72 403.769 196.84 399.739C197.76 396.439 198.73 393.179 199.51 389.839C200.29 386.499 201.02 383.079 202.36 379.909C203.58 377.009 205.47 374.209 208.53 373.049C211.97 371.739 216.22 372.46 219.12 374.669C224.6 378.84 226.48 386.939 228.52 393.129C230.33 398.619 231.87 404.739 234.95 409.709C237.4 413.659 241.2 415.939 245.64 417.079C248.98 417.939 252.45 418.249 255.89 418.389C258.64 418.499 261.18 418.49 263.75 417.389C268.94 415.169 272.48 410.179 275.13 405.399C281.36 394.179 284.33 381.369 287.74 369.089C292.49 351.989 296.34 334.279 296.61 316.469C296.68 312.079 296.49 307.689 295.97 303.329L295.03 303.349C299.69 306.449 304.26 309.699 308.99 312.689C312.61 314.979 316.42 317.289 320.57 318.459C323.38 319.259 326.46 319.459 329.17 318.189C332.77 316.509 334.9 312.74 336.38 309.229C338.18 304.939 339.76 300.179 339.38 295.469C339.06 291.409 337.68 287.459 336.01 283.769C331.64 274.149 325.03 265.549 318.19 257.569C311.28 249.509 303.8 241.919 295.9 234.829C294.3 233.399 292.68 231.979 291.04 230.599C290.33 229.999 289.62 229.409 288.9 228.829C288.6 228.579 288.15 228.329 287.89 228.019C287.87 227.999 287.47 227.749 287.46 227.679C287.38 227.309 288.03 226.809 288.26 226.549C292.26 221.889 295.9 216.929 299.16 211.719C311.81 191.499 318.68 167.639 318.44 143.769C318.21 120.449 310.95 97.1995 296.34 78.8395C281.73 60.4795 261.13 48.3895 238.77 42.6395C216.56 36.9295 192.74 37.4395 170.75 43.9195C148.76 50.3995 127.68 63.8095 113.26 82.5995C98.4501 101.909 90.7101 125.979 91.6001 150.309C92.4901 174.639 101.93 198.509 117.42 217.409C121.28 222.119 125.5 226.509 130.01 230.599C130.21 230.779 131.16 230.719 130.89 230.469L130.86 230.499Z" fill="#D9DBE0"/>
<path d="M130.76 230.641L209.42 249.931C209.42 249.931 209.45 249.931 209.46 249.931L286.54 227.751C286.62 227.731 286.68 227.831 286.61 227.891L209.59 296.651C209.59 296.651 209.52 296.681 209.49 296.651L130.69 230.781C130.63 230.731 130.68 230.621 130.76 230.641Z" fill="#DEE0E4"/>
<path d="M209.54 297.16C209.41 297.16 209.27 297.12 209.17 297.02L130.07 230.9L130.23 230.45C130.35 230.21 130.62 230.08 130.88 230.15L209.43 249.41L286.78 227.16L287.07 227.54C287.2 227.78 287.15 228.07 286.95 228.25L209.93 297.01C209.82 297.11 209.68 297.16 209.55 297.16H209.54ZM132.4 231.55L209.53 296.02L284.9 228.73L209.45 250.44L209.27 250.4L132.39 231.55H132.4Z" fill="#D9DBE0"/>
<path d="M198.46 261.47C199.58 265.09 201.44 271.16 202.56 274.78C203.82 274.83 204.71 274.78 204.71 274.78L196.77 302.03L223.07 302.65L215.5 275.03H217.79C219.11 271.26 221.31 266.49 222.63 262.72L223.93 252.36L209.58 250.78L196.76 252.45L198.45 261.47H198.46Z" fill="#008ED0"/>
<path d="M197.98 261.61C199.35 266.04 200.71 270.48 202.08 274.92C202.15 275.14 202.34 275.28 202.56 275.29C203.28 275.32 204 275.33 204.71 275.29L204.23 274.66C203.34 277.73 202.44 280.79 201.55 283.86C200.13 288.75 198.7 293.64 197.28 298.53C196.95 299.65 196.62 300.78 196.3 301.9C196.21 302.22 196.46 302.53 196.78 302.53C199.75 302.6 202.72 302.67 205.69 302.74L219.82 303.07C220.91 303.1 221.99 303.12 223.08 303.15C223.41 303.15 223.65 302.82 223.56 302.52C222.71 299.42 221.86 296.31 221.01 293.21C219.65 288.24 218.29 283.27 216.92 278.3C216.61 277.16 216.3 276.03 215.99 274.89L215.51 275.52H217.8C218.03 275.52 218.21 275.36 218.28 275.15C219.14 272.7 220.17 270.3 221.15 267.9C221.64 266.71 222.13 265.51 222.59 264.3C222.81 263.73 223.08 263.15 223.16 262.54C223.48 260.04 223.79 257.54 224.1 255.03C224.21 254.13 224.32 253.24 224.44 252.34C224.48 252.05 224.18 251.87 223.94 251.84C219.95 251.4 215.96 250.96 211.98 250.53C211.02 250.42 210.04 250.21 209.07 250.34L202.51 251.19C200.6 251.44 198.69 251.69 196.78 251.94C196.44 251.98 196.23 252.22 196.3 252.57C196.86 255.58 197.42 258.59 197.99 261.59C198.11 262.22 199.07 261.95 198.95 261.32C198.39 258.31 197.83 255.3 197.26 252.3L196.78 252.93C200.71 252.42 204.64 251.91 208.58 251.4C208.92 251.36 209.29 251.27 209.63 251.27C210.17 251.27 210.73 251.39 211.27 251.45C213.7 251.72 216.12 251.98 218.55 252.25C220.35 252.45 222.15 252.65 223.95 252.84L223.45 252.34C223.18 254.51 222.9 256.69 222.63 258.86L222.2 262.27C222.15 262.66 222.05 262.91 221.91 263.29C221.49 264.45 221.03 265.59 220.57 266.73C219.47 269.44 218.3 272.12 217.33 274.88L217.81 274.51H215.52C215.19 274.51 214.95 274.83 215.04 275.14C215.89 278.24 216.74 281.35 217.59 284.45C218.95 289.42 220.31 294.39 221.68 299.36C221.99 300.5 222.3 301.63 222.61 302.77L223.09 302.14C220.12 302.07 217.15 302 214.18 301.93C209.47 301.82 204.76 301.71 200.05 301.6C198.96 301.57 197.88 301.55 196.79 301.52L197.27 302.15C198.16 299.08 199.06 296.02 199.95 292.95C201.37 288.06 202.8 283.17 204.22 278.28C204.55 277.16 204.88 276.03 205.2 274.91C205.29 274.61 205.04 274.26 204.72 274.28C204 274.32 203.28 274.31 202.57 274.28L203.05 274.65C201.68 270.22 200.32 265.78 198.95 261.34C198.76 260.73 197.8 260.99 197.99 261.61H197.98Z" fill="#007DC8"/>
<path d="M209.59 250.289C214.26 256.729 227.04 268.549 227.04 268.549C227.04 268.549 248.66 257.079 259.2 252.889L286.88 232.759L284.94 228.729L209.59 250.289Z" fill="white"/>
<path d="M132.39 345.099C135.15 361.089 140.01 383.279 142.77 399.259C162.71 399.419 203.94 398.729 203.94 398.729L212.59 374.239L222.94 398.779C222.94 398.779 271.67 398.639 285.55 398.139C287.6 380.719 290.89 359.009 293.58 341.159" fill="#3D4548"/>
<path d="M131.91 345.229C134.39 359.529 137.45 373.729 140.19 387.979C140.92 391.779 141.63 395.579 142.29 399.389C142.33 399.599 142.57 399.759 142.77 399.759C152.56 399.839 162.36 399.739 172.16 399.649C181 399.559 189.84 399.449 198.68 399.309C200.44 399.279 202.19 399.259 203.95 399.229C204.18 399.229 204.36 399.079 204.43 398.859C206.96 391.699 209.49 384.539 212.02 377.379C212.37 376.379 212.73 375.369 213.08 374.369H212.12C215.14 381.519 218.15 388.669 221.17 395.829C221.6 396.859 222.04 397.889 222.47 398.919C222.56 399.129 222.71 399.289 222.95 399.289C228.71 399.269 234.46 399.249 240.22 399.209C250.88 399.149 261.55 399.079 272.21 398.929C276.66 398.869 281.11 398.809 285.56 398.649C285.85 398.639 286.03 398.429 286.06 398.149C287.82 383.239 290.01 368.379 292.23 353.529C292.84 349.449 293.45 345.379 294.07 341.299C294.16 340.669 293.2 340.399 293.11 341.029C290.85 356.049 288.57 371.079 286.57 386.139C286.04 390.139 285.53 394.139 285.06 398.149L285.56 397.649C276.51 397.979 267.44 398.009 258.39 398.089C248.64 398.179 238.9 398.229 229.15 398.269C227.08 398.269 225.02 398.289 222.95 398.289L223.43 398.659C220.41 391.509 217.4 384.359 214.38 377.199C213.95 376.169 213.51 375.139 213.08 374.109C212.89 373.659 212.29 373.609 212.12 374.109C209.59 381.269 207.06 388.429 204.53 395.589C204.18 396.589 203.82 397.599 203.47 398.599L203.95 398.229C198.9 398.309 193.85 398.389 188.8 398.449C178.62 398.589 168.44 398.699 158.26 398.759C153.1 398.789 147.94 398.799 142.77 398.759L143.25 399.129C140.77 384.829 137.71 370.629 134.97 356.379C134.24 352.579 133.53 348.779 132.87 344.969C132.76 344.339 131.8 344.609 131.91 345.239V345.229Z" fill="#231815"/>
<path d="M334.01 283.879C337.16 287.159 340.31 290.429 343.46 293.709C334.99 303.429 326.35 311.649 315.52 318.899C312.73 315.149 308.2 312.609 305.41 308.859" fill="white"/>
<path d="M333.66 284.229C336.81 287.509 339.96 290.779 343.11 294.059V293.349C336.74 300.649 329.86 307.529 322.19 313.479C319.94 315.219 317.63 316.879 315.27 318.469L315.95 318.649C313.07 314.819 308.72 312.429 305.84 308.609C305.46 308.099 304.59 308.609 304.98 309.109C307.86 312.939 312.21 315.329 315.09 319.149C315.24 319.359 315.53 319.489 315.77 319.329C323.91 313.859 331.34 307.429 338.1 300.339C340.05 298.289 341.95 296.189 343.81 294.059C343.99 293.849 344.01 293.559 343.81 293.349C340.66 290.069 337.51 286.799 334.36 283.519C333.91 283.059 333.21 283.759 333.65 284.229H333.66Z" fill="#F0F1F4"/>
<path d="M209.59 250.27C204.92 256.71 193.04 268.799 193.04 268.799C193.04 268.799 159.17 251.049 148.63 246.869L133.2 233.009L132.39 231.479L209.59 250.27Z" fill="white"/>
<path d="M89.21 291.55C87.63 294.13 86.05 296.71 84.47 299.29C94.56 306.94 105.9 315.09 115.99 322.74C117.73 319.82 119.98 316.91 121.72 313.99" fill="white"/>
<path d="M88.78 291.3C87.2 293.88 85.62 296.46 84.04 299.04C83.89 299.29 84.01 299.56 84.22 299.72C92.39 305.91 100.69 311.93 108.92 318.05C111.2 319.75 113.48 321.45 115.74 323.17C115.96 323.33 116.3 323.2 116.42 322.99C118.22 320 120.35 317.23 122.15 314.24C122.48 313.69 121.62 313.18 121.29 313.74C119.49 316.73 117.36 319.5 115.56 322.49L116.24 322.31C108.07 316.12 99.77 310.1 91.54 303.98C89.26 302.28 86.98 300.58 84.72 298.86L84.9 299.54C86.48 296.96 88.06 294.38 89.64 291.8C89.98 291.25 89.11 290.75 88.78 291.3Z" fill="#F1F3F5"/>
<path d="M102.05 262.01C84.61 288.73 82.85 295.38 82.85 295.38C82.85 295.38 118.46 320.35 118.57 319.96C122.98 315.86 126.38 309.73 129.99 304.41C127.53 322.06 127.35 335.36 130.82 352.83C185.24 346.78 240 347.76 294.76 347.79C297.47 333.08 298.4 319.49 296.44 304.2C302.03 308.14 305.97 312.73 311.56 316.67C324.35 309.23 335.74 300.22 344.21 288.09C311.78 246.97 286.77 227.58 286.77 227.58L209.59 296.64L130.42 230.56C130.42 230.56 115.67 241.14 102.05 262.01Z" fill="#3D4448"/>
<path d="M101.61 261.76C96.71 269.28 91.89 276.87 87.51 284.71C85.8 287.76 84.09 290.86 82.78 294.11C82.63 294.48 82.47 294.86 82.36 295.25C82.3 295.48 82.41 295.69 82.59 295.81C87.95 299.57 93.32 303.32 98.7 307.06C102.67 309.82 106.65 312.58 110.64 315.32C113.02 316.95 115.37 318.73 117.88 320.17C118.1 320.3 118.36 320.5 118.63 320.46C119.16 320.38 119.62 319.65 119.96 319.3C120.8 318.43 121.58 317.51 122.33 316.57C125.31 312.8 127.74 308.64 130.43 304.67L129.52 304.28C128.4 312.37 127.61 320.51 127.69 328.69C127.78 336.86 128.77 344.96 130.35 352.97C130.39 353.16 130.63 353.36 130.83 353.34C152.09 350.99 173.45 349.68 194.83 348.99C216.05 348.3 237.27 348.2 258.5 348.23C270.59 348.24 282.68 348.29 294.77 348.3C294.97 348.3 295.21 348.15 295.25 347.93C297.9 333.45 298.8 318.84 296.95 304.2L296.2 304.63C301.53 308.43 305.99 313.3 311.32 317.1C311.46 317.2 311.68 317.18 311.82 317.1C324.51 309.69 336.15 300.45 344.65 288.34C344.79 288.14 344.7 287.9 344.57 287.73C334.04 274.39 322.91 261.52 311.03 249.37C304.47 242.66 297.7 236.13 290.55 230.04C289.42 229.08 288.3 228.12 287.13 227.22C286.91 227.05 286.65 227.02 286.42 227.22C283.87 229.5 281.32 231.79 278.76 234.07C272.63 239.56 266.5 245.04 260.36 250.53C252.9 257.2 245.45 263.87 237.99 270.54C231.57 276.28 225.15 282.03 218.73 287.77C216.61 289.66 214.5 291.56 212.38 293.45L210.4 295.22C210.12 295.47 209.53 295.82 209.36 296.15C209.34 296.19 209.26 296.24 209.22 296.27H209.93C207.31 294.08 204.69 291.89 202.06 289.71C195.76 284.45 189.47 279.2 183.17 273.94C175.55 267.58 167.93 261.22 160.31 254.86C153.72 249.36 147.13 243.86 140.53 238.35C138.35 236.53 136.16 234.71 133.98 232.88C132.97 232.04 131.98 231.05 130.89 230.3C130.84 230.27 130.8 230.22 130.75 230.18C130.59 230.05 130.33 229.97 130.14 230.1C122.74 235.42 116.29 242.44 110.56 249.46C107.36 253.39 104.37 257.48 101.59 261.72C101.24 262.26 102.1 262.76 102.45 262.22C109.68 251.18 118.42 240.82 128.69 232.47C129.33 231.95 129.97 231.43 130.64 230.95L130.03 230.87C132.65 233.06 135.27 235.25 137.9 237.43L156.79 253.2C164.41 259.56 172.03 265.92 179.65 272.28C186.24 277.78 192.83 283.28 199.43 288.79C201.61 290.61 203.8 292.43 205.98 294.26C206.99 295.1 207.98 296.09 209.07 296.84C209.12 296.87 209.16 296.92 209.21 296.96C209.43 297.14 209.7 297.15 209.92 296.96C212.47 294.68 215.02 292.39 217.58 290.11C223.71 284.62 229.84 279.14 235.98 273.65C243.44 266.98 250.89 260.31 258.35 253.64C264.77 247.9 271.19 242.15 277.61 236.41C279.73 234.52 281.84 232.62 283.96 230.73L285.94 228.96C286.22 228.71 286.81 228.36 286.98 228.03C287 227.99 287.08 227.94 287.12 227.91H286.41C290.03 230.72 293.43 233.82 296.8 236.91C306.27 245.62 315.21 254.89 323.78 264.48C330.72 272.25 337.4 280.24 343.86 288.42L343.78 287.81C339.21 294.32 333.68 300.09 327.52 305.12C324.4 307.67 321.13 310.03 317.76 312.23C316.13 313.3 314.48 314.33 312.81 315.32C312.47 315.52 311.92 315.98 311.55 315.95C311.18 315.92 310.73 315.41 310.45 315.2C309.42 314.42 308.43 313.61 307.45 312.77C303.88 309.72 300.52 306.46 296.69 303.73C296.4 303.52 295.89 303.8 295.94 304.16C297.78 318.71 296.91 333.23 294.27 347.62L294.75 347.25C273.34 347.24 251.92 347.08 230.51 347.25C209.3 347.42 188.08 347.92 166.91 349.22C154.85 349.96 142.82 350.96 130.81 352.28L131.29 352.65C129.73 344.73 128.75 336.71 128.67 328.64C128.59 320.56 129.35 312.5 130.46 304.5C130.54 303.95 129.88 303.62 129.55 304.11C127.21 307.57 125.07 311.16 122.59 314.52C121.93 315.42 121.24 316.29 120.51 317.14C120.19 317.51 119.86 317.88 119.52 318.24C119.21 318.56 118.52 319.04 118.35 319.42C118.1 319.98 118.73 319.19 118.73 319.46C118.73 319.45 118.64 319.43 118.63 319.41C118.59 319.34 118.35 319.25 118.29 319.21C115.87 317.74 113.56 316.07 111.23 314.47C103.73 309.33 96.27 304.12 88.82 298.91C86.91 297.57 85 296.24 83.09 294.9L83.32 295.46C83.67 294.15 84.35 292.88 84.94 291.66C87.37 286.65 90.21 281.84 93.09 277.08C96.12 272.06 99.27 267.12 102.47 262.21C102.82 261.67 101.96 261.17 101.61 261.71V261.76Z" fill="#231815"/>
<path d="M158.55 254.64C155.34 261.99 152.22 269.38 149.08 276.76C148.79 277.45 148.49 278.14 148.2 278.83C147.87 279.6 147.74 280.26 148.07 281.05C148.38 281.78 148.93 282.26 149.69 282.5C151.13 282.96 152.56 283.41 154 283.86C157.66 285.01 161.32 286.14 164.99 287.25C169.82 288.72 174.67 290.17 179.52 291.58C184.37 292.99 189.61 294.47 194.68 295.81C198.86 296.92 203.05 297.99 207.29 298.84C207.71 298.92 208.12 297.8 208.12 297.8C208.12 297.8 208.39 297.76 209.48 296.62L206.15 293.36C202.05 292.52 201.9 292.46 197.79 291.44C192.75 290.19 187.77 288.73 182.78 287.3C177.79 285.87 172.93 284.42 168.02 282.93C164.15 281.76 160.28 280.57 156.41 279.36C154.65 278.81 152.89 278.17 151.1 277.69C151.07 277.69 151.05 277.67 151.03 277.67L152.52 281.34C155.05 275.36 157.59 269.39 160.15 263.43C161.05 261.33 161.95 259.24 162.86 257.15L160.73 255.9C160.82 256.01 158.55 254.63 158.55 254.63V254.64Z" fill="#008FCF"/>
<path d="M252.06 258.72C257.61 266.02 262.12 274.04 267.67 281.35L268.57 277.93C256.8 283.61 245.03 289.29 233.26 294.97C221.57 300.61 209.87 306.26 198.18 311.9C193.65 314.08 184.32 319.57 180.14 323.82C191.91 318.14 204.45 314.41 216.22 308.73C227.91 303.09 239.61 297.44 251.3 291.8C257.9 288.62 264.49 285.43 271.09 282.25C272.21 281.71 272.76 279.85 271.99 278.83C266.44 271.53 261.93 263.51 256.38 256.2C255.97 255.66 256.1 255.65 255.41 255.46" fill="#008FCE"/>
<path d="M286.42 227.23C279.56 233.47 272.67 239.69 265.76 245.88C258.85 252.07 251.78 258.39 244.78 264.63C237.71 270.93 230.63 277.22 223.56 283.52C216.49 289.82 209.54 296.02 202.54 302.28C195.61 308.49 188.7 314.71 181.82 320.96C180.98 321.72 180.14 322.48 179.3 323.25C178.82 323.68 179.53 324.39 180.01 323.96C186.87 317.72 193.76 311.5 200.67 305.31C207.65 299.05 214.65 292.8 221.65 286.56C228.65 280.32 235.8 273.97 242.87 267.67C249.94 261.37 256.89 255.17 263.89 248.91C270.89 242.65 277.73 236.48 284.61 230.23C285.45 229.47 286.29 228.71 287.13 227.94C287.61 227.51 286.9 226.8 286.42 227.23Z" fill="#231815"/>
<path d="M286.29 227.709C287.94 234.849 289.12 242.089 290.56 249.269C290.94 251.169 291.34 253.069 291.77 254.959L292 254.399C284.43 258.639 276.32 261.749 268.51 265.499C266.26 266.579 264.03 267.719 261.85 268.939C261.29 269.249 261.79 270.119 262.35 269.799C269.92 265.559 278.03 262.449 285.84 258.699C288.09 257.619 290.32 256.479 292.5 255.259C292.7 255.149 292.78 254.909 292.73 254.699C291.08 247.559 289.9 240.319 288.46 233.139C288.08 231.239 287.68 229.339 287.25 227.449C287.11 226.819 286.14 227.089 286.29 227.719V227.709Z" fill="#231815"/>
<path d="M284.78 230.07C286.41 238.67 287.8 245.27 289.43 253.61C281.75 257.22 276.2 259.54 268.82 263.05C266.63 264.09 264.47 265.2 262.36 266.38C261.22 267.02 260.74 268.68 261.46 269.8C262.18 270.92 263.66 271.38 264.88 270.7C272.03 266.7 279.69 263.83 287.07 260.32C289.26 259.28 291.42 258.17 293.53 256.99C294.53 256.43 294.93 255.24 294.68 254.17C292.75 245.81 291.32 238.39 289.97 230.77L286.87 228.26L284.79 230.08L284.78 230.07Z" fill="#008FCF"/>
<path d="M127.52 233.529C125.87 240.669 125.16 244.519 123.72 251.699C123.34 253.599 122.94 255.499 122.51 257.389C122.27 258.409 122.65 259.709 123.66 260.209C130.95 263.849 138.11 267.719 145.47 271.219C147.78 272.319 150.1 273.379 152.44 274.409C153.63 274.929 155.18 274.799 155.86 273.509C156.43 272.429 156.24 270.649 154.96 270.089C147.4 266.759 140.06 262.989 132.72 259.209C130.55 258.089 128.37 256.979 126.18 255.889L127.33 258.709C128.98 251.569 130.16 244.329 131.6 237.149C131.98 235.249 132.25 234.309 132.68 232.419C132.68 232.419 131.77 231.379 130.41 231.069L127.51 233.519L127.52 233.529Z" fill="#008FCF"/>
<path d="M130.07 230.91C140.28 239.52 150.54 248.08 160.8 256.63C171.26 265.34 181.72 274.04 192.16 282.77C197.84 287.52 203.52 292.28 209.18 297.05C209.67 297.46 210.38 296.76 209.89 296.34C199.68 287.73 189.42 279.17 179.16 270.62C168.7 261.91 158.24 253.21 147.8 244.48C142.12 239.73 136.44 234.97 130.78 230.2C130.29 229.79 129.58 230.49 130.07 230.91Z" fill="#231815"/>
<path d="M179.15 323.61C179.42 332.1 179.02 340.59 179.29 349.07C179.31 349.71 180.31 349.71 180.29 349.07C180.02 340.58 180.42 332.09 180.15 323.61C180.13 322.97 179.13 322.97 179.15 323.61Z" fill="#231815"/>
<path d="M192.83 331.48C195.006 331.48 196.77 329.716 196.77 327.54C196.77 325.364 195.006 323.6 192.83 323.6C190.654 323.6 188.89 325.364 188.89 327.54C188.89 329.716 190.654 331.48 192.83 331.48Z" fill="#1F2020"/>
<path d="M192.83 345.1C195.006 345.1 196.77 343.336 196.77 341.16C196.77 338.984 195.006 337.22 192.83 337.22C190.654 337.22 188.89 338.984 188.89 341.16C188.89 343.336 190.654 345.1 192.83 345.1Z" fill="#1F2020"/>
<path d="M232.42 344.31C234.596 344.31 236.36 342.546 236.36 340.37C236.36 338.194 234.596 336.43 232.42 336.43C230.244 336.43 228.48 338.194 228.48 340.37C228.48 342.546 230.244 344.31 232.42 344.31Z" fill="#1F2020"/>
<path d="M232.21 330.12C234.386 330.12 236.15 328.356 236.15 326.18C236.15 324.004 234.386 322.24 232.21 322.24C230.034 322.24 228.27 324.004 228.27 326.18C228.27 328.356 230.034 330.12 232.21 330.12Z" fill="#1F2020"/>
<path d="M93.94 126.629C174.32 156.299 244.55 152.069 316.38 125.959L210.81 95.2891L93.93 126.639L93.94 126.629Z" fill="#3C4348"/>
<path d="M93.8 127.109C108.84 132.649 124.21 137.279 139.87 140.719C154.42 143.919 169.21 146.079 184.08 147.089C198.95 148.099 212.78 147.959 227.08 146.789C241.27 145.629 255.38 143.439 269.28 140.349C283.52 137.189 297.54 133.099 311.31 128.289C313.05 127.679 314.79 127.059 316.53 126.429C316.98 126.269 317.03 125.609 316.53 125.469C312.68 124.349 308.83 123.229 304.99 122.119C295.89 119.479 286.79 116.829 277.69 114.189C267.04 111.089 256.38 107.999 245.73 104.899C237.13 102.399 228.53 99.8995 219.93 97.3995L212.71 95.2995C212.04 95.0995 211.25 94.7095 210.54 94.8395C209.15 95.0895 207.76 95.5795 206.4 95.9495L197.59 98.3095C188.55 100.739 179.5 103.159 170.46 105.589C159.67 108.479 148.88 111.379 138.1 114.269C128.64 116.809 119.19 119.339 109.73 121.879C104.66 123.239 99.59 124.599 94.52 125.959C94.29 126.019 94.05 126.089 93.82 126.149C93.2 126.319 93.46 127.279 94.09 127.109C97.64 126.159 101.19 125.199 104.75 124.249C113.39 121.929 122.03 119.609 130.67 117.299C141.38 114.429 152.09 111.559 162.8 108.679C172.55 106.059 182.31 103.449 192.06 100.829C197.84 99.2795 203.62 97.7295 209.4 96.1795C209.84 96.0595 210.39 95.9995 210.81 95.7995C211.09 95.6695 210.54 95.6495 210.96 95.8295C212.43 96.4395 214.12 96.7495 215.65 97.1895C223.23 99.3895 230.81 101.599 238.4 103.799C248.9 106.849 259.39 109.899 269.89 112.949C279.67 115.789 289.45 118.629 299.23 121.469C304.66 123.049 310.09 124.629 315.53 126.209C315.78 126.279 316.04 126.359 316.29 126.429V125.469C302.58 130.449 288.63 134.749 274.44 138.139C260.25 141.529 246.42 143.919 232.19 145.329C217.96 146.739 203.86 147.099 189.69 146.409C174.86 145.689 160.1 143.809 145.55 140.879C130.07 137.759 114.83 133.469 99.93 128.239C97.98 127.559 96.04 126.859 94.11 126.139C93.5 125.919 93.24 126.879 93.84 127.099L93.8 127.109Z" fill="#231815"/>
<path d="M101.02 103.98C96.06 102.59 77.26 92.0598 77.57 84.6298C78.11 71.8598 110.5 50.1798 130.47 41.4898C153.61 31.4298 189.13 19.6898 208.88 19.7198C226.26 19.7498 259.57 31.9298 275.8 38.3398C294.92 45.8898 333.6 63.7498 333.66 80.5998C333.68 86.5998 311.53 103.67 309.65 103.38L208.52 102.83L101.01 103.98H101.02Z" fill="#3B4348"/>
<path d="M101.15 103.49C99.27 102.95 97.48 102.03 95.76 101.13C93.29 99.8397 90.88 98.3997 88.57 96.8297C86.13 95.1697 83.76 93.3597 81.7 91.2497C80.18 89.6997 78.51 87.7697 78.13 85.5597C77.81 83.7197 78.59 81.7297 79.4 80.1197C80.48 77.9797 81.92 76.0397 83.47 74.2297C87.54 69.4797 92.42 65.3997 97.4 61.6397C108.05 53.6097 119.73 46.6297 131.99 41.3697C146.24 35.2497 160.95 30.0397 175.91 25.9197C182.91 23.9897 190 22.3097 197.18 21.2197C202.91 20.3497 208.67 19.9197 214.45 20.5697C221.06 21.3097 227.58 22.8697 233.99 24.6097C241.04 26.5297 248 28.7497 254.91 31.1297C266.25 35.0397 277.53 39.2797 288.46 44.2397C300.34 49.6297 312.45 55.7097 322.49 64.1497C326.36 67.3997 330.33 71.2697 332.23 76.0597C332.86 77.6497 333.52 79.7797 333.01 81.4797C332.5 83.1797 331.2 84.7597 330.06 86.0997C326.7 90.0697 322.7 93.5397 318.65 96.7797C316.83 98.2397 314.97 99.6597 313.04 100.97C312.1 101.61 310.92 102.61 309.78 102.85C309.19 102.98 308.02 102.85 307.29 102.85L300.04 102.81C291.97 102.77 283.89 102.72 275.82 102.68L246.3 102.52C237.8 102.47 229.3 102.43 220.8 102.38C216.75 102.36 212.7 102.31 208.65 102.31C205.95 102.31 203.26 102.37 200.56 102.39C193 102.47 185.44 102.55 177.88 102.63C168.13 102.73 158.38 102.84 148.63 102.94C139.45 103.04 130.26 103.14 121.08 103.23L103.45 103.42C102.64 103.42 101.82 103.44 101.01 103.45C100.37 103.45 100.37 104.46 101.01 104.45C104.39 104.41 107.77 104.38 111.15 104.34L135.69 104.08C145.7 103.97 155.7 103.87 165.71 103.76C174.7 103.66 183.69 103.57 192.68 103.47L207.65 103.31C209.86 103.29 212.08 103.31 214.29 103.33C221.67 103.37 229.05 103.41 236.43 103.45C246.37 103.5 256.3 103.56 266.24 103.61C275.4 103.66 284.56 103.71 293.72 103.76C298.79 103.79 303.85 103.81 308.92 103.84C310.29 103.84 311.26 103.3 312.44 102.55C316.43 100.02 320.14 96.9597 323.68 93.8397C327.22 90.7197 331.02 87.3997 333.28 83.2997C335.15 79.9197 333.58 75.8697 331.72 72.7997C328.92 68.1597 324.7 64.4597 320.44 61.1997C315.11 57.1297 309.34 53.6697 303.45 50.4897C292.72 44.6997 281.51 39.8997 270.12 35.5597C256.83 30.4997 243.32 25.7797 229.5 22.3697C223.39 20.8597 217.13 19.5297 210.83 19.2297C204.81 18.9397 198.73 19.8197 192.83 20.8997C177.37 23.7397 162.24 28.5997 147.52 34.0697C140.88 36.5397 134.24 39.1197 127.81 42.0997C121.73 44.9197 115.85 48.1897 110.15 51.7097C104.45 55.2297 98.42 59.3797 92.99 63.7997C88.44 67.4997 83.95 71.5397 80.53 76.3397C78.41 79.3197 76.07 83.4197 77.59 87.1397C78.49 89.3397 80.19 91.1797 81.89 92.7897C83.98 94.7597 86.31 96.4897 88.71 98.0797C92.42 100.54 96.57 103.17 100.89 104.42C101.51 104.6 101.77 103.63 101.16 103.46L101.15 103.49Z" fill="#231815"/>
<path d="M93.58 126.62C164.45 105.82 244.46 105.08 317.03 125.96C316.73 120.21 313.54 108.07 310.59 103.38C239.45 82.9099 172.18 83.4599 100.76 103.98C97.85 104.82 94.32 118.86 93.64 126.63H93.59L93.58 126.62Z" fill="#82888B"/>
<path d="M208.21 110.88C214.528 110.88 219.65 104.796 219.65 97.2902C219.65 89.7846 214.528 83.7002 208.21 83.7002C201.892 83.7002 196.77 89.7846 196.77 97.2902C196.77 104.796 201.892 110.88 208.21 110.88Z" fill="#F6DA65"/>
<path d="M159.59 188.62C148.33 188.62 139.17 180.34 139.17 170.17V169.62H180.01V170.17C180.01 180.34 170.85 188.62 159.59 188.62ZM140.28 170.72C140.61 180.03 149.14 187.51 159.59 187.51C170.04 187.51 178.57 180.03 178.89 170.72H140.28Z" fill="#231815"/>
<path d="M172 170.78C172 176.74 166.44 181.58 159.58 181.58C152.72 181.58 147.16 176.74 147.16 170.78H172Z" fill="#231815"/>
<path d="M159.59 188.62C148.33 188.62 139.17 180.34 139.17 170.17V169.62H180.01V170.17C180.01 180.34 170.85 188.62 159.59 188.62ZM140.28 170.72C140.61 180.03 149.14 187.51 159.59 187.51C170.04 187.51 178.57 180.03 178.89 170.72H140.28Z" fill="#231815"/>
<path d="M172 170.37C172 176.33 166.44 181.17 159.58 181.17C152.72 181.17 147.16 176.33 147.16 170.37H172Z" fill="#231815"/>
<path d="M139.927 153.025L139.498 154.049L179.238 170.681L179.667 169.657L139.927 153.025Z" fill="#231815"/>
<path d="M253.15 188.619C241.89 188.619 232.73 180.339 232.73 170.169V169.619H273.57V170.169C273.57 180.339 264.41 188.619 253.15 188.619ZM233.85 170.719C234.18 180.029 242.71 187.509 253.15 187.509C263.59 187.509 272.13 180.029 272.45 170.719H233.84H233.85Z" fill="#231815"/>
<path d="M240.73 170.779C240.73 176.739 246.29 181.579 253.15 181.579C260.01 181.579 265.57 176.739 265.57 170.779H240.73Z" fill="#231815"/>
<path d="M253.15 188.619C241.89 188.619 232.73 180.339 232.73 170.169V169.619H273.57V170.169C273.57 180.339 264.41 188.619 253.15 188.619ZM233.85 170.719C234.18 180.029 242.71 187.509 253.15 187.509C263.59 187.509 272.13 180.029 272.45 170.719H233.84H233.85Z" fill="#231815"/>
<path d="M240.73 170.369C240.73 176.329 246.29 181.169 253.15 181.169C260.01 181.169 265.57 176.329 265.57 170.369H240.73Z" fill="#231815"/>
<path d="M272.804 153.03L233.066 169.669L233.495 170.693L273.232 154.054L272.804 153.03Z" fill="#231815"/>
<path d="M203.64 213.41C210.17 209.3 209.23 199.36 202.03 196.58C195.41 194.02 186.51 193.06 176.22 198.21C153.76 209.44 147.39 202.55 144.58 199.74C144.58 199.74 169.44 234.94 203.64 213.41Z" fill="#231815"/>
<path d="M209.8 213.41C203.27 209.3 204.21 199.36 211.41 196.58C218.03 194.02 226.93 193.06 237.22 198.21C259.68 209.44 266.05 202.55 268.86 199.74C268.86 199.74 244 234.94 209.8 213.41Z" fill="#231815"/>
</g>
<defs>
<clipPath id="clip0_810_1651">
<rect width="425.2" height="425.2" fill="white"/>
</clipPath>
</defs>
</svg>
